<svg xmlns="http://www.w3.org/2000/svg" viewBox="0 0 304.68 46.54"><defs><style>.cls-1{font-size:44.62px;fill:#afc0ce;font-family:Urbana-Light, Urbana;}.cls-2{letter-spacing:-0.02em;}.cls-3{letter-spacing:-0.08em;}.cls-4{letter-spacing:-0.03em;}.cls-5{letter-spacing:0em;}.cls-10,.cls-6{fill:#46b29d;}.cls-6,.cls-7{stroke:#324d5c;stroke-linecap:square;stroke-linejoin:round;stroke-width:5.63px;}.cls-7{fill:#324d5c;}.cls-8{fill:#e37b40;}.cls-9{fill:#f0ca4d;}</style></defs><title>Asset 1</title><g id="Layer_2" data-name="Layer 2"><g id="Layer_1-2" data-name="Layer 1"><text class="cls-1" transform="translate(43 36.28)">J<tspan class="cls-2" x="15.04" y="0">J</tspan><tspan x="29.4" y="0">ASHCRAF</tspan><tspan class="cls-3" x="168.74" y="0">T</tspan><tspan class="cls-4" x="182.13" y="0">.</tspan><tspan class="cls-2" x="191.14" y="0">C</tspan><tspan class="cls-5" x="208.77" y="0">OM</tspan></text><path class="cls-6" d="M11.68,25.06l3.51-13.18c.36-1.37.27-1.67-.71-1.93L10,8.76c-.94-.25-1.33-.11-1.48.48a4.25,4.25,0,0,0-.15,1.07l4.23,1L9.1,24.54c-.81,3.06-1.86,3.73-3.88,3.19A7.72,7.72,0,0,1,3.56,27s-.74,1.62-.74,1.62a6.81,6.81,0,0,0,2,.88C8.75,30.58,10.73,28.64,11.68,25.06Z"/><path class="cls-6" d="M22.7,8.7c.56-2.1.42-2.57-1.09-3L14.74,3.9c-1.45-.38-2-.17-2.28.74a6.26,6.26,0,0,0-.23,1.65l6.52,1.52L13.32,28.22c-1.25,4.71-2.86,5.73-6,4.9a11.46,11.46,0,0,1-2.56-1L3.64,34.55a10.24,10.24,0,0,0,3.08,1.36c6.06,1.61,9.12-1.39,10.58-6.9Z"/><path class="cls-7" d="M30.45,7.21l-5.7-.1c.19-.7-8.61,30.63-8.27,30.64l3.85.07,1.57-6.57,9.65.18.87,4.5c.36,1.92.85,2.27,2.5,2.3a5.54,5.54,0,0,0,2.21-.35S32,7.89,30.45,7.21Zm-7.9,21.35L27,10.25h.6L24.47,22.65Z"/><path class="cls-8" d="M9.8,8.46A4.25,4.25,0,0,1,10,7.39c.15-.59.54-.73,1.48-.48L15.89,8.1c1,.26,1.07.56.71,1.93L13.09,23.21c-.95,3.58-2.93,5.53-6.87,4.48a7,7,0,0,1-2-.88S5,25.23,5,25.19a7.72,7.72,0,0,0,1.66.69c2,.54,3.07-.12,3.88-3.18L14,9.45Z"/><path class="cls-9" d="M13.64,4.45a6.74,6.74,0,0,1,.22-1.66c.24-.9.84-1.12,2.29-.74L23,3.88c1.5.4,1.65.87,1.09,3l-5.4,20.31c-1.47,5.51-4.52,8.51-10.58,6.9A10.24,10.24,0,0,1,5.05,32.7s1.13-2.43,1.14-2.48a11.54,11.54,0,0,0,2.57,1.05c3.11.83,4.72-.19,6-4.9L20.16,6Z"/><path class="cls-10" d="M33.82,34.08,33,29.59l-9.65-.18L21.74,36l-3.85-.07c-.15,0,8-29.72,8.27-30.64s4.2-.63,5.7.11S38.54,36,38.54,36a5.71,5.71,0,0,1-2.21.36C34.68,36.36,34.19,36,33.82,34.08ZM24,26.71l8.5.16L29,8.41h-.6Z"/></g></g></svg>