<svg xmlns="http://www.w3.org/2000/svg" viewBox="0 0 239.5 146.83"><defs><style>.cls-1{fill:#343a40;}.cls-2,.cls-4{fill:#324d5c;}.cls-3{fill:#e37b40;}.cls-4{opacity:0.3;}.cls-12,.cls-4,.cls-5{font-size:36.21px;}.cls-12,.cls-4,.cls-5,.cls-6,.cls-7{font-family:BebasNeue, Bebas Neue;}.cls-5{opacity:0.22;fill:#46b29d;}.cls-6{font-size:47.47px;fill:#f53855;}.cls-7{font-size:78.57px;fill:#0fa5a5;}.cls-8{font-size:10.95px;fill:#fff;font-family:BarlowSemiCondensed-Thin, Barlow Semi Condensed;}.cls-9{letter-spacing:-0.01em;}.cls-10{letter-spacing:0em;}.cls-11{letter-spacing:0em;}.cls-12,.cls-13{fill:#f0ca4d;}.cls-13{font-size:9.38px;font-family:BarlowSemiCondensed-Medium, Barlow Semi Condensed;}.cls-14{letter-spacing:0em;}.cls-15{letter-spacing:0em;}.cls-16{letter-spacing:0em;}.cls-17{letter-spacing:-0.01em;}.cls-18{letter-spacing:-0.01em;}.cls-19{letter-spacing:0em;}.cls-20{letter-spacing:0em;}.cls-21{letter-spacing:0em;}.cls-22{letter-spacing:-0.02em;}.cls-23{letter-spacing:-0.01em;}</style></defs><title>Artboard 1</title><g id="Layer_2" data-name="Layer 2"><rect class="cls-1" x="-0.33" y="-0.5" width="240" height="148"/></g><g id="Layer_1" data-name="Layer 1"><path class="cls-2" d="M148.67,38.5V.5h38V34.43L169.46,75.5H153.33l10.39-37Zm53,0V.5h38V34.43L222.46,75.5H206.33l10.39-37Z"/><path class="cls-3" d="M46.67,99.5v47h-47V104.34L21,55.5h20l-12.85,44Zm64,0v47h-47V104.34L85,55.5h20l-12.85,44Z"/><text class="cls-4" transform="translate(-0.73 51.88) scale(0.99 1)">Curiosity</text><text class="cls-5" transform="translate(-0.73 35.88) scale(0.99 1)">Curiosity</text><text class="cls-6" transform="translate(145.49 91.5) rotate(-90) scale(0.99 1)">ABOUT</text><text class="cls-7" transform="translate(145.67 91.72) scale(0.99 1)">life</text><text class="cls-8" transform="translate(184.67 143.19)">–Leo <tspan class="cls-9" x="21.86" y="0">B</tspan><tspan x="27.6" y="0">urn</tspan><tspan class="cls-10" x="41.38" y="0">e</tspan><tspan class="cls-11" x="46.36" y="0">tt</tspan></text><text class="cls-12" transform="translate(-0.73 25.88) scale(0.99 1)">Curiosity</text><text class="cls-13" transform="translate(176.2 102.72)">in all its aspe<tspan class="cls-14" x="47.71" y="0">c</tspan><tspan x="52.09" y="0">ts, </tspan><tspan x="-26.3" y="10.41">I thi</tspan><tspan class="cls-15" x="-12.42" y="10.41">n</tspan><tspan class="cls-16" x="-7.86" y="10.41">k, is still the sec</tspan><tspan class="cls-17" x="50.79" y="10.41">r</tspan><tspan class="cls-18" x="53.9" y="10.41">e</tspan><tspan class="cls-19" x="58.32" y="10.41">t </tspan><tspan class="cls-20" x="-26.67" y="20.82">o</tspan><tspan x="-22.11" y="20.82">f g</tspan><tspan class="cls-17" x="-12.65" y="20.82">r</tspan><tspan x="-9.55" y="20.82">e</tspan><tspan class="cls-21" x="-5.06" y="20.82">a</tspan><tspan x="-0.68" y="20.82">t c</tspan><tspan class="cls-17" x="8.62" y="20.82">r</tspan><tspan x="11.72" y="20.82">e</tspan><tspan class="cls-21" x="16.21" y="20.82">a</tspan><tspan x="20.58" y="20.82">ti</tspan><tspan class="cls-22" x="25.77" y="20.82">v</tspan><tspan x="29.79" y="20.82">e peopl</tspan><tspan class="cls-23" x="56.51" y="20.82">e</tspan><tspan class="cls-16" x="60.87" y="20.82">.</tspan></text></g></svg>