<svg xmlns="http://www.w3.org/2000/svg" viewBox="0 0 250 150"><defs><style>.cls-1{opacity:0.34;}.cls-2{fill:#46b29d;}.cls-3{fill:#324d5c;}.cls-4{opacity:0.3;}.cls-5{opacity:0.22;}.cls-6{fill:#f53855;}.cls-7{fill:#e37b40;}.cls-8{fill:#fff;}.cls-9{fill:#f0ca4d;}</style></defs><title>curiosity_ol</title><g id="Layer_1" data-name="Layer 1"><rect x="-0.08" y="0.08" width="250" height="150"/><g class="cls-1"><path class="cls-2" d="M78.12,112.44V149.7H40.86V116.27L57.73,77.56H73.55L63.36,112.44Zm50.74,0V149.7H91.6V116.27l16.87-38.71h15.82L114.1,112.44Z"/></g><path class="cls-3" d="M155.86,34.11V2.7h38V30.75l-17.2,34H160.52l10.4-30.59Zm53,0V2.7h38V30.75l-17.2,34H213.52l10.4-30.59Z"/><path class="cls-2" d="M46.86,102.7v47h-47V107.54L21.14,58.7h20l-12.86,44Zm64,0v47h-47V107.54L85.14,58.7h20l-12.86,44Z"/><g class="cls-4"><path class="cls-3" d="M15.3,45.63V49c0,4.06-2,6.38-5.87,6.38S3.57,53.05,3.57,49V35.81c0-4.05,2-6.37,5.86-6.37s5.87,2.32,5.87,6.37v2.47H11.58V35.56c0-1.81-.79-2.5-2-2.5s-2,.69-2,2.5V49.25c0,1.81.79,2.46,2,2.46s2-.65,2-2.46V45.63Z"/><path class="cls-3" d="M21.44,29.73V49.28c0,1.81.79,2.47,2,2.47s2-.66,2-2.47V29.73h3.72V49c0,4.06-2,6.37-5.86,6.37S17.51,53.09,17.51,49V29.73Z"/><path class="cls-3" d="M40.14,55.08A8.05,8.05,0,0,1,39.79,52V48c0-2.35-.79-3.22-2.58-3.22H35.85V55.08H31.92V29.73h5.94c4.07,0,5.82,1.92,5.82,5.83v2c0,2.61-.82,4.27-2.57,5.11v.07c2,.83,2.61,2.72,2.61,5.36V52a7.45,7.45,0,0,0,.43,3.08ZM35.85,33.35v7.79h1.54c1.47,0,2.36-.66,2.36-2.68V36c0-1.81-.61-2.61-2-2.61Z"/><path class="cls-3" d="M46.29,29.73h3.94V55.08H46.29Z"/><path class="cls-3" d="M52.76,35.81c0-4.05,2.11-6.37,6-6.37s6,2.32,6,6.37V49c0,4.06-2.11,6.38-6,6.38s-6-2.32-6-6.38ZM56.7,49.25c0,1.81.78,2.5,2,2.5s2-.69,2-2.5V35.56c0-1.81-.78-2.5-2-2.5s-2,.69-2,2.5Z"/><path class="cls-3" d="M72.53,29.44c3.83,0,5.8,2.32,5.8,6.37v.8H74.61v-1c0-1.81-.72-2.5-2-2.5s-2,.69-2,2.5.78,3.22,3.36,5.5c3.28,2.94,4.32,5,4.32,7.93,0,4.06-2,6.38-5.86,6.38S66.64,53.05,66.64,49V47.44h3.71v1.81c0,1.81.79,2.46,2,2.46s2-.65,2-2.46-.79-3.23-3.36-5.51c-3.29-2.93-4.33-5-4.33-7.93C66.74,31.76,68.71,29.44,72.53,29.44Z"/><path class="cls-3" d="M80.61,29.73h3.94V55.08H80.61Z"/><path class="cls-3" d="M86.26,29.73H98.42v3.62H94.31V55.08H90.37V33.35H86.26Z"/><path class="cls-3" d="M103.82,46.68l-5-16.95H103l3,11.55H106l3-11.55h3.76l-5,17v8.4h-3.93Z"/></g><g class="cls-5"><path class="cls-2" d="M15.3,29.63V33c0,4.06-2,6.38-5.87,6.38S3.57,37.05,3.57,33V19.81c0-4,2-6.37,5.86-6.37s5.87,2.32,5.87,6.37v2.47H11.58V19.56c0-1.81-.79-2.5-2-2.5s-2,.69-2,2.5V33.25c0,1.81.79,2.46,2,2.46s2-.65,2-2.46V29.63Z"/><path class="cls-2" d="M21.44,13.73V33.28c0,1.81.79,2.47,2,2.47s2-.66,2-2.47V13.73h3.72V33c0,4.06-2,6.37-5.86,6.37S17.51,37.09,17.51,33V13.73Z"/><path class="cls-2" d="M40.14,39.08A8.05,8.05,0,0,1,39.79,36V32c0-2.35-.79-3.22-2.58-3.22H35.85V39.08H31.92V13.73h5.94c4.07,0,5.82,1.92,5.82,5.83v2c0,2.61-.82,4.27-2.57,5.11v.07c2,.83,2.61,2.72,2.61,5.36V36a7.45,7.45,0,0,0,.43,3.08ZM35.85,17.35v7.79h1.54c1.47,0,2.36-.66,2.36-2.68V20c0-1.81-.61-2.61-2-2.61Z"/><path class="cls-2" d="M46.29,13.73h3.94V39.08H46.29Z"/><path class="cls-2" d="M52.76,19.81c0-4,2.11-6.37,6-6.37s6,2.32,6,6.37V33c0,4.06-2.11,6.38-6,6.38s-6-2.32-6-6.38ZM56.7,33.25c0,1.81.78,2.5,2,2.5s2-.69,2-2.5V19.56c0-1.81-.78-2.5-2-2.5s-2,.69-2,2.5Z"/><path class="cls-2" d="M72.53,13.44c3.83,0,5.8,2.32,5.8,6.37v.8H74.61V19.56c0-1.81-.72-2.5-2-2.5s-2,.69-2,2.5.78,3.22,3.36,5.5c3.28,2.94,4.32,5,4.32,7.93,0,4.06-2,6.38-5.86,6.38S66.64,37.05,66.64,33V31.44h3.71v1.81c0,1.81.79,2.46,2,2.46s2-.65,2-2.46-.79-3.23-3.36-5.51c-3.29-2.93-4.33-5-4.33-7.93C66.74,15.76,68.71,13.44,72.53,13.44Z"/><path class="cls-2" d="M80.61,13.73h3.94V39.08H80.61Z"/><path class="cls-2" d="M86.26,13.73H98.42v3.62H94.31V39.08H90.37V17.35H86.26Z"/><path class="cls-2" d="M103.82,30.68l-5-16.95H103l3,11.55H106l3-11.55h3.76l-5,17v8.4h-3.93Z"/></g><path class="cls-6" d="M148.69,77.14v5.2l-6,.89v6.33l6,.89v4.73l-33.23-5.25V82.39ZM138.15,88.9v-5l-16.81,2.44v.1Z"/><path class="cls-6" d="M123.1,59.33h1.19c3.41,0,5.55,1,6.64,3.33h.1c1.09-2.77,3.56-3.85,7.07-3.85h2.71c5.12,0,7.88,2.67,7.88,7.83v8.11H115.46V67C115.46,61.62,118,59.33,123.1,59.33Zm-2.9,10.26H129v-2c0-1.92-.86-3.1-3.52-3.1h-1.85c-2.37,0-3.42.8-3.42,2.63Zm13.53,0h10.21v-3c0-1.73-.81-2.67-3.28-2.67h-2.89c-3.09,0-4,1-4,3.33Z"/><path class="cls-6" d="M123.43,56.14c-5.32,0-8.35-2.76-8.35-7.82s3-7.83,8.35-7.83h17.28c5.32,0,8.36,2.76,8.36,7.83s-3,7.82-8.36,7.82ZM141,51c2.38,0,3.28-1,3.28-2.67s-.9-2.68-3.28-2.68H123.1c-2.37,0-3.28,1-3.28,2.68S120.73,51,123.1,51Z"/><path class="cls-6" d="M115.46,32.24h25.63c2.37,0,3.23-1,3.23-2.67s-.86-2.67-3.23-2.67H115.46V22h25.3c5.31,0,8.35,2.63,8.35,7.69s-3,7.69-8.35,7.69h-25.3Z"/><path class="cls-6" d="M115.46,20V4.07h4.74V9.46h28.49v5.16H120.2V20Z"/><path class="cls-7" d="M154,43.11h8.53V88.76h14v7.61H154Z"/><path class="cls-7" d="M180.26,43.11h8.54V96.37h-8.54Z"/><path class="cls-7" d="M203.54,66.77h11v7.61h-11v22H195V43.11h22.58v7.61h-14Z"/><path class="cls-7" d="M230.23,65.55h11.71v7.61H230.23v15.6H245v7.61H221.69V43.11H245v7.61H230.23Z"/><path class="cls-8" d="M191.31,142.35v-.09a.1.1,0,0,1,.11-.11h3.28a.1.1,0,0,1,.11.11v.09c0,.07,0,.1-.11.1h-3.28C191.35,142.45,191.31,142.42,191.31,142.35Z"/><path class="cls-8" d="M196.36,145.28v-7.45a.1.1,0,0,1,.11-.11h.11a.1.1,0,0,1,.11.11V145s0,0,0,0H200a.1.1,0,0,1,.11.11v.09a.1.1,0,0,1-.11.11h-3.57A.1.1,0,0,1,196.36,145.28Z"/><path class="cls-8" d="M203.84,144.91a1.3,1.3,0,0,0,.5-.69.14.14,0,0,1,.14-.09h.08a.1.1,0,0,1,.09,0,.09.09,0,0,1,0,.09,1.63,1.63,0,0,1-.61.88,1.73,1.73,0,0,1-1.09.34,1.67,1.67,0,0,1-1.16-.42,1.72,1.72,0,0,1-.56-1.08c0-.27,0-.71,0-1.34s0-1,0-1.3a1.75,1.75,0,0,1,.56-1.1,1.69,1.69,0,0,1,1.17-.43,1.75,1.75,0,0,1,1.21.43,1.69,1.69,0,0,1,.55,1.12c0,.23,0,.64,0,1.25a.1.1,0,0,1-.11.11h-3.07s0,0,0,0c0,.55,0,.92,0,1.12a1.41,1.41,0,0,0,.44.93,1.39,1.39,0,0,0,1,.36A1.41,1.41,0,0,0,203.84,144.91ZM202,140.48a1.39,1.39,0,0,0-.44.92c0,.19,0,.51,0,1,0,0,0,0,0,0h2.81s0,0,0,0c0-.48,0-.8,0-1a1.42,1.42,0,0,0-.45-.93,1.37,1.37,0,0,0-1-.36A1.35,1.35,0,0,0,202,140.48Z"/><path class="cls-8" d="M206.81,145.06a1.71,1.71,0,0,1-.55-1.09,6.76,6.76,0,0,1,0-.91v-.42c0-.62,0-1.06,0-1.31a1.62,1.62,0,0,1,.55-1.09,1.71,1.71,0,0,1,1.18-.43,1.76,1.76,0,0,1,1.2.43,1.57,1.57,0,0,1,.54,1.09,12.7,12.7,0,0,1,.05,1.31,12.89,12.89,0,0,1-.05,1.33,1.67,1.67,0,0,1-.55,1.09,1.73,1.73,0,0,1-1.19.42A1.71,1.71,0,0,1,206.81,145.06Zm2.17-.25a1.38,1.38,0,0,0,.45-.93c0-.21,0-.63,0-1.24s0-1,0-1.23a1.39,1.39,0,0,0-1.44-1.29,1.39,1.39,0,0,0-1,.36,1.37,1.37,0,0,0-.44.93c0,.22,0,.62,0,1.23s0,1,0,1.24a1.33,1.33,0,0,0,.44.93,1.39,1.39,0,0,0,1,.36A1.42,1.42,0,0,0,209,144.81Z"/><path class="cls-8" d="M216.72,141.43l0,0a1.65,1.65,0,0,1,.85.71,2.32,2.32,0,0,1,.29,1.18,2.06,2.06,0,0,1-.53,1.5,1.88,1.88,0,0,1-1.44.55h-2a.1.1,0,0,1-.11-.11v-7.45a.1.1,0,0,1,.11-.11h1.93a2,2,0,0,1,1.43.52,1.94,1.94,0,0,1,.53,1.43,2,2,0,0,1-.29,1.08,1.62,1.62,0,0,1-.8.65S216.72,141.42,216.72,141.43Zm-2.56-3.36v3.16s0,0,0,0h1.67a1.65,1.65,0,0,0,1.2-.43,1.54,1.54,0,0,0,.44-1.16,1.52,1.52,0,0,0-1.64-1.65H214.2S214.16,138,214.16,138.07Zm3,6.53a1.75,1.75,0,0,0,.44-1.27,1.81,1.81,0,0,0-.45-1.29,1.6,1.6,0,0,0-1.22-.47H214.2s0,0,0,0V145s0,0,0,0h1.7A1.57,1.57,0,0,0,217.11,144.6Z"/><path class="cls-8" d="M222.48,139.9h.11a.1.1,0,0,1,.11.11v5.27a.1.1,0,0,1-.11.11h-.11a.1.1,0,0,1-.11-.11v-.53s0,0,0,0,0,0,0,0a1.35,1.35,0,0,1-.57.54,1.76,1.76,0,0,1-.81.19,1.6,1.6,0,0,1-1.19-.45,1.66,1.66,0,0,1-.44-1.25V140a.1.1,0,0,1,.11-.11h.11c.07,0,.1,0,.1.11v3.69a1.49,1.49,0,0,0,.37,1.08,1.28,1.28,0,0,0,1,.38,1.33,1.33,0,0,0,1-.41,1.56,1.56,0,0,0,.38-1.11V140A.1.1,0,0,1,222.48,139.9Z"/><path class="cls-8" d="M226.81,140a.1.1,0,0,1,.06.05.1.1,0,0,1,0,.09l0,.13c0,.08-.07.09-.14.06a1.13,1.13,0,0,0-.47-.09,1.18,1.18,0,0,0-1,.5,2,2,0,0,0-.37,1.2v3.36a.1.1,0,0,1-.11.11h-.11a.1.1,0,0,1-.11-.11V140a.1.1,0,0,1,.11-.11h.11a.1.1,0,0,1,.11.11v.78s0,0,0,0l0,0a1.74,1.74,0,0,1,.53-.7,1.29,1.29,0,0,1,.78-.24A1.15,1.15,0,0,1,226.81,140Z"/><path class="cls-8" d="M231,140.3a1.84,1.84,0,0,1,.44,1.28v3.7a.1.1,0,0,1-.11.11h-.11a.1.1,0,0,1-.11-.11v-3.66a1.52,1.52,0,0,0-.37-1.08,1.25,1.25,0,0,0-1-.41,1.28,1.28,0,0,0-1,.4,1.47,1.47,0,0,0-.4,1.06v3.69a.1.1,0,0,1-.11.11h-.11a.1.1,0,0,1-.11-.11V140a.1.1,0,0,1,.11-.11h.11a.1.1,0,0,1,.11.11v.58s0,0,0,0,0,0,0,0a1.41,1.41,0,0,1,.58-.58,1.67,1.67,0,0,1,.85-.2A1.49,1.49,0,0,1,231,140.3Z"/><path class="cls-8" d="M235.66,144.91a1.3,1.3,0,0,0,.5-.69.13.13,0,0,1,.13-.09h.09a.08.08,0,0,1,.08,0s0,.05,0,.09a1.68,1.68,0,0,1-.61.88,1.75,1.75,0,0,1-1.09.34,1.68,1.68,0,0,1-1.17-.42,1.71,1.71,0,0,1-.55-1.08c0-.27,0-.71,0-1.34s0-1,0-1.3a1.74,1.74,0,0,1,.55-1.1,1.71,1.71,0,0,1,1.18-.43,1.77,1.77,0,0,1,1.21.43,1.64,1.64,0,0,1,.54,1.12,11.74,11.74,0,0,1,0,1.25.1.1,0,0,1-.11.11h-3.07s0,0,0,0c0,.55,0,.92,0,1.12a1.33,1.33,0,0,0,.44.93,1.39,1.39,0,0,0,1,.36A1.43,1.43,0,0,0,235.66,144.91Zm-1.86-4.43a1.34,1.34,0,0,0-.44.92c0,.19,0,.51,0,1,0,0,0,0,0,0h2.8s0,0,0,0c0-.48,0-.8,0-1a1.42,1.42,0,0,0-.45-.93,1.4,1.4,0,0,0-1-.36A1.35,1.35,0,0,0,233.8,140.48Z"/><path class="cls-8" d="M239.87,140.2h-1.13s-.05,0-.05,0V144a1.18,1.18,0,0,0,.24.85,1.06,1.06,0,0,0,.77.23h.17a.1.1,0,0,1,.11.11v.09a.1.1,0,0,1-.11.11h-.2a1.44,1.44,0,0,1-1-.29,1.34,1.34,0,0,1-.34-1.07v-3.79s0,0,0,0h-.56a.1.1,0,0,1-.11-.11V140a.1.1,0,0,1,.11-.11h.56s0,0,0,0v-1.23a.1.1,0,0,1,.11-.11h.11a.1.1,0,0,1,.11.11v1.23s0,0,.05,0h1.13a.1.1,0,0,1,.11.11v.08A.1.1,0,0,1,239.87,140.2Z"/><path class="cls-8" d="M243.19,140.2h-1.13s-.05,0-.05,0V144a1.18,1.18,0,0,0,.24.85,1.06,1.06,0,0,0,.77.23h.17a.1.1,0,0,1,.11.11v.09a.1.1,0,0,1-.11.11H243a1.44,1.44,0,0,1-1-.29,1.34,1.34,0,0,1-.34-1.07v-3.79s0,0,0,0h-.56a.1.1,0,0,1-.11-.11V140a.1.1,0,0,1,.11-.11h.56s0,0,0,0v-1.23a.1.1,0,0,1,.11-.11h.11a.1.1,0,0,1,.11.11v1.23s0,0,.05,0h1.13a.1.1,0,0,1,.11.11v.08A.1.1,0,0,1,243.19,140.2Z"/><path class="cls-9" d="M15.3,19.63V23c0,4.06-2,6.38-5.87,6.38S3.57,27.05,3.57,23V9.81c0-4.05,2-6.37,5.86-6.37S15.3,5.76,15.3,9.81v2.47H11.58V9.56c0-1.81-.79-2.5-2-2.5s-2,.69-2,2.5V23.25c0,1.81.79,2.46,2,2.46s2-.65,2-2.46V19.63Z"/><path class="cls-9" d="M21.44,3.73V23.28c0,1.81.79,2.47,2,2.47s2-.66,2-2.47V3.73h3.72V23c0,4.06-2,6.37-5.86,6.37S17.51,27.09,17.51,23V3.73Z"/><path class="cls-9" d="M40.14,29.08A8.05,8.05,0,0,1,39.79,26V22c0-2.35-.79-3.22-2.58-3.22H35.85V29.08H31.92V3.73h5.94c4.07,0,5.82,1.92,5.82,5.83v2c0,2.61-.82,4.27-2.57,5.11v.07c2,.83,2.61,2.72,2.61,5.36V26a7.45,7.45,0,0,0,.43,3.08ZM35.85,7.35v7.79h1.54c1.47,0,2.36-.66,2.36-2.68V10c0-1.81-.61-2.61-2-2.61Z"/><path class="cls-9" d="M46.29,3.73h3.94V29.08H46.29Z"/><path class="cls-9" d="M52.76,9.81c0-4.05,2.11-6.37,6-6.37s6,2.32,6,6.37V23c0,4.06-2.11,6.38-6,6.38s-6-2.32-6-6.38ZM56.7,23.25c0,1.81.78,2.5,2,2.5s2-.69,2-2.5V9.56c0-1.81-.78-2.5-2-2.5s-2,.69-2,2.5Z"/><path class="cls-9" d="M72.53,3.44c3.83,0,5.8,2.32,5.8,6.37v.8H74.61v-1c0-1.81-.72-2.5-2-2.5s-2,.69-2,2.5.78,3.22,3.36,5.5c3.28,2.94,4.32,5,4.32,7.93,0,4.06-2,6.38-5.86,6.38S66.64,27.05,66.64,23V21.44h3.71v1.81c0,1.81.79,2.46,2,2.46s2-.65,2-2.46-.79-3.23-3.36-5.51c-3.29-2.93-4.33-5-4.33-7.93C66.74,5.76,68.71,3.44,72.53,3.44Z"/><path class="cls-9" d="M80.61,3.73h3.94V29.08H80.61Z"/><path class="cls-9" d="M86.26,3.73H98.42V7.35H94.31V29.08H90.37V7.35H86.26Z"/><path class="cls-9" d="M103.82,20.68l-5-16.95H103l3,11.55H106l3-11.55h3.76l-5,17v8.4h-3.93Z"/><path class="cls-9" d="M183.05,100.27a.57.57,0,0,1-.17-.42.58.58,0,0,1,.17-.43.6.6,0,0,1,.43-.17.58.58,0,0,1,.43.17.57.57,0,0,1,.16.43.57.57,0,0,1-.16.42.58.58,0,0,1-.43.17A.6.6,0,0,1,183.05,100.27Zm0,5.56v-4.59c0-.06,0-.09.1-.09h.71a.08.08,0,0,1,.09.09v4.59a.08.08,0,0,1-.09.09h-.71C183.06,105.92,183,105.89,183,105.83Z"/><path class="cls-9" d="M188.21,101.51a1.62,1.62,0,0,1,.38,1.16v3.16a.08.08,0,0,1-.09.09h-.71c-.07,0-.1,0-.1-.09v-3a1,1,0,0,0-.22-.69.75.75,0,0,0-.59-.25.81.81,0,0,0-.62.26,1,1,0,0,0-.23.69v3a.08.08,0,0,1-.09.09h-.71c-.07,0-.1,0-.1-.09v-4.59c0-.06,0-.09.1-.09h.71a.08.08,0,0,1,.09.09v.29a.05.05,0,0,0,0,0l0,0a1.3,1.3,0,0,1,1.07-.46A1.34,1.34,0,0,1,188.21,101.51Z"/><path class="cls-9" d="M194.46,101.51a1.46,1.46,0,0,1,.47,1.14v3.18a.08.08,0,0,1-.09.09h-.71c-.06,0-.1,0-.1-.09v-.27s0,0,0,0a1.59,1.59,0,0,1-1.19.46,1.63,1.63,0,0,1-1-.33,1.27,1.27,0,0,1-.43-1.08,1.43,1.43,0,0,1,.5-1.17,2.14,2.14,0,0,1,1.36-.4h.8a0,0,0,0,0,0,0v-.27a.9.9,0,0,0-.21-.63.75.75,0,0,0-.6-.24.79.79,0,0,0-.52.16.61.61,0,0,0-.25.41.09.09,0,0,1-.1.09l-.76-.05-.07,0a.07.07,0,0,1,0-.06,1.35,1.35,0,0,1,.53-.95,1.9,1.9,0,0,1,1.18-.36A1.78,1.78,0,0,1,194.46,101.51Zm-.73,3.48a.74.74,0,0,0,.3-.62v-.61a0,0,0,0,0,0,0h-.73a1.25,1.25,0,0,0-.74.2.7.7,0,0,0-.28.6.65.65,0,0,0,.21.53.88.88,0,0,0,.55.17A1.12,1.12,0,0,0,193.73,105Z"/><path class="cls-9" d="M196,105.83V99.45a.08.08,0,0,1,.09-.09h.71a.08.08,0,0,1,.09.09v6.38a.08.08,0,0,1-.09.09h-.71A.08.08,0,0,1,196,105.83Z"/><path class="cls-9" d="M198,105.83V99.45c0-.06,0-.09.1-.09h.71a.08.08,0,0,1,.09.09v6.38a.08.08,0,0,1-.09.09h-.71C198,105.92,198,105.89,198,105.83Z"/><path class="cls-9" d="M202,100.27a.54.54,0,0,1-.17-.42.54.54,0,0,1,.17-.43.58.58,0,0,1,.43-.17.56.56,0,0,1,.42.17.58.58,0,0,1,.17.43.57.57,0,0,1-.17.42.56.56,0,0,1-.42.17A.58.58,0,0,1,202,100.27Zm0,5.56v-4.59a.08.08,0,0,1,.09-.09h.71c.07,0,.1,0,.1.09v4.59c0,.06,0,.09-.1.09h-.71A.08.08,0,0,1,202,105.83Z"/><path class="cls-9" d="M206.07,101.84h-.83a0,0,0,0,0,0,0v2.55a.71.71,0,0,0,.16.54.62.62,0,0,0,.48.16H206c.06,0,.09,0,.09.1v.59a.08.08,0,0,1-.09.09h-.37a1.61,1.61,0,0,1-1-.25,1.08,1.08,0,0,1-.33-.92v-2.87a0,0,0,0,0,0,0h-.46a.08.08,0,0,1-.09-.09v-.51a.08.08,0,0,1,.09-.09h.46s0,0,0,0V100a.08.08,0,0,1,.09-.09h.69a.08.08,0,0,1,.09.09v1.08s0,0,0,0h.83c.07,0,.1,0,.1.09v.51C206.17,101.81,206.14,101.84,206.07,101.84Z"/><path class="cls-9" d="M207.36,105.62a1.1,1.1,0,0,1-.46-.92v-.09a.08.08,0,0,1,.09-.09h.68c.06,0,.09,0,.09.07v.08a.54.54,0,0,0,.24.44,1,1,0,0,0,.61.18.94.94,0,0,0,.57-.17.56.56,0,0,0,.21-.44.49.49,0,0,0-.12-.34,1,1,0,0,0-.31-.21,4.71,4.71,0,0,0-.54-.2,6.47,6.47,0,0,1-.75-.3,1.55,1.55,0,0,1-.52-.44,1.19,1.19,0,0,1-.21-.73,1.22,1.22,0,0,1,.44-1,1.78,1.78,0,0,1,1.19-.37,1.84,1.84,0,0,1,1.21.38,1.2,1.2,0,0,1,.46,1v0c0,.06,0,.09-.1.09h-.65c-.06,0-.1,0-.1-.06v-.07a.55.55,0,0,0-.22-.45.92.92,0,0,0-.59-.18.89.89,0,0,0-.56.17.53.53,0,0,0-.22.43.46.46,0,0,0,.12.33,1.05,1.05,0,0,0,.31.21c.12.06.3.12.54.21a5.55,5.55,0,0,1,.77.31,1.44,1.44,0,0,1,.53.43,1.09,1.09,0,0,1,.22.72,1.18,1.18,0,0,1-.46,1,1.86,1.86,0,0,1-1.23.37A2,2,0,0,1,207.36,105.62Z"/><path class="cls-9" d="M215.94,101.51a1.49,1.49,0,0,1,.47,1.14v3.18a.08.08,0,0,1-.09.09h-.72a.08.08,0,0,1-.09-.09v-.27s0,0,0,0a1.57,1.57,0,0,1-1.19.46,1.65,1.65,0,0,1-1-.33,1.29,1.29,0,0,1-.42-1.08,1.42,1.42,0,0,1,.49-1.17,2.18,2.18,0,0,1,1.36-.4h.8s0,0,0,0v-.27a.9.9,0,0,0-.21-.63.78.78,0,0,0-.61-.24.81.81,0,0,0-.52.16.65.65,0,0,0-.25.41c0,.06,0,.09-.1.09l-.76-.05-.07,0a.07.07,0,0,1,0-.06,1.29,1.29,0,0,1,.53-.95,1.85,1.85,0,0,1,1.17-.36A1.81,1.81,0,0,1,215.94,101.51ZM215.2,105a.72.72,0,0,0,.31-.62v-.61s0,0,0,0h-.72a1.3,1.3,0,0,0-.75.2.72.72,0,0,0-.27.6.65.65,0,0,0,.21.53.86.86,0,0,0,.55.17A1.11,1.11,0,0,0,215.2,105Z"/><path class="cls-9" d="M217.75,105.62a1.11,1.11,0,0,1-.47-.92v-.09a.08.08,0,0,1,.09-.09h.68c.06,0,.09,0,.09.07v.08a.54.54,0,0,0,.24.44,1,1,0,0,0,.61.18.9.9,0,0,0,.57-.17.57.57,0,0,0,.22-.44.49.49,0,0,0-.13-.34.85.85,0,0,0-.31-.21,4.71,4.71,0,0,0-.54-.2,6.25,6.25,0,0,1-.74-.3,1.49,1.49,0,0,1-.53-.44,1.19,1.19,0,0,1-.21-.73,1.22,1.22,0,0,1,.44-1,1.8,1.8,0,0,1,1.19-.37,1.83,1.83,0,0,1,1.21.38,1.2,1.2,0,0,1,.46,1v0a.08.08,0,0,1-.09.09h-.66q-.09,0-.09-.06v-.07a.56.56,0,0,0-.23-.45.92.92,0,0,0-.59-.18.89.89,0,0,0-.56.17.53.53,0,0,0-.22.43.46.46,0,0,0,.12.33,1.2,1.2,0,0,0,.31.21c.12.06.3.12.54.21a5.55,5.55,0,0,1,.77.31,1.44,1.44,0,0,1,.53.43,1.09,1.09,0,0,1,.23.72,1.21,1.21,0,0,1-.46,1A1.91,1.91,0,0,1,219,106,2,2,0,0,1,217.75,105.62Z"/><path class="cls-9" d="M225.19,103.53a5.54,5.54,0,0,1-.1,1.06c-.18.94-.69,1.41-1.52,1.41a1.15,1.15,0,0,1-1-.48s0,0,0,0,0,0,0,0v2.09a.08.08,0,0,1-.09.09h-.71c-.07,0-.1,0-.1-.09v-6.38c0-.06,0-.09.1-.09h.71a.08.08,0,0,1,.09.09v.31s0,0,0,0,0,0,0,0a1.22,1.22,0,0,1,1.05-.5,1.32,1.32,0,0,1,.95.35,1.92,1.92,0,0,1,.51,1A4.58,4.58,0,0,1,225.19,103.53Zm-.91,0a3.49,3.49,0,0,0-.12-1,.77.77,0,0,0-.78-.66.75.75,0,0,0-.75.65,3.57,3.57,0,0,0-.12,1,3.24,3.24,0,0,0,.13,1,.73.73,0,0,0,.73.63.81.81,0,0,0,.48-.16,1,1,0,0,0,.29-.45A3.38,3.38,0,0,0,224.28,103.54Z"/><path class="cls-9" d="M228.49,105.06a.93.93,0,0,0,.34-.44.08.08,0,0,1,.12-.06l.57.16a.08.08,0,0,1,.06.12,1.52,1.52,0,0,1-.59.85,1.89,1.89,0,0,1-1.09.31,1.78,1.78,0,0,1-1.14-.35,1.51,1.51,0,0,1-.55-1,4.92,4.92,0,0,1-.12-1.16,8.83,8.83,0,0,1,0-1,1.59,1.59,0,0,1,.55-1,1.8,1.8,0,0,1,1.19-.4,1.74,1.74,0,0,1,1.26.44,1.76,1.76,0,0,1,.52,1.21c0,.29,0,.65,0,1.06,0,.07,0,.1-.1.1H227s0,0,0,0a4,4,0,0,0,0,.51.84.84,0,0,0,.3.57.87.87,0,0,0,.62.22A1,1,0,0,0,228.49,105.06Zm-1.19-3a.94.94,0,0,0-.28.54c0,.2,0,.37,0,.52s0,0,0,0h1.73a0,0,0,0,0,0,0c0-.23,0-.39,0-.48a.91.91,0,0,0-.28-.57.84.84,0,0,0-.6-.22A.8.8,0,0,0,227.3,102.06Z"/><path class="cls-9" d="M231.19,105.62a1.58,1.58,0,0,1-.56-1,6.24,6.24,0,0,1-.07-1.06,6.89,6.89,0,0,1,.07-1,1.53,1.53,0,0,1,.57-1,1.77,1.77,0,0,1,1.18-.39,1.9,1.9,0,0,1,1.17.37,1.42,1.42,0,0,1,.57.94l0,.22c0,.06,0,.09-.09.11l-.71.05h0a.08.08,0,0,1-.08-.06v0l0-.11a.79.79,0,0,0-.28-.5.9.9,0,0,0-.59-.2.82.82,0,0,0-.59.22.9.9,0,0,0-.27.57,7.8,7.8,0,0,0,0,.89,5.67,5.67,0,0,0,.06.91.9.9,0,0,0,.27.57.81.81,0,0,0,.58.21.92.92,0,0,0,.6-.2.74.74,0,0,0,.27-.5v-.1c0-.06,0-.09.1-.08l.71,0c.06,0,.09,0,.09.11l0,.16a1.4,1.4,0,0,1-.55,1,1.88,1.88,0,0,1-1.19.38A1.84,1.84,0,0,1,231.19,105.62Z"/><path class="cls-9" d="M237.08,101.84h-.84s0,0,0,0v2.55a.76.76,0,0,0,.15.54.62.62,0,0,0,.48.16H237a.09.09,0,0,1,.1.1v.59c0,.06,0,.09-.1.09h-.36a1.61,1.61,0,0,1-1-.25,1.05,1.05,0,0,1-.34-.92v-2.87s0,0,0,0h-.46c-.07,0-.1,0-.1-.09v-.51c0-.06,0-.09.1-.09h.46s0,0,0,0V100c0-.06,0-.09.1-.09h.68c.06,0,.1,0,.1.09v1.08s0,0,0,0h.84a.08.08,0,0,1,.09.09v.51A.08.08,0,0,1,237.08,101.84Z"/><path class="cls-9" d="M238.37,105.62a1.11,1.11,0,0,1-.47-.92v-.09c0-.06,0-.09.1-.09h.67c.07,0,.1,0,.1.07v.08a.54.54,0,0,0,.24.44,1,1,0,0,0,.6.18.9.9,0,0,0,.57-.17.54.54,0,0,0,.22-.44.45.45,0,0,0-.13-.34.85.85,0,0,0-.31-.21,4.71,4.71,0,0,0-.54-.2,6.25,6.25,0,0,1-.74-.3,1.38,1.38,0,0,1-.52-.44,1.13,1.13,0,0,1-.22-.73,1.2,1.2,0,0,1,.45-1,1.76,1.76,0,0,1,1.18-.37,1.87,1.87,0,0,1,1.22.38,1.22,1.22,0,0,1,.45,1v0a.08.08,0,0,1-.09.09h-.66q-.09,0-.09-.06v-.07a.56.56,0,0,0-.23-.45.9.9,0,0,0-.59-.18.89.89,0,0,0-.56.17.55.55,0,0,0-.22.43.43.43,0,0,0,.13.33,1.14,1.14,0,0,0,.3.21c.12.06.3.12.54.21a5.55,5.55,0,0,1,.77.31,1.37,1.37,0,0,1,.53.43,1.09,1.09,0,0,1,.23.72,1.18,1.18,0,0,1-.46,1,1.91,1.91,0,0,1-1.24.37A2,2,0,0,1,238.37,105.62Z"/><path class="cls-9" d="M242.07,106.7a.06.06,0,0,1,0-.07l.32-2.09c0-.05,0-.08.09-.08h.63c.07,0,.09,0,.07.1l-.49,2.08c0,.06,0,.09-.11.09h-.43Z"/><path class="cls-9" d="M156.77,116.24v-6.38c0-.06,0-.09.1-.09h.71a.08.08,0,0,1,.09.09v6.38a.08.08,0,0,1-.09.09h-.71C156.81,116.33,156.77,116.3,156.77,116.24Z"/><path class="cls-9" d="M162.81,112.25H162s0,0,0,0v2.55a.71.71,0,0,0,.16.54.62.62,0,0,0,.48.16h.18c.06,0,.09,0,.09.1v.59a.08.08,0,0,1-.09.09h-.37a1.61,1.61,0,0,1-1-.25,1.08,1.08,0,0,1-.33-.92v-2.87s0,0,0,0h-.46a.08.08,0,0,1-.09-.09v-.51a.08.08,0,0,1,.09-.09H161s0,0,0,0v-1.08a.08.08,0,0,1,.09-.09h.69a.08.08,0,0,1,.09.09v1.08s0,0,0,0h.83c.07,0,.1,0,.1.09v.51C162.91,112.22,162.88,112.25,162.81,112.25Z"/><path class="cls-9" d="M166.89,111.91a1.67,1.67,0,0,1,.39,1.17v3.16c0,.06,0,.09-.1.09h-.71a.08.08,0,0,1-.09-.09v-3a1.06,1.06,0,0,0-.22-.69.76.76,0,0,0-.6-.25.77.77,0,0,0-.61.26,1,1,0,0,0-.23.69v3c0,.06,0,.09-.1.09h-.71a.08.08,0,0,1-.09-.09v-6.38a.08.08,0,0,1,.09-.09h.71c.07,0,.1,0,.1.09v2.08s0,0,0,0,0,0,0,0a1.31,1.31,0,0,1,1.07-.46A1.36,1.36,0,0,1,166.89,111.91Z"/><path class="cls-9" d="M168.47,110.68a.58.58,0,0,1-.17-.43.57.57,0,0,1,.17-.42.63.63,0,0,1,.86,0,.57.57,0,0,1,.16.42.57.57,0,0,1-.16.43.63.63,0,0,1-.86,0Zm0,5.56v-4.59a.08.08,0,0,1,.09-.09h.72a.08.08,0,0,1,.09.09v4.59a.08.08,0,0,1-.09.09h-.72A.08.08,0,0,1,168.45,116.24Z"/><path class="cls-9" d="M173.63,111.91a1.71,1.71,0,0,1,.38,1.17v3.16a.08.08,0,0,1-.09.09h-.72a.08.08,0,0,1-.09-.09v-3a1,1,0,0,0-.22-.69.76.76,0,0,0-.6-.25.79.79,0,0,0-.61.26,1,1,0,0,0-.23.69v3a.08.08,0,0,1-.09.09h-.72a.08.08,0,0,1-.09-.09v-4.59a.08.08,0,0,1,.09-.09h.72a.08.08,0,0,1,.09.09v.29a0,0,0,0,0,0,0s0,0,0,0a1.3,1.3,0,0,1,1.07-.46A1.37,1.37,0,0,1,173.63,111.91Z"/><path class="cls-9" d="M175.11,116.24v-6.38a.08.08,0,0,1,.09-.09h.72a.08.08,0,0,1,.09.09v3.58s0,0,0,0,0,0,0,0l1.46-1.85a.17.17,0,0,1,.12,0h.79s.06,0,.07,0,0,0,0,.08l-1.09,1.42s0,0,0,0l1.27,3.08v0s0,.07-.08.07h-.75a.09.09,0,0,1-.1-.07l-.94-2.46s0,0-.05,0l-.72.9,0,0v1.5a.08.08,0,0,1-.09.09h-.72A.08.08,0,0,1,175.11,116.24Z"/><path class="cls-9" d="M179.38,117.11a.07.07,0,0,1,0-.08l.32-2.08s0-.08.09-.08h.63c.07,0,.09,0,.07.1l-.49,2.08c0,.06,0,.09-.11.09h-.43A.07.07,0,0,1,179.38,117.11Z"/><path class="cls-9" d="M183.58,110.68a.54.54,0,0,1-.17-.43.54.54,0,0,1,.17-.42.58.58,0,0,1,.43-.17.6.6,0,0,1,.43.17.61.61,0,0,1,.16.42.61.61,0,0,1-.16.43.6.6,0,0,1-.43.17A.58.58,0,0,1,183.58,110.68Zm0,5.56v-4.59a.08.08,0,0,1,.09-.09h.71c.07,0,.1,0,.1.09v4.59c0,.06,0,.09-.1.09h-.71A.08.08,0,0,1,183.56,116.24Z"/><path class="cls-9" d="M185.94,116a1.13,1.13,0,0,1-.46-.92V115a.08.08,0,0,1,.09-.09h.68c.06,0,.09,0,.09.07v.07a.54.54,0,0,0,.24.45,1,1,0,0,0,.61.18.86.86,0,0,0,.57-.18.54.54,0,0,0,.22-.44.47.47,0,0,0-.13-.33,1,1,0,0,0-.31-.21c-.12-.06-.3-.12-.54-.21a5.63,5.63,0,0,1-.75-.29,1.67,1.67,0,0,1-.52-.44,1.35,1.35,0,0,1,.23-1.72,1.8,1.8,0,0,1,1.19-.37,1.83,1.83,0,0,1,1.21.38,1.19,1.19,0,0,1,.46,1v0a.08.08,0,0,1-.09.09h-.66q-.09,0-.09-.06v-.07a.56.56,0,0,0-.23-.45.92.92,0,0,0-.59-.18.89.89,0,0,0-.56.17.53.53,0,0,0-.22.43.46.46,0,0,0,.12.33,1.2,1.2,0,0,0,.31.21l.54.2a7.16,7.16,0,0,1,.77.31,1.58,1.58,0,0,1,.53.44,1.09,1.09,0,0,1,.23.72,1.21,1.21,0,0,1-.46,1,1.91,1.91,0,0,1-1.24.37A2,2,0,0,1,185.94,116Z"/><path class="cls-9" d="M191.92,116a1.11,1.11,0,0,1-.47-.92V115c0-.06,0-.09.1-.09h.67c.07,0,.1,0,.1.07v.07a.54.54,0,0,0,.24.45,1,1,0,0,0,.6.18.85.85,0,0,0,.57-.18.52.52,0,0,0,.22-.44.43.43,0,0,0-.13-.33.85.85,0,0,0-.31-.21c-.12-.06-.3-.12-.54-.21a5,5,0,0,1-.74-.29,1.48,1.48,0,0,1-.52-.44,1.15,1.15,0,0,1-.22-.73,1.2,1.2,0,0,1,.45-1,1.76,1.76,0,0,1,1.18-.37,1.87,1.87,0,0,1,1.22.38,1.21,1.21,0,0,1,.45,1v0a.08.08,0,0,1-.09.09H194q-.09,0-.09-.06v-.07a.56.56,0,0,0-.23-.45.9.9,0,0,0-.59-.18.89.89,0,0,0-.56.17.55.55,0,0,0-.22.43.47.47,0,0,0,.13.33,1.14,1.14,0,0,0,.3.21l.54.2a7.16,7.16,0,0,1,.77.31,1.49,1.49,0,0,1,.53.44,1.09,1.09,0,0,1,.23.72,1.18,1.18,0,0,1-.46,1,1.91,1.91,0,0,1-1.24.37A2,2,0,0,1,191.92,116Z"/><path class="cls-9" d="M197.75,112.25h-.84a0,0,0,0,0,0,0v2.55a.76.76,0,0,0,.16.54.62.62,0,0,0,.48.16h.18c.06,0,.09,0,.09.1v.59a.08.08,0,0,1-.09.09h-.37a1.59,1.59,0,0,1-1-.25,1.05,1.05,0,0,1-.34-.92v-2.87s0,0,0,0h-.46c-.07,0-.1,0-.1-.09v-.51c0-.06,0-.09.1-.09H196s0,0,0,0v-1.08c0-.06,0-.09.1-.09h.68a.08.08,0,0,1,.09.09v1.08a0,0,0,0,0,0,0h.84a.08.08,0,0,1,.09.09v.51A.08.08,0,0,1,197.75,112.25Z"/><path class="cls-9" d="M198.83,110.68a.57.57,0,0,1-.16-.43.57.57,0,0,1,.16-.42.62.62,0,0,1,.44-.17.58.58,0,0,1,.59.59.58.58,0,0,1-.17.43.57.57,0,0,1-.42.17A.62.62,0,0,1,198.83,110.68Zm0,5.56v-4.59a.08.08,0,0,1,.09-.09h.71c.07,0,.1,0,.1.09v4.59c0,.06,0,.09-.1.09h-.71A.08.08,0,0,1,198.82,116.24Z"/><path class="cls-9" d="M200.9,116.24v-6.38a.08.08,0,0,1,.09-.09h.71c.07,0,.1,0,.1.09v6.38c0,.06,0,.09-.1.09H201A.08.08,0,0,1,200.9,116.24Z"/><path class="cls-9" d="M202.91,116.24v-6.38c0-.06,0-.09.1-.09h.71a.08.08,0,0,1,.09.09v6.38a.08.08,0,0,1-.09.09H203C203,116.33,202.91,116.3,202.91,116.24Z"/><path class="cls-9" d="M208.84,112.25H208s0,0,0,0v2.55a.76.76,0,0,0,.15.54.66.66,0,0,0,.49.16h.17c.07,0,.1,0,.1.1v.59c0,.06,0,.09-.1.09h-.36a1.61,1.61,0,0,1-1-.25,1.08,1.08,0,0,1-.33-.92v-2.87a0,0,0,0,0,0,0h-.46a.08.08,0,0,1-.09-.09v-.51a.08.08,0,0,1,.09-.09h.46a0,0,0,0,0,0,0v-1.08a.08.08,0,0,1,.09-.09h.68c.07,0,.1,0,.1.09v1.08s0,0,0,0h.83c.06,0,.1,0,.1.09v.51C208.94,112.22,208.9,112.25,208.84,112.25Z"/><path class="cls-9" d="M212.92,111.91a1.67,1.67,0,0,1,.38,1.17v3.16a.08.08,0,0,1-.09.09h-.71c-.06,0-.1,0-.1-.09v-3a1,1,0,0,0-.22-.69.72.72,0,0,0-.59-.25.81.81,0,0,0-.62.26,1,1,0,0,0-.23.69v3a.08.08,0,0,1-.09.09h-.71c-.06,0-.1,0-.1-.09v-6.38c0-.06,0-.09.1-.09h.71a.08.08,0,0,1,.09.09v2.08s0,0,0,0,0,0,0,0a1.3,1.3,0,0,1,1.07-.46A1.37,1.37,0,0,1,212.92,111.91Z"/><path class="cls-9" d="M216.71,115.46a1,1,0,0,0,.35-.43c0-.06.05-.08.11-.06l.57.16a.09.09,0,0,1,.07.12,1.59,1.59,0,0,1-.6.85,1.87,1.87,0,0,1-1.09.31,1.82,1.82,0,0,1-1.14-.35,1.51,1.51,0,0,1-.55-1,5,5,0,0,1-.12-1.16,6.72,6.72,0,0,1,.05-1,1.54,1.54,0,0,1,.54-1.05,2,2,0,0,1,2.46,0,1.8,1.8,0,0,1,.51,1.2c0,.3,0,.66,0,1.07,0,.07,0,.1-.09.1h-2.58s0,0,0,0a4,4,0,0,0,0,.52.84.84,0,0,0,.3.57,1,1,0,0,0,1.17,0Zm-1.19-3a.85.85,0,0,0-.27.54,3.46,3.46,0,0,0,0,.52s0,0,0,0H217s0,0,0,0c0-.23,0-.39,0-.48a.87.87,0,0,0-.28-.57.84.84,0,0,0-.6-.22A.8.8,0,0,0,215.52,112.47Z"/><path class="cls-9" d="M221.06,116a1.11,1.11,0,0,1-.47-.92V115c0-.06,0-.09.1-.09h.67c.06,0,.09,0,.09.07v.07a.54.54,0,0,0,.24.45,1,1,0,0,0,.61.18.85.85,0,0,0,.57-.18.54.54,0,0,0,.22-.44.47.47,0,0,0-.13-.33.85.85,0,0,0-.31-.21c-.12-.06-.3-.12-.54-.21a5,5,0,0,1-.74-.29,1.48,1.48,0,0,1-.52-.44,1.15,1.15,0,0,1-.22-.73,1.22,1.22,0,0,1,.44-1,1.8,1.8,0,0,1,1.19-.37,1.87,1.87,0,0,1,1.22.38,1.21,1.21,0,0,1,.45,1v0a.08.08,0,0,1-.09.09h-.66q-.09,0-.09-.06v-.07a.56.56,0,0,0-.23-.45.92.92,0,0,0-.59-.18.89.89,0,0,0-.56.17.53.53,0,0,0-.22.43.46.46,0,0,0,.12.33,1.2,1.2,0,0,0,.31.21l.54.2a7.16,7.16,0,0,1,.77.31,1.49,1.49,0,0,1,.53.44,1.09,1.09,0,0,1,.23.72,1.21,1.21,0,0,1-.46,1,1.91,1.91,0,0,1-1.24.37A2,2,0,0,1,221.06,116Z"/><path class="cls-9" d="M227.17,115.46a1,1,0,0,0,.34-.43c0-.06.06-.08.11-.06l.58.16a.08.08,0,0,1,.06.12,1.52,1.52,0,0,1-.59.85,1.9,1.9,0,0,1-1.1.31,1.77,1.77,0,0,1-1.13-.35,1.47,1.47,0,0,1-.55-1,5,5,0,0,1-.13-1.16,8.43,8.43,0,0,1,.05-1,1.59,1.59,0,0,1,.55-1.05,2,2,0,0,1,2.45,0,1.85,1.85,0,0,1,.52,1.2c0,.3,0,.66,0,1.07a.09.09,0,0,1-.1.1h-2.58s0,0,0,0c0,.25,0,.42,0,.52a.84.84,0,0,0,.3.57,1,1,0,0,0,1.18,0Zm-1.2-3a.85.85,0,0,0-.27.54c0,.2,0,.37,0,.52s0,0,0,0h1.73s0,0,0,0c0-.23,0-.39,0-.48a.91.91,0,0,0-.28-.57.84.84,0,0,0-.6-.22A.83.83,0,0,0,226,112.47Z"/><path class="cls-9" d="M229.87,116a1.63,1.63,0,0,1-.57-1,7.69,7.69,0,0,1-.06-1.06,8.57,8.57,0,0,1,.06-1,1.56,1.56,0,0,1,.58-1,1.77,1.77,0,0,1,1.18-.39,1.84,1.84,0,0,1,1.17.37,1.42,1.42,0,0,1,.57.94l0,.22a.09.09,0,0,1-.09.1l-.71.06h0s-.06,0-.07-.07v0l0-.11a.79.79,0,0,0-.28-.5.9.9,0,0,0-.59-.2.82.82,0,0,0-.59.22.9.9,0,0,0-.27.57,6,6,0,0,0-.05.89,7.39,7.39,0,0,0,.05.91,1,1,0,0,0,.28.57.81.81,0,0,0,.58.21.92.92,0,0,0,.6-.2.76.76,0,0,0,.27-.5v-.1c0-.06,0-.09.1-.08l.71,0c.06,0,.09,0,.09.11l0,.16a1.4,1.4,0,0,1-.55,1,1.88,1.88,0,0,1-1.19.38A1.84,1.84,0,0,1,229.87,116Z"/><path class="cls-9" d="M236.18,111.61a.11.11,0,0,1,0,.13l-.14.71c0,.06,0,.07-.11.06a.73.73,0,0,0-.32-.06h-.15a.82.82,0,0,0-.6.32,1.08,1.08,0,0,0-.24.72v2.74a.08.08,0,0,1-.09.09h-.72a.08.08,0,0,1-.09-.09v-4.59a.08.08,0,0,1,.09-.09h.72a.08.08,0,0,1,.09.09v.52s0,0,0,0h0a1.11,1.11,0,0,1,1.48-.58Z"/><path class="cls-9" d="M239.16,115.46a1,1,0,0,0,.35-.43c0-.06.05-.08.11-.06l.57.16c.06,0,.09.06.07.12a1.59,1.59,0,0,1-.6.85,1.87,1.87,0,0,1-1.09.31,1.82,1.82,0,0,1-1.14-.35,1.51,1.51,0,0,1-.55-1,5,5,0,0,1-.12-1.16,8.43,8.43,0,0,1,.05-1,1.55,1.55,0,0,1,.55-1.05,1.71,1.71,0,0,1,1.18-.4,1.75,1.75,0,0,1,1.27.44,1.8,1.8,0,0,1,.51,1.2c0,.3,0,.66,0,1.07,0,.07,0,.1-.09.1h-2.58s0,0,0,0c0,.25,0,.42,0,.52a.84.84,0,0,0,.3.57.91.91,0,0,0,.63.22A.89.89,0,0,0,239.16,115.46Zm-1.19-3a.85.85,0,0,0-.27.54,3.46,3.46,0,0,0,0,.52s0,0,0,0h1.72s0,0,0,0a3.42,3.42,0,0,0,0-.48.87.87,0,0,0-.28-.57.82.82,0,0,0-.6-.22A.8.8,0,0,0,238,112.47Z"/><path class="cls-9" d="M243.3,112.25h-.83s0,0,0,0v2.55a.71.71,0,0,0,.16.54.62.62,0,0,0,.48.16h.18c.06,0,.09,0,.09.1v.59a.08.08,0,0,1-.09.09h-.37a1.61,1.61,0,0,1-1-.25,1.08,1.08,0,0,1-.33-.92v-2.87s0,0,0,0h-.46a.08.08,0,0,1-.09-.09v-.51a.08.08,0,0,1,.09-.09h.46s0,0,0,0v-1.08a.08.08,0,0,1,.09-.09h.69a.08.08,0,0,1,.09.09v1.08s0,0,0,0h.83c.07,0,.1,0,.1.09v.51C243.4,112.22,243.37,112.25,243.3,112.25Z"/><path class="cls-9" d="M156.85,126.44a1.55,1.55,0,0,1-.58-1,6.5,6.5,0,0,1-.09-1.06,6.6,6.6,0,0,1,.08-1,1.6,1.6,0,0,1,.58-1,1.84,1.84,0,0,1,1.19-.38,1.81,1.81,0,0,1,1.17.38,1.7,1.7,0,0,1,.58,1,7.9,7.9,0,0,1,.08,1,8.06,8.06,0,0,1-.08,1.07,1.64,1.64,0,0,1-.58,1,1.81,1.81,0,0,1-1.17.38A1.84,1.84,0,0,1,156.85,126.44Zm1.75-.62a.87.87,0,0,0,.29-.57,6,6,0,0,0,.06-.9,8.37,8.37,0,0,0,0-.89.87.87,0,0,0-.29-.57.83.83,0,0,0-.59-.22.81.81,0,0,0-.58.22.93.93,0,0,0-.3.57,8,8,0,0,0,0,1.79.93.93,0,0,0,.3.57.82.82,0,0,0,.59.22A.77.77,0,0,0,158.6,125.82Z"/><path class="cls-9" d="M162.22,121.12a1,1,0,0,0-.16.65v.16a0,0,0,0,0,0,0h.82a.08.08,0,0,1,.09.09v.56a.08.08,0,0,1-.09.09h-.82a0,0,0,0,0,0,0v3.9a.08.08,0,0,1-.09.09h-.71c-.07,0-.1,0-.1-.09v-3.9s0,0,0,0h-.49c-.06,0-.1,0-.1-.09v-.56c0-.06,0-.09.1-.09h.49s0,0,0,0v-.21a2.38,2.38,0,0,1,.15-.93.91.91,0,0,1,.49-.49,2.23,2.23,0,0,1,.91-.15h.22a.08.08,0,0,1,.09.09v.59c0,.07,0,.1-.09.1h-.16A.64.64,0,0,0,162.22,121.12Z"/><path class="cls-9" d="M168.42,122h.71c.07,0,.1,0,.1.09v4.49c0,1.39-.75,2.09-2.23,2.09h-.3c-.07,0-.1,0-.1-.11l0-.63a.09.09,0,0,1,0-.07.08.08,0,0,1,.07,0,1.76,1.76,0,0,0,1.24-.27,1.3,1.3,0,0,0,.37-1.05v-.18s0,0,0,0h0a1.23,1.23,0,0,1-1,.45,1.52,1.52,0,0,1-1-.36,1.56,1.56,0,0,1-.51-1,5.93,5.93,0,0,1-.06-1,6.37,6.37,0,0,1,.07-1.09,1.66,1.66,0,0,1,.48-1,1.48,1.48,0,0,1,1-.37,1.34,1.34,0,0,1,1.06.44s0,0,0,0,0,0,0,0v-.25A.08.08,0,0,1,168.42,122Zm-.09,2.37c0-.35,0-.65,0-.89a.87.87,0,0,0-.26-.56.85.85,0,0,0-1.14,0,.89.89,0,0,0-.28.56,5.71,5.71,0,0,0-.05.89,7.31,7.31,0,0,0,0,.86,1,1,0,0,0,.28.57.84.84,0,0,0,.58.21.81.81,0,0,0,.58-.21.92.92,0,0,0,.26-.56C168.32,124.89,168.33,124.6,168.33,124.34Z"/><path class="cls-9" d="M172.74,122a.12.12,0,0,1,0,.13l-.14.71c0,.06,0,.07-.11.06a.73.73,0,0,0-.32-.06h-.15a.8.8,0,0,0-.6.32,1.08,1.08,0,0,0-.24.72v2.74c0,.06,0,.09-.1.09h-.71a.08.08,0,0,1-.09-.09v-4.59a.08.08,0,0,1,.09-.09h.71c.07,0,.1,0,.1.09v.52s0,0,0,0,0,0,0,0a1.11,1.11,0,0,1,1-.68A1.12,1.12,0,0,1,172.74,122Z"/><path class="cls-9" d="M175.72,125.87a1,1,0,0,0,.35-.43c0-.06.05-.08.11-.06l.57.16a.09.09,0,0,1,.07.12,1.59,1.59,0,0,1-.6.85,1.87,1.87,0,0,1-1.09.31,1.78,1.78,0,0,1-1.14-.35,1.51,1.51,0,0,1-.55-1,5,5,0,0,1-.12-1.16,8.83,8.83,0,0,1,0-1,1.59,1.59,0,0,1,.55-1,1.75,1.75,0,0,1,1.19-.4,1.72,1.72,0,0,1,1.26.44,1.76,1.76,0,0,1,.52,1.2c0,.3,0,.66,0,1.07,0,.07,0,.1-.1.1h-2.57s0,0,0,0a4,4,0,0,0,0,.52.84.84,0,0,0,.3.57.87.87,0,0,0,.62.22A.9.9,0,0,0,175.72,125.87Zm-1.19-3a.91.91,0,0,0-.28.54c0,.2,0,.37,0,.52a0,0,0,0,0,0,0H176s0,0,0,0c0-.23,0-.39,0-.48a.87.87,0,0,0-.28-.57.84.84,0,0,0-.6-.22A.8.8,0,0,0,174.53,122.88Z"/><path class="cls-9" d="M180.79,122.33a1.49,1.49,0,0,1,.47,1.14v3.18a.08.08,0,0,1-.09.09h-.72a.08.08,0,0,1-.09-.09v-.27s0,0-.05,0a1.56,1.56,0,0,1-1.19.46,1.6,1.6,0,0,1-1-.33,1.27,1.27,0,0,1-.43-1.08,1.4,1.4,0,0,1,.5-1.17,2.14,2.14,0,0,1,1.36-.4h.79s0,0,0,0v-.27a.89.89,0,0,0-.21-.63.76.76,0,0,0-.61-.24.81.81,0,0,0-.52.16.64.64,0,0,0-.24.41.1.1,0,0,1-.11.09l-.76,0-.06,0s0,0,0-.06a1.27,1.27,0,0,1,.53-1,1.87,1.87,0,0,1,1.17-.36A1.81,1.81,0,0,1,180.79,122.33Zm-.73,3.48a.74.74,0,0,0,.3-.63v-.6s0,0,0,0h-.72a1.25,1.25,0,0,0-.74.2.7.7,0,0,0-.28.6.62.62,0,0,0,.21.52.81.81,0,0,0,.55.18A1.16,1.16,0,0,0,180.06,125.81Z"/><path class="cls-9" d="M184.3,122.66h-.84s0,0,0,0v2.55a.76.76,0,0,0,.15.54.63.63,0,0,0,.48.16h.18c.07,0,.1,0,.1.1v.59c0,.06,0,.09-.1.09h-.36a1.61,1.61,0,0,1-1-.25,1.08,1.08,0,0,1-.34-.92V122.7s0,0,0,0h-.46c-.07,0-.1,0-.1-.09v-.51c0-.06,0-.09.1-.09h.46s0,0,0,0v-1.08c0-.06,0-.09.1-.09h.68c.07,0,.1,0,.1.09v1.08s0,0,0,0h.84a.08.08,0,0,1,.09.09v.51A.08.08,0,0,1,184.3,122.66Z"/><path class="cls-9" d="M187.7,126.44a1.63,1.63,0,0,1-.57-1,7.69,7.69,0,0,1-.06-1.06,8.57,8.57,0,0,1,.06-1,1.59,1.59,0,0,1,.57-1,1.81,1.81,0,0,1,1.19-.39,1.84,1.84,0,0,1,1.17.37,1.42,1.42,0,0,1,.57.94l0,.22c0,.06,0,.09-.1.1l-.7.06h0s-.06,0-.07-.07v0l0-.11a.84.84,0,0,0-.28-.5.92.92,0,0,0-.59-.2.8.8,0,0,0-.59.22.91.91,0,0,0-.28.57,8,8,0,0,0,0,.89,7.39,7.39,0,0,0,.05.91.9.9,0,0,0,.27.57.84.84,0,0,0,.59.21.92.92,0,0,0,.6-.2.86.86,0,0,0,.27-.5v-.1a.08.08,0,0,1,.1-.08l.7,0c.07,0,.1,0,.1.11l0,.16a1.4,1.4,0,0,1-.55,1,1.88,1.88,0,0,1-1.19.38A1.83,1.83,0,0,1,187.7,126.44Z"/><path class="cls-9" d="M194,122a.11.11,0,0,1,.05.13l-.14.71c0,.06,0,.07-.11.06a.73.73,0,0,0-.32-.06h-.15a.8.8,0,0,0-.6.32,1.08,1.08,0,0,0-.24.72v2.74c0,.06,0,.09-.1.09h-.71a.08.08,0,0,1-.09-.09v-4.59a.08.08,0,0,1,.09-.09h.71c.06,0,.1,0,.1.09v.52s0,0,0,0,0,0,0,0a1.1,1.1,0,0,1,1-.68A1,1,0,0,1,194,122Z"/><path class="cls-9" d="M197,125.87a.9.9,0,0,0,.34-.43.08.08,0,0,1,.12-.06l.57.16a.08.08,0,0,1,.06.12,1.52,1.52,0,0,1-.59.85,1.89,1.89,0,0,1-1.09.31,1.78,1.78,0,0,1-1.14-.35,1.51,1.51,0,0,1-.55-1,5,5,0,0,1-.12-1.16,8.83,8.83,0,0,1,0-1,1.59,1.59,0,0,1,.55-1,1.77,1.77,0,0,1,3,1.24c0,.3,0,.66,0,1.07,0,.07,0,.1-.1.1h-2.57s0,0,0,0a4,4,0,0,0,0,.52.84.84,0,0,0,.3.57.87.87,0,0,0,.62.22A.9.9,0,0,0,197,125.87Zm-1.19-3a.91.91,0,0,0-.28.54c0,.2,0,.37,0,.52a0,0,0,0,0,0,0h1.73s0,0,0,0c0-.23,0-.39,0-.48a.91.91,0,0,0-.28-.57.84.84,0,0,0-.6-.22A.8.8,0,0,0,195.8,122.88Z"/><path class="cls-9" d="M202.06,122.33a1.49,1.49,0,0,1,.47,1.14v3.18a.08.08,0,0,1-.09.09h-.72a.08.08,0,0,1-.09-.09v-.27s0,0,0,0a1.57,1.57,0,0,1-1.19.46,1.65,1.65,0,0,1-1-.33,1.29,1.29,0,0,1-.42-1.08,1.4,1.4,0,0,1,.5-1.17,2.13,2.13,0,0,1,1.35-.4h.8s0,0,0,0v-.27a.89.89,0,0,0-.21-.63.76.76,0,0,0-.61-.24.81.81,0,0,0-.52.16.7.7,0,0,0-.25.41c0,.06,0,.09-.1.09l-.76,0-.06,0s0,0,0-.06a1.27,1.27,0,0,1,.53-1,1.87,1.87,0,0,1,1.17-.36A1.81,1.81,0,0,1,202.06,122.33Zm-.74,3.48a.73.73,0,0,0,.31-.63v-.6s0,0,0,0h-.72a1.3,1.3,0,0,0-.75.2.72.72,0,0,0-.27.6.62.62,0,0,0,.21.52.81.81,0,0,0,.55.18A1.11,1.11,0,0,0,201.32,125.81Z"/><path class="cls-9" d="M205.57,122.66h-.84s0,0,0,0v2.55a.76.76,0,0,0,.15.54.62.62,0,0,0,.48.16h.18a.09.09,0,0,1,.1.1v.59c0,.06,0,.09-.1.09h-.36a1.61,1.61,0,0,1-1-.25,1.08,1.08,0,0,1-.34-.92V122.7s0,0,0,0h-.46c-.07,0-.1,0-.1-.09v-.51c0-.06,0-.09.1-.09h.46s0,0,0,0v-1.08c0-.06,0-.09.1-.09h.68c.06,0,.1,0,.1.09v1.08s0,0,0,0h.84a.08.08,0,0,1,.09.09v.51A.08.08,0,0,1,205.57,122.66Z"/><path class="cls-9" d="M206.66,121.09a.54.54,0,0,1-.17-.43.54.54,0,0,1,.17-.42.58.58,0,0,1,.43-.17.58.58,0,0,1,.59.59.58.58,0,0,1-.17.43.57.57,0,0,1-.42.17A.58.58,0,0,1,206.66,121.09Zm0,5.56v-4.59a.08.08,0,0,1,.09-.09h.71c.07,0,.1,0,.1.09v4.59c0,.06,0,.09-.1.09h-.71A.08.08,0,0,1,206.64,126.65Z"/><path class="cls-9" d="M209.75,126.67l-1.35-4.6v0c0-.05,0-.07.1-.07h.78a.1.1,0,0,1,.11.08l.86,3.38a0,0,0,0,0,0,0l0,0,.85-3.38a.1.1,0,0,1,.1-.08H212a.09.09,0,0,1,.07,0s0,0,0,.07l-1.34,4.59a.1.1,0,0,1-.1.07h-.81A.1.1,0,0,1,209.75,126.67Z"/><path class="cls-9" d="M215.06,125.87a1,1,0,0,0,.35-.43c0-.06.05-.08.11-.06l.57.16a.09.09,0,0,1,.07.12,1.59,1.59,0,0,1-.6.85,1.87,1.87,0,0,1-1.09.31,1.82,1.82,0,0,1-1.14-.35,1.51,1.51,0,0,1-.55-1,5,5,0,0,1-.12-1.16,8.83,8.83,0,0,1,0-1,1.59,1.59,0,0,1,.55-1,2,2,0,0,1,2.46,0,1.8,1.8,0,0,1,.51,1.2c0,.3,0,.66,0,1.07,0,.07,0,.1-.09.1h-2.58s0,0,0,0a4,4,0,0,0,0,.52.84.84,0,0,0,.3.57,1,1,0,0,0,1.17.05Zm-1.19-3a.85.85,0,0,0-.27.54,3.46,3.46,0,0,0,0,.52s0,0,0,0h1.72s0,0,0,0c0-.23,0-.39,0-.48a.87.87,0,0,0-.28-.57.84.84,0,0,0-.6-.22A.8.8,0,0,0,213.87,122.88Z"/><path class="cls-9" d="M222.75,124.35a4.9,4.9,0,0,1-.1,1.06c-.18.94-.68,1.41-1.51,1.41a1.15,1.15,0,0,1-1-.48s0,0,0,0,0,0,0,0v2.09c0,.06,0,.09-.1.09h-.71a.08.08,0,0,1-.09-.09v-6.38a.08.08,0,0,1,.09-.09H220c.06,0,.1,0,.1.09v.31s0,0,0,0,0,0,0,0a1.22,1.22,0,0,1,1-.5,1.31,1.31,0,0,1,1,.35,2,2,0,0,1,.52,1A5.2,5.2,0,0,1,222.75,124.35Zm-.91,0a3.93,3.93,0,0,0-.11-1,.79.79,0,0,0-.79-.66.75.75,0,0,0-.75.65,4.81,4.81,0,0,0,0,2.09.74.74,0,0,0,.73.63.72.72,0,0,0,.48-.17.92.92,0,0,0,.29-.44A3.38,3.38,0,0,0,221.84,124.36Z"/><path class="cls-9" d="M226.05,125.87a1,1,0,0,0,.35-.43c0-.06,0-.08.11-.06l.57.16c.06,0,.09.06.07.12a1.59,1.59,0,0,1-.6.85,1.87,1.87,0,0,1-1.09.31,1.82,1.82,0,0,1-1.14-.35,1.51,1.51,0,0,1-.55-1,5,5,0,0,1-.12-1.16,6.72,6.72,0,0,1,0-1,1.58,1.58,0,0,1,.54-1,2,2,0,0,1,2.46,0,1.8,1.8,0,0,1,.51,1.2c0,.3,0,.66,0,1.07,0,.07,0,.1-.09.1h-2.58s0,0,0,0c0,.25,0,.42,0,.52a.84.84,0,0,0,.3.57.91.91,0,0,0,.63.22A.89.89,0,0,0,226.05,125.87Zm-1.19-3a.85.85,0,0,0-.27.54,3.46,3.46,0,0,0,0,.52s0,0,0,0h1.72s0,0,0,0c0-.23,0-.39,0-.48a.87.87,0,0,0-.28-.57.84.84,0,0,0-.6-.22A.8.8,0,0,0,224.86,122.88Z"/><path class="cls-9" d="M228.78,126.44a1.58,1.58,0,0,1-.57-1,6.5,6.5,0,0,1-.09-1.06,6.6,6.6,0,0,1,.08-1,1.63,1.63,0,0,1,.57-1,1.89,1.89,0,0,1,1.2-.38,1.81,1.81,0,0,1,1.17.38,1.64,1.64,0,0,1,.57,1,6.57,6.57,0,0,1,.09,1,6.72,6.72,0,0,1-.09,1.07,1.58,1.58,0,0,1-.57,1,1.81,1.81,0,0,1-1.17.38A1.86,1.86,0,0,1,228.78,126.44Zm1.76-.62a.92.92,0,0,0,.29-.57,6,6,0,0,0,.06-.9,8.37,8.37,0,0,0,0-.89.92.92,0,0,0-.29-.57.9.9,0,0,0-1.18,0,.92.92,0,0,0-.29.57,8,8,0,0,0,0,1.79.92.92,0,0,0,.29.57.84.84,0,0,0,.6.22A.78.78,0,0,0,230.54,125.82Z"/><path class="cls-9" d="M236.46,124.35a5.67,5.67,0,0,1-.09,1.06c-.19.94-.69,1.41-1.52,1.41a1.15,1.15,0,0,1-1-.48s0,0,0,0,0,0,0,0v2.09c0,.06,0,.09-.1.09H233a.08.08,0,0,1-.09-.09v-6.38A.08.08,0,0,1,233,122h.71c.07,0,.1,0,.1.09v.31s0,0,0,0,0,0,0,0a1.22,1.22,0,0,1,1-.5,1.31,1.31,0,0,1,1,.35,2,2,0,0,1,.52,1A5.2,5.2,0,0,1,236.46,124.35Zm-.91,0a3.93,3.93,0,0,0-.11-1,.79.79,0,0,0-.79-.66.77.77,0,0,0-.75.65,4.81,4.81,0,0,0,0,2.09.74.74,0,0,0,.73.63.72.72,0,0,0,.48-.17.92.92,0,0,0,.29-.44A3.38,3.38,0,0,0,235.55,124.36Z"/><path class="cls-9" d="M237.44,126.65v-6.38c0-.06,0-.09.1-.09h.71a.08.08,0,0,1,.09.09v6.38a.08.08,0,0,1-.09.09h-.71C237.48,126.74,237.44,126.71,237.44,126.65Z"/><path class="cls-9" d="M241.78,125.87a1,1,0,0,0,.34-.43.08.08,0,0,1,.12-.06l.57.16a.08.08,0,0,1,.06.12,1.52,1.52,0,0,1-.59.85,1.89,1.89,0,0,1-1.09.31,1.78,1.78,0,0,1-1.14-.35,1.51,1.51,0,0,1-.55-1,5,5,0,0,1-.12-1.16,8.83,8.83,0,0,1,0-1,1.59,1.59,0,0,1,.55-1,2,2,0,0,1,2.45,0,1.8,1.8,0,0,1,.52,1.2c0,.3,0,.66,0,1.07,0,.07,0,.1-.1.1H240.3a0,0,0,0,0,0,0c0,.25,0,.42,0,.52a.93.93,0,0,0,.3.57,1,1,0,0,0,1.18.05Zm-1.19-3a.86.86,0,0,0-.28.54c0,.2,0,.37,0,.52a0,0,0,0,0,0,0H242s0,0,0,0c0-.23,0-.39,0-.48a.91.91,0,0,0-.28-.57.84.84,0,0,0-.6-.22A.8.8,0,0,0,240.59,122.88Z"/><path class="cls-9" d="M244,126.55a.63.63,0,0,1-.18-.46.58.58,0,0,1,.19-.45.61.61,0,0,1,.45-.19.62.62,0,0,1,.46.19.59.59,0,0,1,.2.45.66.66,0,0,1-.19.46.64.64,0,0,1-.47.19A.59.59,0,0,1,244,126.55Z"/></g></svg>