<svg xmlns="http://www.w3.org/2000/svg" xmlns:xlink="http://www.w3.org/1999/xlink" viewBox="0 0 250 150"><defs><style>.cls-1,.cls-4{fill:none;}.cls-2{clip-path:url(#clip-path);}.cls-3{clip-path:url(#clip-path-2);}.cls-4{stroke:#231f20;stroke-width:6.97px;}.cls-5{clip-path:url(#clip-path-3);}.cls-6{clip-path:url(#clip-path-4);}.cls-7{clip-path:url(#clip-path-5);}.cls-10,.cls-8{fill:#e37b40;}.cls-9{fill:#46b29d;}.cls-10{font-size:78.63px;font-family:BebasNeue, Bebas Neue;}</style><clipPath id="clip-path"><rect class="cls-1" x="6.92" y="5.08" width="236.58" height="84"/></clipPath><clipPath id="clip-path-2"><rect class="cls-1" x="113.76" y="-127.55" width="274.74" height="159.16"/></clipPath><clipPath id="clip-path-3"><rect class="cls-1" x="113.76" y="31.61" width="274.74" height="159.16"/></clipPath><clipPath id="clip-path-4"><rect class="cls-1" x="-160.98" y="-127.55" width="274.74" height="159.16"/></clipPath><clipPath id="clip-path-5"><rect class="cls-1" x="-160.98" y="31.61" width="274.74" height="159.16"/></clipPath></defs><title>design_projects_ol</title><g id="Layer_2" data-name="Layer 2"><rect x="6.92" y="5.08" width="237" height="139"/><g class="cls-2"><g class="cls-3"><line class="cls-4" x1="112.8" y1="18.35" x2="389.45" y2="18.35"/><line class="cls-4" x1="-161.93" y1="18.35" x2="114.71" y2="18.35"/></g><g class="cls-5"><line class="cls-4" x1="112.8" y1="124.45" x2="389.45" y2="124.45"/><line class="cls-4" x1="112.8" y1="71.4" x2="389.45" y2="71.4"/><line class="cls-4" x1="112.8" y1="150.98" x2="389.45" y2="150.98"/><line class="cls-4" x1="112.8" y1="97.93" x2="389.45" y2="97.93"/><line class="cls-4" x1="112.8" y1="44.87" x2="389.45" y2="44.87"/><line class="cls-4" x1="-161.93" y1="124.45" x2="114.71" y2="124.45"/><line class="cls-4" x1="-161.93" y1="71.4" x2="114.71" y2="71.4"/><line class="cls-4" x1="-161.93" y1="150.98" x2="114.71" y2="150.98"/><line class="cls-4" x1="-161.93" y1="97.93" x2="114.71" y2="97.93"/><line class="cls-4" x1="-161.93" y1="44.87" x2="114.71" y2="44.87"/></g><g class="cls-6"><line class="cls-4" x1="112.8" y1="18.35" x2="389.45" y2="18.35"/><line class="cls-4" x1="-161.93" y1="18.35" x2="114.71" y2="18.35"/></g><g class="cls-7"><line class="cls-4" x1="112.8" y1="124.45" x2="389.45" y2="124.45"/><line class="cls-4" x1="112.8" y1="71.4" x2="389.45" y2="71.4"/><line class="cls-4" x1="112.8" y1="150.98" x2="389.45" y2="150.98"/><line class="cls-4" x1="112.8" y1="97.93" x2="389.45" y2="97.93"/><line class="cls-4" x1="112.8" y1="44.87" x2="389.45" y2="44.87"/><line class="cls-4" x1="-161.93" y1="124.45" x2="114.71" y2="124.45"/><line class="cls-4" x1="-161.93" y1="71.4" x2="114.71" y2="71.4"/><line class="cls-4" x1="-161.93" y1="150.98" x2="114.71" y2="150.98"/><line class="cls-4" x1="-161.93" y1="97.93" x2="114.71" y2="97.93"/><line class="cls-4" x1="-161.93" y1="44.87" x2="114.71" y2="44.87"/></g></g></g><g id="Layer_1" data-name="Layer 1"><path class="cls-8" d="M36.53,105.48v7.16c0,8.8-4.33,13.6-13.15,13.6H19.21v20.68H10.39v-55h13C32.2,91.88,36.53,96.68,36.53,105.48ZM19.21,99.74v18.64h4.17c2.81,0,4.33-1.26,4.33-5.19v-8.26c0-3.93-1.52-5.19-4.33-5.19Z"/><path class="cls-8" d="M59.06,146.92c-.48-1.42-.8-2.28-.8-6.76v-8.65c0-5.11-1.76-7-5.77-7H49.44v22.41H40.62v-55H53.93c9.14,0,13.07,4.17,13.07,12.66v4.32c0,5.66-1.84,9.28-5.77,11.09v.16c4.41,1.81,5.85,5.89,5.85,11.63v8.5c0,2.67.08,4.64,1,6.68ZM49.44,99.74v16.91h3.45c3.29,0,5.29-1.42,5.29-5.82V105.4c0-3.93-1.36-5.66-4.49-5.66Z"/><path class="cls-8" d="M72.13,105.09c0-8.81,4.73-13.84,13.39-13.84s13.39,5,13.39,13.84v28.62c0,8.81-4.73,13.84-13.39,13.84s-13.39-5-13.39-13.84ZM81,134.26c0,3.93,1.77,5.43,4.57,5.43s4.57-1.5,4.57-5.43V104.54c0-3.93-1.76-5.43-4.57-5.43S81,100.61,81,104.54Z"/><path class="cls-8" d="M102.2,139.06c1,.08,2.09.08,3,.08,2.8,0,5-1,5-5.27v-42h8.82v41.36c0,11-6,13.84-12.67,13.84a36.35,36.35,0,0,1-4.25-.16Z"/><path class="cls-8" d="M134,115.07h12.11v7.87H134v16.12h15.24v7.86H125.13v-55h24.06v7.86H134Z"/><path class="cls-8" d="M180.22,126.4v7.31c0,8.81-4.49,13.84-13.15,13.84s-13.15-5-13.15-13.84V105.09c0-8.81,4.49-13.84,13.15-13.84s13.15,5,13.15,13.84v5.35h-8.34v-5.9c0-3.93-1.76-5.43-4.57-5.43s-4.57,1.5-4.57,5.43v29.72c0,3.93,1.76,5.35,4.57,5.35s4.57-1.42,4.57-5.35V126.4Z"/><path class="cls-8" d="M183,91.88h27.26v7.86h-9.22v47.18h-8.82V99.74H183Z"/><path class="cls-8" d="M226,91.25c8.58,0,13,5,13,13.84v1.73h-8.34v-2.28c0-3.93-1.6-5.43-4.41-5.43s-4.41,1.5-4.41,5.43,1.77,7,7.54,11.95c7.38,6.37,9.7,10.93,9.7,17.22,0,8.81-4.49,13.84-13.15,13.84s-13.15-5-13.15-13.84v-3.38h8.34v3.93c0,3.93,1.77,5.35,4.57,5.35s4.57-1.42,4.57-5.35-1.76-7-7.53-11.95c-7.38-6.37-9.71-10.93-9.71-17.22C213,96.28,217.42,91.25,226,91.25Z"/><path class="cls-9" d="M11,46.39H21.63c6.74,0,10.05,3.79,10.05,10.74v22c0,7-3.31,10.73-10,10.73H11Zm6.74,6.21v31h3.8c2.14,0,3.43-1.12,3.43-4.22V56.82c0-3.1-1.29-4.22-3.43-4.22Z"/><path class="cls-9" d="M42.71,64.7H52v6.21H42.71V83.63H54.35v6.2H36V46.39H54.35V52.6H42.71Z"/><path class="cls-9" d="M67.59,45.9c6.55,0,9.92,4,9.92,10.92v1.36H71.14v-1.8c0-3.1-1.23-4.28-3.37-4.28s-3.37,1.18-3.37,4.28,1.35,5.53,5.76,9.44c5.64,5,7.41,8.62,7.41,13.59,0,7-3.43,10.92-10,10.92s-10-4-10-10.92V76.74h6.38v3.1c0,3.1,1.35,4.22,3.49,4.22s3.49-1.12,3.49-4.22-1.34-5.52-5.76-9.43c-5.63-5-7.41-8.63-7.41-13.59C57.66,49.87,61,45.9,67.59,45.9Z"/><path class="cls-9" d="M81.43,46.39h6.74V89.83H81.43Z"/><path class="cls-9" d="M103.19,65.63h9.43V79.41c0,7-3.43,10.92-10.05,10.92s-10-4-10-10.92V56.82c0-7,3.44-10.92,10-10.92s10.05,4,10.05,10.92V61h-6.37V56.38c0-3.1-1.35-4.28-3.49-4.28s-3.5,1.18-3.5,4.28V79.84c0,3.1,1.35,4.22,3.5,4.22s3.49-1.12,3.49-4.22v-8h-3.06Z"/><path class="cls-9" d="M123.1,58.37H123V89.83h-6.07V46.39h8.46l6.8,26h.12v-26h6V89.83h-6.93Z"/><text class="cls-10" transform="translate(7.18 -12.08) scale(1.02 1)">projects</text></g></svg>