<svg xmlns="http://www.w3.org/2000/svg" xmlns:xlink="http://www.w3.org/1999/xlink" viewBox="0 0 250 150"><defs><style>.cls-1{fill:none;}.cls-2{fill:url(#linear-gradient);}.cls-3{fill:url(#linear-gradient-2);}.cls-4{fill:#645faa;}.cls-5{fill:url(#linear-gradient-3);}.cls-6{fill:url(#linear-gradient-4);}.cls-7{fill:url(#linear-gradient-5);}.cls-8{fill:url(#linear-gradient-6);}.cls-9{fill:url(#linear-gradient-7);}.cls-10{fill:url(#linear-gradient-8);}.cls-11{isolation:isolate;}.cls-12{fill:#324d5c;}.cls-13,.cls-14{fill:url(#Plume1);}.cls-14,.cls-15{mix-blend-mode:luminosity;}.cls-16{clip-path:url(#clip-path);}.cls-17{clip-path:url(#clip-path-2);}.cls-18{fill:url(#linear-gradient-9);}.cls-19{fill:url(#linear-gradient-10);}.cls-20{clip-path:url(#clip-path-3);}.cls-21{fill:url(#linear-gradient-11);}.cls-22{fill:url(#linear-gradient-12);}.cls-23{fill:url(#linear-gradient-13);}.cls-24{fill:url(#linear-gradient-14);}.cls-25{font-size:79.69px;fill:#f53855;}.cls-25,.cls-26{font-family:BebasNeue, Bebas Neue;}.cls-26{font-size:62.06px;fill:#f0ca4d;}</style><linearGradient id="linear-gradient" x1="-31521.83" y1="-44148.27" x2="-31478.6" y2="-44118.44" gradientTransform="matrix(1, 0, 0, -1, 31628.5, -43927.72)" gradientUnits="userSpaceOnUse"><stop offset="0.03" stop-color="#9791c6"/><stop offset="0.66" stop-color="#7670b3"/></linearGradient><linearGradient id="linear-gradient-2" x1="-31490.53" y1="-44081.51" x2="-31412.1" y2="-44081.51" xlink:href="#linear-gradient"/><linearGradient id="linear-gradient-3" x1="-31660.84" y1="-44148.27" x2="-31617.61" y2="-44118.44" xlink:href="#linear-gradient"/><linearGradient id="linear-gradient-4" x1="-31629.54" y1="-44081.51" x2="-31551.11" y2="-44081.51" xlink:href="#linear-gradient"/><linearGradient id="linear-gradient-5" x1="-31521.83" y1="-44010.83" x2="-31478.6" y2="-43981" xlink:href="#linear-gradient"/><linearGradient id="linear-gradient-6" x1="-31490.53" y1="-43944.07" x2="-31412.1" y2="-43944.07" xlink:href="#linear-gradient"/><linearGradient id="linear-gradient-7" x1="-31660.84" y1="-44010.83" x2="-31617.61" y2="-43981" xlink:href="#linear-gradient"/><linearGradient id="linear-gradient-8" x1="-31629.54" y1="-43944.07" x2="-31551.11" y2="-43944.07" xlink:href="#linear-gradient"/><pattern id="Plume1" data-name="Plume1" width="139.01" height="137.44" patternTransform="translate(-51.73 -90.69) scale(1.04 1.01)" patternUnits="userSpaceOnUse" viewBox="0 0 139.01 137.44"><rect class="cls-1" width="139.01" height="137.44"/><path class="cls-2" d="M138.93,136.2c-6.61,7.87-10.85,30.65,2,51.84,12.62,20.87,38.33,28.2,35.44,51.75-2-5.57-8.44-8.47-15.13-8.47-5,0-10.76,2.59-10.76,8.84a6.4,6.4,0,0,0,6.3,6.48,5.23,5.23,0,0,0,4.14-8.51c2.53.93,5,3.38,5,8.31,0,5.51-5.06,11.29-13.58,11.29a17.17,17.17,0,0,1-16.81-17c0-15.32,16.69-20.8,27.54-15.56-12.64-11.35-38.52-1.78-46.16-25.41a11.3,11.3,0,0,0,10,4.06c-3.9-1.95-8-5.95-10.45-12.32-3.91-10-1.57-15.62-7.86-21.69a35,35,0,0,1,18.24,16c-4.4-14.94-10-25.92-24.17-34.71,9.22,1.84,14.07,3.86,21.75,10.54C126.25,149.41,130.59,143.57,138.93,136.2Z"/><path class="cls-3" d="M183.53,237.48c-2.66-22.62-17.29-27.68-31.2-42.63-18-19.33-17-46.14-8.35-60.41-2.11,14.3.51,27.42,9.23,38.67-5.09-17.12-4.22-35.12,4.17-49-1.19,9.25-1,14.25,2,22.62.88-18,8.54-30.68,22.85-41.52-5.72,9.64-8.59,22-7,31.86,6.33-25.87,24.07-37,36.74-40.65a39.37,39.37,0,0,0-8.18,18.24c9.38-19.56,27.76-22.31,37.79-28.34C248.74,82,245.74,74,241.37,74c-2.38,0-3.75,1.37-5.13,4,1-5.25,4.38-7.88,8-7.88,5.31,0,9.33,5.25,9.33,11.72,0,17.26-22.93,29.47-48.95,44.26-22.41,12.74-32.5,22.27-35.81,40-3.36,18,5.93,35.15,5.93,35.15s-8.56-29.6,4.63-47.87c12-16.62,30.33-23.92,47.25-33.87,18.69-11,35.87-22.63,30.72-41.51,9.45,9.45,12.72,24.28,5.28,33.39-9.57,11.72-28.53,14.24-36,21.75,13.15-6.63,25.22-4.11,34.71-7.91,9.32-3.72,9.22-14.28,9.22-14.28,3.85,13.31,0,28.65-15.38,34.28-16.13,5.9-34.73-1.75-51.4,7.68,17.88-6.2,38.65-3.18,50.14,15.82-4.56-4.56-13.31-6.15-20-6.15,15.6,8.72,13.79,31.71-.48,36.16,0,0,4.59-3.25,4.59-11.51,0-11.09-9.77-20.35-28-20.35-12.38,0-22.94,5.25-27.5,13.93,4.94-5.8,13.28-9.88,22.63-9.88,13.31,0,18.56,9.78,18.67,17.45a18,18,0,0,1-9.45,15.94c5.71-6.31,1.21-14.94-6.81-14.94-11.65,0-16.48,14.13-14.28,25.71,2.68-9.83,7.93-15,17.58-16.7-7,5.62-9.65,11.37-8.57,20.87,6.17-13.63,18.45-6.81,24.17-20.43,1.37,7.55.12,19-10.8,24.28C203.35,229,193.19,226.27,183.53,237.48Z"/><path class="cls-4" d="M226.37,198.81c1.37,7.55.12,19-10.8,24.28-12.22,5.94-22.38,3.18-32,14.39,7.94-17.55-3.21-27.88,1.36-42.69,4.49-14.58,18.68-17.58,26.36-14.5,9.78,3.92,11.16,17.88,3,24,5.71-6.31,1.21-14.94-6.81-14.94-11.65,0-16.48,14.13-14.28,25.71,2.68-9.83,7.93-15,17.58-16.7-7,5.62-9.65,11.37-8.57,20.87C208.37,205.61,220.65,212.43,226.37,198.81Zm-43.94-18c4.56-8.68,15.12-13.93,27.5-13.93,18.25,0,28,9.26,28,20.35,0,8.26-4.59,11.51-4.59,11.51,14.27-4.45,16.08-27.44.48-36.16,6.73,0,15.48,1.59,20,6.15C234.72,146.26,186.08,152.48,182.43,180.79Zm88.09-69.86c2.31,17.76-7.31,25.1-29.79,27-28.54,2.42-37,14.95-37,14.95,16.67-9.43,35.27-1.78,51.4-7.68C270.52,139.58,274.37,124.24,270.52,110.93Zm-43.93,22.19c7.5-7.51,26.46-10,36-21.75,7.44-9.11,4.17-23.94-5.28-33.39,6.41,9,7.72,20.67.55,29.1C248,118.7,235.16,119.4,226.59,133.12Zm27-51.29c0-6.47-4-11.72-9.33-11.72,8.18,2.21,8.8,16.16-4,27.07-11.27,9.56-28.22,18.11-44.66,28.43S164,149,164,170.27c0,17.27,10.79,31,10.79,31s-9.29-17.19-5.93-35.15c3.31-17.72,13.4-27.25,35.81-40C230.64,111.3,253.57,99.09,253.57,81.83ZM140.91,188c-12.83-21.19-8.59-44-2-51.84-8.3,8.3-14.44,27.66-7.83,45.83,5.23,14.35,16.62,24.57,30.89,35.46,8.67,6.61,13.63,14.25,14.36,22.3C179.24,216.24,153.53,208.91,140.91,188Zm20.31,43.28a20.83,20.83,0,0,1,8,1.53c-6.89-7.94-25.9-5.13-25.9,7.69a11.29,11.29,0,0,0,11.37,11.52c8.85,0,11.83-9.39,6.22-13.93a5.23,5.23,0,0,1-4.14,8.51,6.4,6.4,0,0,1-6.3-6.48C150.46,233.91,156.25,231.32,161.22,231.32Z"/><path class="cls-5" d="M-.08,136.2c-6.61,7.87-10.85,30.65,2,51.84,12.62,20.87,38.33,28.2,35.44,51.75-2-5.57-8.44-8.47-15.13-8.47-5,0-10.76,2.59-10.76,8.84a6.4,6.4,0,0,0,6.3,6.48,5.23,5.23,0,0,0,4.14-8.51c2.52.93,5.05,3.38,5.05,8.31,0,5.51-5.06,11.29-13.59,11.29a17.17,17.17,0,0,1-16.8-17c0-15.32,16.69-20.8,27.54-15.56-12.64-11.35-38.52-1.78-46.16-25.41a11.3,11.3,0,0,0,10,4.06c-3.9-1.95-8-5.95-10.45-12.32-3.91-10-1.57-15.62-7.86-21.69a35,35,0,0,1,18.24,16c-4.4-14.94-10-25.92-24.17-34.71,9.22,1.84,14.07,3.86,21.75,10.54C-12.76,149.41-8.42,143.57-.08,136.2Z"/><path class="cls-6" d="M44.52,237.48c-2.67-22.62-17.29-27.68-31.2-42.63-18-19.33-17-46.14-8.35-60.41-2.12,14.3.51,27.42,9.23,38.67C9.1,156,10,138,18.37,124.12c-1.19,9.25-1,14.25,2,22.62.88-18,8.54-30.68,22.85-41.52-5.72,9.64-8.6,22-7,31.86,6.33-25.87,24.07-37,36.74-40.65a39.37,39.37,0,0,0-8.18,18.24c9.37-19.56,27.76-22.31,37.78-28.34C109.73,82,106.73,74,102.35,74c-2.37,0-3.75,1.37-5.12,4,1-5.25,4.37-7.88,8-7.88,5.31,0,9.33,5.25,9.33,11.72,0,17.26-22.93,29.47-48.95,44.26-22.41,12.74-32.51,22.27-35.81,40-3.36,18,5.93,35.15,5.93,35.15s-8.56-29.6,4.62-47.87c12-16.62,30.34-23.92,47.25-33.87,18.7-11,35.88-22.63,30.73-41.51,9.45,9.45,12.72,24.28,5.27,33.39-9.56,11.72-28.52,14.24-36,21.75,13.15-6.63,25.22-4.11,34.71-7.91,9.31-3.72,9.22-14.28,9.22-14.28,3.84,13.31,0,28.65-15.38,34.28-16.13,5.9-34.73-1.75-51.4,7.68,17.88-6.2,38.65-3.18,50.14,15.82-4.56-4.56-13.31-6.15-20-6.15,15.6,8.72,13.79,31.71-.49,36.16,0,0,4.6-3.25,4.6-11.51,0-11.09-9.77-20.35-28-20.35-12.38,0-22.94,5.25-27.5,13.93,4.93-5.8,13.28-9.88,22.63-9.88,13.3,0,18.56,9.78,18.67,17.45a18,18,0,0,1-9.45,15.94c5.71-6.31,1.21-14.94-6.81-14.94-11.65,0-16.48,14.13-14.28,25.71,2.67-9.83,7.92-15,17.58-16.7-7,5.62-9.66,11.37-8.57,20.87,6.16-13.63,18.45-6.81,24.17-20.43,1.37,7.55.12,19-10.8,24.28C64.34,229,54.18,226.27,44.52,237.48Z"/><path class="cls-4" d="M87.36,198.81c1.37,7.55.12,19-10.8,24.28-12.22,5.94-22.38,3.18-32,14.39,7.94-17.55-3.21-27.88,1.36-42.69,4.49-14.58,18.68-17.58,26.36-14.5,9.78,3.92,11.16,17.88,3,24,5.71-6.31,1.21-14.94-6.81-14.94-11.65,0-16.48,14.13-14.28,25.71,2.67-9.83,7.92-15,17.58-16.7-7,5.62-9.66,11.37-8.57,20.87C69.35,205.61,81.64,212.43,87.36,198.81Zm-43.94-18c4.56-8.68,15.12-13.93,27.5-13.93,18.25,0,28,9.26,28,20.35,0,8.26-4.6,11.51-4.6,11.51,14.28-4.45,16.09-27.44.49-36.16,6.73,0,15.48,1.59,20,6.15C95.71,146.26,47.07,152.48,43.42,180.79Zm88.09-69.86c2.31,17.76-7.31,25.1-29.79,27-28.55,2.42-37,14.95-37,14.95,16.67-9.43,35.27-1.78,51.4-7.68C131.5,139.58,135.35,124.24,131.51,110.93ZM87.58,133.12c7.5-7.51,26.46-10,36-21.75,7.45-9.11,4.18-23.94-5.27-33.39,6.41,9,7.72,20.67.55,29.1C109,118.7,96.15,119.4,87.58,133.12Zm27-51.29c0-6.47-4-11.72-9.33-11.72,8.18,2.21,8.8,16.16-4,27.07C89.92,106.74,73,115.29,56.53,125.61S24.94,149,24.94,170.27c0,17.27,10.79,31,10.79,31S26.44,184,29.8,166.08c3.3-17.72,13.4-27.25,35.81-40C91.63,111.3,114.56,99.09,114.56,81.83ZM1.9,188c-12.83-21.19-8.59-44-2-51.84-8.3,8.3-14.44,27.66-7.83,45.83C-2.68,196.38,8.71,206.6,23,217.49c8.67,6.61,13.62,14.25,14.36,22.3C40.23,216.24,14.52,208.91,1.9,188Zm20.31,43.28a20.74,20.74,0,0,1,8,1.53c-6.88-7.94-25.89-5.13-25.89,7.69a11.29,11.29,0,0,0,11.37,11.52c8.85,0,11.83-9.39,6.22-13.93a5.23,5.23,0,0,1-4.14,8.51,6.4,6.4,0,0,1-6.3-6.48C11.45,233.91,17.24,231.32,22.21,231.32Z"/><path class="cls-7" d="M138.93-1.24c-6.61,7.87-10.85,30.65,2,51.84,12.62,20.87,38.33,28.2,35.44,51.75-2-5.57-8.44-8.47-15.13-8.47-5,0-10.76,2.59-10.76,8.84a6.4,6.4,0,0,0,6.3,6.48,5.23,5.23,0,0,0,4.14-8.51c2.53.93,5,3.38,5,8.31,0,5.51-5.06,11.29-13.58,11.29a17.17,17.17,0,0,1-16.81-17c0-15.32,16.69-20.8,27.54-15.56C150.46,76.38,124.58,86,116.94,62.32a11.3,11.3,0,0,0,10,4.06c-3.9-1.95-8-5.95-10.45-12.32-3.91-10-1.57-15.62-7.86-21.69a35,35,0,0,1,18.24,16c-4.4-14.94-10-25.93-24.17-34.71,9.22,1.84,14.07,3.86,21.75,10.54C126.25,12,130.59,6.13,138.93-1.24Z"/><path class="cls-8" d="M183.53,100c-2.66-22.61-17.29-27.67-31.2-42.62-18-19.33-17-46.14-8.35-60.41-2.11,14.3.51,27.42,9.23,38.67-5.09-17.12-4.22-35.12,4.17-49-1.19,9.25-1,14.25,2,22.62.88-18,8.54-30.68,22.85-41.52-5.72,9.64-8.59,22-7,31.86,6.33-25.87,24.07-37,36.74-40.65a39.37,39.37,0,0,0-8.18,18.24c9.38-19.56,27.76-22.31,37.79-28.34,7.21-4.34,4.21-12.34-.16-12.34-2.38,0-3.75,1.37-5.13,4,1-5.25,4.38-7.88,8-7.88,5.31,0,9.33,5.25,9.33,11.72,0,17.26-22.93,29.47-48.95,44.26-22.41,12.74-32.5,22.27-35.81,40-3.36,18,5.93,35.15,5.93,35.15s-8.56-29.6,4.63-47.87C191.37-.7,209.7-8,226.62-17.95c18.69-11,35.87-22.63,30.72-41.51,9.45,9.45,12.72,24.28,5.28,33.39-9.57,11.72-28.53,14.24-36,21.75,13.15-6.63,25.22-4.11,34.71-7.91,9.32-3.72,9.22-14.28,9.22-14.28,3.85,13.31,0,28.65-15.38,34.28C239,13.67,220.41,6,203.74,15.45c17.88-6.2,38.65-3.18,50.14,15.82-4.56-4.56-13.31-6.15-20-6.15,15.6,8.72,13.79,31.7-.48,36.16,0,0,4.59-3.25,4.59-11.51,0-11.09-9.77-20.35-28-20.35-12.38,0-22.94,5.25-27.5,13.93,4.94-5.8,13.28-9.88,22.63-9.88,13.31,0,18.56,9.78,18.67,17.45a18,18,0,0,1-9.45,15.94c5.71-6.31,1.21-14.94-6.81-14.94-11.65,0-16.48,14.13-14.28,25.71,2.68-9.83,7.93-15,17.58-16.7-7,5.62-9.65,11.37-8.57,20.87,6.17-13.63,18.45-6.81,24.17-20.43,1.37,7.55.12,19-10.8,24.28C203.35,91.59,193.19,88.83,183.53,100Z"/><path class="cls-4" d="M131.5,95.13c-.31-5.33,7.82-10.37,15.23-10.14C137.84,81.52,124.24,85.47,131.5,95.13Z"/><path class="cls-4" d="M226.37,61.37c1.37,7.55.12,19-10.8,24.28-12.22,5.94-22.38,3.18-32,14.38,7.94-17.54-3.21-27.87,1.36-42.68,4.49-14.58,18.68-17.58,26.36-14.5,9.78,3.92,11.16,17.88,3,24,5.71-6.31,1.21-14.94-6.81-14.94-11.65,0-16.48,14.13-14.28,25.71,2.68-9.83,7.93-15,17.58-16.7-7,5.62-9.65,11.37-8.57,20.87C208.37,68.17,220.65,75,226.37,61.37Zm-43.94-18c4.56-8.68,15.12-13.93,27.5-13.93,18.25,0,28,9.26,28,20.35,0,8.26-4.59,11.51-4.59,11.51,14.27-4.46,16.08-27.44.48-36.16,6.73,0,15.48,1.59,20,6.15C234.72,8.81,186.08,15,182.43,43.35Zm88.09-69.86c2.31,17.76-7.31,25.1-29.79,27-28.54,2.42-37,15-37,15C220.41,6,239,13.67,255.14,7.77,270.52,2.14,274.37-13.2,270.52-26.51ZM226.59-4.32c7.5-7.51,26.46-10,36-21.75,7.44-9.11,4.17-23.94-5.28-33.39,6.41,9,7.72,20.67.55,29.1C248-18.74,235.16-18,226.59-4.32Zm27-51.29c0-6.47-4-11.72-9.33-11.72,8.18,2.21,8.8,16.16-4,27.07C228.93-30.7,212-22.15,195.54-11.83S164,11.55,164,32.83c0,17.27,10.79,31,10.79,31s-9.29-17.19-5.93-35.15c3.31-17.72,13.4-27.25,35.81-40C230.64-26.14,253.57-38.35,253.57-55.61ZM140.91,50.6c-12.83-21.19-8.59-44-2-51.84-8.3,8.3-14.44,27.66-7.83,45.83,5.23,14.35,16.62,24.57,30.89,35.46,8.67,6.61,13.63,14.25,14.36,22.3C179.24,78.8,153.53,71.47,140.91,50.6Zm20.31,43.28a20.83,20.83,0,0,1,8,1.53c-6.89-7.94-25.9-5.13-25.9,7.69a11.29,11.29,0,0,0,11.37,11.52c8.85,0,11.83-9.39,6.22-13.93a5.23,5.23,0,0,1-4.14,8.51,6.4,6.4,0,0,1-6.3-6.48C150.46,96.47,156.25,93.88,161.22,93.88Z"/><path class="cls-4" d="M152.22,127.2c-5.31,2.34-13.52-4-16.1-11.7C136,125.89,145.13,138.27,152.22,127.2Z"/><path class="cls-9" d="M-.08-1.24c-6.61,7.87-10.85,30.65,2,51.84,12.62,20.87,38.33,28.2,35.44,51.75-2-5.57-8.44-8.47-15.13-8.47-5,0-10.76,2.59-10.76,8.84a6.4,6.4,0,0,0,6.3,6.48,5.23,5.23,0,0,0,4.14-8.51c2.52.93,5.05,3.38,5.05,8.31,0,5.51-5.06,11.29-13.59,11.29a17.17,17.17,0,0,1-16.8-17c0-15.32,16.69-20.8,27.54-15.56C11.45,76.38-14.43,86-22.07,62.32a11.3,11.3,0,0,0,10,4.06c-3.9-1.95-8-5.95-10.45-12.32-3.91-10-1.57-15.62-7.86-21.69a35,35,0,0,1,18.24,16c-4.4-14.94-10-25.93-24.17-34.71,9.22,1.84,14.07,3.86,21.75,10.54C-12.76,12-8.42,6.13-.08-1.24Z"/><path class="cls-10" d="M44.52,100c-2.67-22.61-17.29-27.67-31.2-42.62C-4.68,38.08-3.67,11.27,5-3c-2.12,14.3.51,27.42,9.23,38.67C9.1,18.55,10,.55,18.37-13.32c-1.19,9.25-1,14.25,2,22.62.88-18,8.54-30.68,22.85-41.52-5.72,9.64-8.6,22-7,31.86C42.5-26.23,60.24-37.32,72.91-41a39.37,39.37,0,0,0-8.18,18.24c9.37-19.56,27.76-22.31,37.78-28.34,7.22-4.34,4.22-12.34-.16-12.34-2.37,0-3.75,1.37-5.12,4,1-5.25,4.37-7.88,8-7.88,5.31,0,9.33,5.25,9.33,11.72,0,17.26-22.93,29.47-48.95,44.26C43.2,1.39,33.1,10.92,29.8,28.64c-3.36,18,5.93,35.15,5.93,35.15s-8.56-29.6,4.62-47.87C52.35-.7,70.69-8,87.6-17.95c18.7-11,35.88-22.63,30.73-41.51,9.45,9.45,12.72,24.28,5.27,33.39C114-14.35,95.08-11.83,87.58-4.32c13.15-6.63,25.22-4.11,34.71-7.91,9.31-3.72,9.22-14.28,9.22-14.28,3.84,13.31,0,28.65-15.38,34.28C100,13.67,81.4,6,64.73,15.45c17.88-6.2,38.65-3.18,50.14,15.82-4.56-4.56-13.31-6.15-20-6.15,15.6,8.72,13.79,31.7-.49,36.16,0,0,4.6-3.25,4.6-11.51,0-11.09-9.77-20.35-28-20.35-12.38,0-22.94,5.25-27.5,13.93,4.93-5.8,13.28-9.88,22.63-9.88,13.3,0,18.56,9.78,18.67,17.45a18,18,0,0,1-9.45,15.94c5.71-6.31,1.21-14.94-6.81-14.94C56.81,51.92,52,66.05,54.18,77.63c2.67-9.83,7.92-15,17.58-16.7-7,5.62-9.66,11.37-8.57,20.87C69.35,68.17,81.64,75,87.36,61.37c1.37,7.55.12,19-10.8,24.28C64.34,91.59,54.18,88.83,44.52,100Z"/><path class="cls-4" d="M-7.51,95.13C-7.82,89.8.31,84.76,7.72,85-1.17,81.52-14.78,85.47-7.51,95.13Z"/><path class="cls-4" d="M90.36,76.63C91.54,82.31,83.58,89,75.57,90,85.69,92.27,99.71,85.87,90.36,76.63Z"/><path class="cls-4" d="M87.36,61.37c1.37,7.55.12,19-10.8,24.28-12.22,5.94-22.38,3.18-32,14.38,7.94-17.54-3.21-27.87,1.36-42.68,4.49-14.58,18.68-17.58,26.36-14.5,9.78,3.92,11.16,17.88,3,24,5.71-6.31,1.21-14.94-6.81-14.94C56.81,51.92,52,66.05,54.18,77.63c2.67-9.83,7.92-15,17.58-16.7-7,5.62-9.66,11.37-8.57,20.87C69.35,68.17,81.64,75,87.36,61.37Zm-43.94-18C48,34.67,58.54,29.42,70.92,29.42c18.25,0,28,9.26,28,20.35,0,8.26-4.6,11.51-4.6,11.51,14.28-4.46,16.09-27.44.49-36.16,6.73,0,15.48,1.59,20,6.15C95.71,8.81,47.07,15,43.42,43.35Zm88.09-69.86c2.31,17.76-7.31,25.1-29.79,27-28.55,2.42-37,15-37,15C81.4,6,100,13.67,116.13,7.77,131.5,2.14,135.35-13.2,131.51-26.51ZM87.58-4.32c7.5-7.51,26.46-10,36-21.75,7.45-9.11,4.18-23.94-5.27-33.39,6.41,9,7.72,20.67.55,29.1C109-18.74,96.15-18,87.58-4.32Zm27-51.29c0-6.47-4-11.72-9.33-11.72,8.18,2.21,8.8,16.16-4,27.07C89.92-30.7,73-22.15,56.53-11.83S24.94,11.55,24.94,32.83c0,17.27,10.79,31,10.79,31S26.44,46.6,29.8,28.64c3.3-17.72,13.4-27.25,35.81-40C91.63-26.14,114.56-38.35,114.56-55.61ZM1.9,50.6c-12.83-21.19-8.59-44-2-51.84-8.3,8.3-14.44,27.66-7.83,45.83C-2.68,58.94,8.71,69.16,23,80.05c8.67,6.61,13.62,14.25,14.36,22.3C40.23,78.8,14.52,71.47,1.9,50.6ZM22.21,93.88a20.74,20.74,0,0,1,8,1.53C23.31,87.47,4.3,90.28,4.3,103.1a11.29,11.29,0,0,0,11.37,11.52c8.85,0,11.83-9.39,6.22-13.93a5.23,5.23,0,0,1-4.14,8.51,6.4,6.4,0,0,1-6.3-6.48C11.45,96.47,17.24,93.88,22.21,93.88Z"/><path class="cls-4" d="M101.63,64.93c5.74-.84,9.31-10.62,7.42-18.47C114.71,55.17,113.52,70.53,101.63,64.93Z"/><path class="cls-4" d="M13.21,127.2c-5.31,2.34-13.52-4-16.1-11.7C-3,125.89,6.12,138.27,13.21,127.2Z"/></pattern><clipPath id="clip-path"><rect class="cls-1" x="64.92" y="199.08" width="250" height="87"/></clipPath><clipPath id="clip-path-2"><rect class="cls-1" x="160.77" y="96.14" width="144.8" height="139.04"/></clipPath><linearGradient id="linear-gradient-9" x1="-39727.92" y1="36105.95" x2="-39684.7" y2="36076.11" gradientTransform="translate(41510.34 -36345.56) scale(1.04 1.01)" xlink:href="#linear-gradient"/><linearGradient id="linear-gradient-10" x1="-39696.62" y1="36039.18" x2="-39618.19" y2="36039.18" gradientTransform="translate(41510.34 -36345.56) scale(1.04 1.01)" xlink:href="#linear-gradient"/><clipPath id="clip-path-3"><rect class="cls-1" x="15.97" y="96.14" width="144.8" height="139.04"/></clipPath><linearGradient id="linear-gradient-11" x1="-39588.91" y1="36105.95" x2="-39545.68" y2="36076.11" gradientTransform="translate(41365.54 -36345.56) scale(1.04 1.01)" xlink:href="#linear-gradient"/><linearGradient id="linear-gradient-12" x1="-39557.61" y1="36039.18" x2="-39479.18" y2="36039.18" gradientTransform="translate(41365.54 -36345.56) scale(1.04 1.01)" xlink:href="#linear-gradient"/><linearGradient id="linear-gradient-13" x1="-39727.92" y1="36105.95" x2="-39684.7" y2="36076.11" gradientTransform="translate(41365.54 -36345.56) scale(1.04 1.01)" xlink:href="#linear-gradient"/><linearGradient id="linear-gradient-14" x1="-39696.62" y1="36039.18" x2="-39618.19" y2="36039.18" gradientTransform="translate(41365.54 -36345.56) scale(1.04 1.01)" xlink:href="#linear-gradient"/></defs><title>design_projects</title><g class="cls-11"><g id="Layer_2" data-name="Layer 2"><rect class="cls-12" x="6.92" y="5.08" width="237" height="139"/><rect class="cls-13" x="-0.08" y="0.08" width="250" height="87"/><rect class="cls-14" x="-0.08" y="0.08" width="250" height="87"/><g class="cls-15"><g class="cls-16"><g class="cls-17"><path class="cls-18" d="M160.69,94.88c-6.89,8-11.3,31,2.06,52.45,13.15,21.11,39.93,28.52,36.92,52.35-2.12-5.64-8.79-8.57-15.76-8.57-5.18,0-11.21,2.61-11.21,8.94a6.57,6.57,0,0,0,6.56,6.55,5.28,5.28,0,0,0,4.31-8.6c2.63.94,5.27,3.41,5.27,8.4,0,5.58-5.27,11.43-14.16,11.43s-17.51-7.46-17.51-17.2c0-15.5,17.4-21,28.69-15.74-13.16-11.49-40.12-1.81-48.08-25.71a12,12,0,0,0,10.4,4.11c-4.06-2-8.31-6-10.89-12.47-4.07-10.15-1.63-15.8-8.18-21.94a36.14,36.14,0,0,1,19,16.23C143.52,130,137.72,118.88,122.93,110c9.6,1.87,14.66,3.91,22.65,10.67C147.48,108.24,152,102.34,160.69,94.88Z"/><path class="cls-19" d="M207.14,197.33c-2.77-22.87-18-28-32.49-43.11C155.9,134.66,157,107.53,166,93.1c-2.2,14.46.53,27.74,9.61,39.12-5.3-17.32-4.39-35.53,4.35-49.56-1.24,9.35-1,14.42,2.06,22.89.92-18.22,8.89-31,23.8-42-6,9.75-9,22.27-7.32,32.23C205,69.6,223.52,58.38,236.72,54.65A39.18,39.18,0,0,0,228.2,73.1c9.76-19.79,28.92-22.57,39.36-28.67,7.51-4.39,4.39-12.49-.17-12.49-2.47,0-3.9,1.39-5.34,4.05,1-5.31,4.56-8,8.34-8,5.53,0,9.71,5.31,9.71,11.85,0,17.47-23.88,29.82-51,44.79-23.34,12.89-33.85,22.52-37.3,40.44-3.49,18.18,6.18,35.56,6.18,35.56s-8.91-29.94,4.82-48.42C215.31,95.42,234.41,88,252,78c19.48-11.13,37.37-22.89,32-42,9.85,9.56,13.25,24.56,5.5,33.78-10,11.84-29.71,14.4-37.53,22,13.7-6.72,26.27-4.16,36.15-8,9.71-3.77,9.61-14.45,9.61-14.45,4,13.46,0,29-16,34.67-16.81,6-36.17-1.76-53.54,7.78,18.63-6.28,40.26-3.22,52.22,16-4.75-4.61-13.85-6.22-20.87-6.22,16.25,8.82,14.36,32.07-.5,36.58,0,0,4.79-3.29,4.79-11.65,0-11.21-10.18-20.58-29.19-20.58-12.89,0-23.9,5.31-28.65,14.09,5.14-5.87,13.83-10,23.57-10,13.86,0,19.33,9.9,19.45,17.66.13,8.17-5.31,13.76-9.84,16.13,5.95-6.39,1.26-15.12-7.09-15.12-12.14,0-17.17,14.29-14.88,26,2.79-9.95,8.25-15.13,18.31-16.9-7.32,5.69-10.06,11.5-8.92,21.12,6.42-13.79,19.22-6.89,25.17-20.67,1.43,7.64.12,19.2-11.25,24.56C227.8,188.79,217.21,186,207.14,197.33Z"/><path class="cls-4" d="M226.6,178.89c-1.14-9.62,1.6-15.43,8.92-21.12-10.06,1.77-15.52,6.95-18.31,16.9-2.29-11.72,2.74-26,14.88-26,8.35,0,13,8.73,7.09,15.12,8.46-6.2,7-20.33-3.16-24.3-8-3.12-22.77-.07-27.46,14.67-4.76,15,6.85,25.44-1.42,43.18,10.07-11.33,20.66-8.54,33.38-14.55,11.37-5.36,12.68-16.92,11.25-24.56C245.82,172,233,165.1,226.6,178.89Zm53.82-51.12c-4.75-4.61-13.85-6.22-20.87-6.22,16.25,8.82,14.36,32.07-.5,36.58,0,0,4.79-3.29,4.79-11.65,0-11.21-10.18-20.58-29.19-20.58-12.89,0-23.9,5.31-28.65,14.09C209.81,111.35,260.47,105.05,280.42,127.77ZM281.74,104c-16.81,6-36.17-1.76-53.54,7.78,0,0,8.8-12.68,38.53-15.13,23.42-1.93,33.44-9.35,31-27.32C301.77,82.78,297.76,98.3,281.74,104Zm2.87-38.57c7.46-8.52,6.1-20.32-.58-29.43,9.85,9.56,13.25,24.56,5.5,33.78-10,11.84-29.71,14.4-37.53,22C260.93,77.88,274.32,77.18,284.61,65.42Zm-55.5,19.24c-23.34,12.89-33.85,22.52-37.3,40.44-3.49,18.18,6.18,35.56,6.18,35.56s-11.24-13.84-11.24-31.31c0-21.53,15.8-34.74,32.91-45.18s34.78-19.09,46.52-28.77c13.38-11,12.72-25.14,4.21-27.38,5.53,0,9.71,5.31,9.71,11.85C280.1,57.34,256.22,69.69,229.11,84.66Zm-29.44,115c-.77-8.15-5.93-15.87-15-22.57-14.86-11-26.73-21.34-32.18-35.87-6.88-18.38-.49-38,8.16-46.36-6.89,8-11.3,31,2.06,52.45C175.9,168.44,202.68,175.85,199.67,199.68Zm-27,.37a6.57,6.57,0,0,0,6.56,6.55,5.28,5.28,0,0,0,4.31-8.6c5.85,4.59,2.75,14.09-6.47,14.09a11.59,11.59,0,0,1-11.85-11.66c0-13,19.81-15.8,27-7.77a22.22,22.22,0,0,0-8.31-1.55C178.73,191.11,172.7,193.72,172.7,200.05Z"/></g><g class="cls-20"><path class="cls-21" d="M160.69,94.88c-6.89,8-11.3,31,2.06,52.45,13.15,21.11,39.93,28.52,36.92,52.35-2.12-5.64-8.79-8.57-15.76-8.57-5.18,0-11.21,2.61-11.21,8.94a6.57,6.57,0,0,0,6.56,6.55,5.28,5.28,0,0,0,4.31-8.6c2.63.94,5.27,3.41,5.27,8.4,0,5.58-5.27,11.43-14.16,11.43s-17.51-7.46-17.51-17.2c0-15.5,17.4-21,28.69-15.74-13.16-11.49-40.12-1.81-48.08-25.71a12,12,0,0,0,10.4,4.11c-4.06-2-8.31-6-10.89-12.47-4.07-10.15-1.63-15.8-8.18-21.94a36.14,36.14,0,0,1,19,16.23C143.52,130,137.72,118.88,122.93,110c9.6,1.87,14.66,3.91,22.65,10.67C147.48,108.24,152,102.34,160.69,94.88Z"/><path class="cls-22" d="M207.14,197.33c-2.77-22.87-18-28-32.49-43.11C155.9,134.66,157,107.53,166,93.1c-2.2,14.46.53,27.74,9.61,39.12-5.3-17.32-4.39-35.53,4.35-49.56-1.24,9.35-1,14.42,2.06,22.89.92-18.22,8.89-31,23.8-42-6,9.75-9,22.27-7.32,32.23C205,69.6,223.52,58.38,236.72,54.65A39.18,39.18,0,0,0,228.2,73.1c9.76-19.79,28.92-22.57,39.36-28.67,7.51-4.39,4.39-12.49-.17-12.49-2.47,0-3.9,1.39-5.34,4.05,1-5.31,4.56-8,8.34-8,5.53,0,9.71,5.31,9.71,11.85,0,17.47-23.88,29.82-51,44.79-23.34,12.89-33.85,22.52-37.3,40.44-3.49,18.18,6.18,35.56,6.18,35.56s-8.91-29.94,4.82-48.42C215.31,95.42,234.41,88,252,78c19.48-11.13,37.37-22.89,32-42,9.85,9.56,13.25,24.56,5.5,33.78-10,11.84-29.71,14.4-37.53,22,13.7-6.72,26.27-4.16,36.15-8,9.71-3.77,9.61-14.45,9.61-14.45,4,13.46,0,29-16,34.67-16.81,6-36.17-1.76-53.54,7.78,18.63-6.28,40.26-3.22,52.22,16-4.75-4.61-13.85-6.22-20.87-6.22,16.25,8.82,14.36,32.07-.5,36.58,0,0,4.79-3.29,4.79-11.65,0-11.21-10.18-20.58-29.19-20.58-12.89,0-23.9,5.31-28.65,14.09,5.14-5.87,13.83-10,23.57-10,13.86,0,19.33,9.9,19.45,17.66.13,8.17-5.31,13.76-9.84,16.13,5.95-6.39,1.26-15.12-7.09-15.12-12.14,0-17.17,14.29-14.88,26,2.79-9.95,8.25-15.13,18.31-16.9-7.32,5.69-10.06,11.5-8.92,21.12,6.42-13.79,19.22-6.89,25.17-20.67,1.43,7.64.12,19.2-11.25,24.56C227.8,188.79,217.21,186,207.14,197.33Z"/><path class="cls-4" d="M226.6,178.89c-1.14-9.62,1.6-15.43,8.92-21.12-10.06,1.77-15.52,6.95-18.31,16.9-2.29-11.72,2.74-26,14.88-26,8.35,0,13,8.73,7.09,15.12,8.46-6.2,7-20.33-3.16-24.3-8-3.12-22.77-.07-27.46,14.67-4.76,15,6.85,25.44-1.42,43.18,10.07-11.33,20.66-8.54,33.38-14.55,11.37-5.36,12.68-16.92,11.25-24.56C245.82,172,233,165.1,226.6,178.89Zm53.82-51.12c-4.75-4.61-13.85-6.22-20.87-6.22,16.25,8.82,14.36,32.07-.5,36.58,0,0,4.79-3.29,4.79-11.65,0-11.21-10.18-20.58-29.19-20.58-12.89,0-23.9,5.31-28.65,14.09C209.81,111.35,260.47,105.05,280.42,127.77ZM281.74,104c-16.81,6-36.17-1.76-53.54,7.78,0,0,8.8-12.68,38.53-15.13,23.42-1.93,33.44-9.35,31-27.32C301.77,82.78,297.76,98.3,281.74,104Zm2.87-38.57c7.46-8.52,6.1-20.32-.58-29.43,9.85,9.56,13.25,24.56,5.5,33.78-10,11.84-29.71,14.4-37.53,22C260.93,77.88,274.32,77.18,284.61,65.42Zm-55.5,19.24c-23.34,12.89-33.85,22.52-37.3,40.44-3.49,18.18,6.18,35.56,6.18,35.56s-11.24-13.84-11.24-31.31c0-21.53,15.8-34.74,32.91-45.18s34.78-19.09,46.52-28.77c13.38-11,12.72-25.14,4.21-27.38,5.53,0,9.71,5.31,9.71,11.85C280.1,57.34,256.22,69.69,229.11,84.66Zm-29.44,115c-.77-8.15-5.93-15.87-15-22.57-14.86-11-26.73-21.34-32.18-35.87-6.88-18.38-.49-38,8.16-46.36-6.89,8-11.3,31,2.06,52.45C175.9,168.44,202.68,175.85,199.67,199.68Zm-27,.37a6.57,6.57,0,0,0,6.56,6.55,5.28,5.28,0,0,0,4.31-8.6c5.85,4.59,2.75,14.09-6.47,14.09a11.59,11.59,0,0,1-11.85-11.66c0-13,19.81-15.8,27-7.77a22.22,22.22,0,0,0-8.31-1.55C178.73,191.11,172.7,193.72,172.7,200.05Z"/><path class="cls-23" d="M15.88,94.88c-6.88,8-11.29,31,2.06,52.45,13.15,21.11,39.94,28.52,36.93,52.35-2.12-5.64-8.8-8.57-15.76-8.57-5.19,0-11.22,2.61-11.22,8.94a6.57,6.57,0,0,0,6.57,6.55,5.28,5.28,0,0,0,4.31-8.6c2.63.94,5.27,3.41,5.27,8.4,0,5.58-5.28,11.43-14.16,11.43s-17.51-7.46-17.51-17.2c0-15.5,17.39-21,28.69-15.74C27.9,173.4.94,183.08-7,159.18a12,12,0,0,0,10.4,4.11c-4.06-2-8.31-6-10.89-12.47-4.08-10.15-1.63-15.8-8.18-21.94a36.21,36.21,0,0,1,19,16.23C-1.28,130-7.08,118.88-21.87,110c9.6,1.87,14.65,3.91,22.65,10.67C2.67,108.24,7.2,102.34,15.88,94.88Z"/><path class="cls-24" d="M62.34,197.33c-2.77-22.87-18-28-32.5-43.11C11.1,134.66,12.15,107.53,21.15,93.1c-2.21,14.46.53,27.74,9.61,39.12-5.31-17.32-4.4-35.53,4.35-49.56-1.24,9.35-1,14.42,2.06,22.89.91-18.22,8.89-31,23.8-42C55,73.29,52,85.81,53.64,95.77c6.6-26.17,25.07-37.39,38.28-41.12A39.2,39.2,0,0,0,83.39,73.1c9.77-19.79,28.92-22.57,39.37-28.67,7.51-4.39,4.39-12.49-.17-12.49-2.48,0-3.91,1.39-5.34,4.05,1-5.31,4.56-8,8.33-8,5.54,0,9.72,5.31,9.72,11.85,0,17.47-23.89,29.82-51,44.79C61,97.55,50.45,107.18,47,125.1c-3.5,18.18,6.18,35.56,6.18,35.56S44.27,130.72,58,112.24C70.51,95.42,89.61,88,107.22,78c19.48-11.13,37.37-22.89,32-42,9.85,9.56,13.25,24.56,5.49,33.78-10,11.84-29.71,14.4-37.53,22,13.71-6.72,26.28-4.16,36.16-8C153.06,80,153,69.32,153,69.32c4,13.46,0,29-16,34.67-16.81,6-36.18-1.76-53.55,7.78,18.63-6.28,40.26-3.22,52.23,16-4.75-4.61-13.86-6.22-20.87-6.22,16.25,8.82,14.36,32.07-.5,36.58,0,0,4.78-3.29,4.78-11.65,0-11.21-10.18-20.58-29.19-20.58C77,125.9,66,131.21,61.2,140c5.14-5.87,13.83-10,23.57-10,13.86,0,19.33,9.9,19.45,17.66.12,8.17-5.31,13.76-9.84,16.13,5.94-6.39,1.26-15.12-7.1-15.12-12.13,0-17.17,14.29-14.87,26,2.78-9.95,8.25-15.13,18.31-16.9-7.32,5.69-10.06,11.5-8.93,21.12C88.21,165.1,101,172,107,158.22c1.43,7.64.12,19.2-11.25,24.56C83,188.79,72.41,186,62.34,197.33Z"/><path class="cls-4" d="M81.79,178.89c-1.13-9.62,1.61-15.43,8.93-21.12-10.06,1.77-15.53,6.95-18.31,16.9-2.3-11.72,2.74-26,14.87-26,8.36,0,13,8.73,7.1,15.12,8.46-6.2,7-20.33-3.16-24.3-8-3.12-22.78-.07-27.46,14.67-4.76,15,6.85,25.44-1.42,43.18C72.41,186,83,188.79,95.72,182.78c11.37-5.36,12.68-16.92,11.25-24.56C101,172,88.21,165.1,81.79,178.89Zm53.83-51.12c-4.75-4.61-13.86-6.22-20.87-6.22,16.25,8.82,14.36,32.07-.5,36.58,0,0,4.78-3.29,4.78-11.65,0-11.21-10.18-20.58-29.19-20.58C77,125.9,66,131.21,61.2,140,65,111.35,115.67,105.05,135.62,127.77ZM136.94,104c-16.81,6-36.18-1.76-53.55,7.78,0,0,8.8-12.68,38.54-15.13,23.41-1.93,33.44-9.35,31-27.32C157,82.78,153,98.3,136.94,104Zm2.87-38.57c7.46-8.52,6.1-20.32-.58-29.43,9.85,9.56,13.25,24.56,5.49,33.78-10,11.84-29.71,14.4-37.53,22C116.12,77.88,129.51,77.18,139.81,65.42ZM84.31,84.66C61,97.55,50.45,107.18,47,125.1c-3.5,18.18,6.18,35.56,6.18,35.56S42,146.82,42,129.35c0-21.53,15.79-34.74,32.91-45.18s34.78-19.09,46.52-28.77c13.38-11,12.72-25.14,4.2-27.38,5.54,0,9.72,5.31,9.72,11.85C135.3,57.34,111.41,69.69,84.31,84.66Zm-29.44,115c-.77-8.15-5.93-15.87-15-22.57-14.86-11-26.74-21.34-32.18-35.87-6.89-18.38-.49-38,8.15-46.36-6.88,8-11.29,31,2.06,52.45C31.09,168.44,57.88,175.85,54.87,199.68Zm-27,.37a6.57,6.57,0,0,0,6.57,6.55,5.28,5.28,0,0,0,4.31-8.6c5.84,4.59,2.74,14.09-6.48,14.09a11.6,11.6,0,0,1-11.85-11.66c0-13,19.81-15.8,27-7.77a22.25,22.25,0,0,0-8.31-1.55C33.92,191.11,27.89,193.72,27.89,200.05Z"/><path class="cls-4" d="M121.83,161.82c6-.85,9.7-10.74,7.74-18.68C135.46,152,134.22,167.49,121.83,161.82Z"/></g></g></g></g><g id="Layer_1" data-name="Layer 1"><text class="cls-25" transform="translate(7.18 147.82) scale(1.02 1)">projects</text><text class="cls-26" transform="translate(8.52 89.83) scale(0.99 1)">design</text></g></g></svg>