<svg xmlns="http://www.w3.org/2000/svg" viewBox="0 0 498.72 501.25"><defs><style>.cls-1,.cls-5{fill:#46b29d;}.cls-1,.cls-2{stroke:#324d5c;stroke-linecap:square;stroke-linejoin:round;stroke-width:70.33px;}.cls-2{fill:#324d5c;}.cls-3{fill:#e37b40;}.cls-4{fill:#f0ca4d;}</style></defs><title>Asset 1</title><g id="Layer_2" data-name="Layer 2"><g id="Layer_1-2" data-name="Layer 1"><path class="cls-1" d="M145.88,301.55,189.63,137c4.54-17.06,3.38-20.85-8.81-24.09L125.15,98.08c-11.78-3.13-16.6-1.37-18.55,6a53.55,53.55,0,0,0-1.83,13.43l52.85,12.32-44,165.37c-10.15,38.2-23.23,46.47-48.42,39.77a95.4,95.4,0,0,1-20.78-8.57c-.11.4-9.28,20.15-9.28,20.15a83.91,83.91,0,0,0,24.93,11C109.25,370.56,134,346.24,145.88,301.55Z"/><path class="cls-1" d="M283.41,97.37c7-26.29,5.2-32.13-13.58-37.12l-85.75-22.8c-18.15-4.83-25.57-2.11-28.57,9.15a82.64,82.64,0,0,0-2.82,20.7l81.4,19L166.36,341c-15.65,58.83-35.79,71.57-74.59,61.25a146.4,146.4,0,0,1-32-13.2c-.16.63-14.29,31.05-14.29,31.05C55.12,426.68,68.85,433,83.87,437,159.6,457.15,197.7,419.7,216,350.85Z"/><path class="cls-2" d="M380.15,78.78S342.48,61.09,309,77.46C283.48,97.09,201.52,459.88,205.8,460l48,.89,19.62-81.92,120.43,2.23,10.82,56.09c4.55,24,10.71,28.44,31.3,28.82,10,.19,21.25-1.44,27.54-4.4C463.55,461.67,399.87,87.21,380.15,78.78ZM281.58,345.31,337,116.67l7.49.14-39,154.64Z"/><path class="cls-3" d="M113.35,99.39A53.7,53.7,0,0,1,115.18,86c1.95-7.31,6.77-9.08,18.55-5.94l55.67,14.8c12.19,3.24,13.35,7,8.82,24.1L154.46,283.47c-11.89,44.7-36.62,69-85.79,55.94a84.24,84.24,0,0,1-24.92-11s9.16-19.75,9.27-20.16a94.91,94.91,0,0,0,20.78,8.57c25.19,6.7,38.27-1.57,48.42-39.76l44-165.38Z"/><path class="cls-4" d="M161.27,49.22a82.56,82.56,0,0,1,2.82-20.69c3-11.27,10.42-14,28.57-9.16l85.75,22.8C297.19,47.17,299,53,292,79.29l-67.4,253.48c-18.31,68.85-56.41,106.3-132.14,86.16-15-4-28.75-10.32-38.39-16.91,0,0,14.12-30.42,14.28-31a146.63,146.63,0,0,0,32,13.21c38.8,10.31,58.94-2.42,74.59-61.26L242.68,68.19Z"/><path class="cls-5" d="M417.29,418.17l-10.82-56.08-120.42-2.23-19.62,81.92-48.05-.89c-1.87,0,100.15-371,103.22-382.5s52.39-7.84,71.13,1.32S476.14,442.6,476.14,442.6c-6.3,2.95-17.57,4.58-27.55,4.4C428,446.62,421.84,442.2,417.29,418.17ZM294.16,326.23l106.07,2L357.07,97.73l-7.49-.14Z"/></g></g></svg>
