<svg id="Layer_1" data-name="Layer 1" xmlns="http://www.w3.org/2000/svg" viewBox="0 0 256.67 49.33"><defs><style>.cls-1{fill:#707070;}.cls-2{isolation:isolate;}.cls-3{fill:#f0ca4d;}.cls-4{fill:#93c03d;}.cls-5{fill:#f7b131;}.cls-6{fill:#00a099;}.cls-7{fill:#e3087e;}.cls-8{fill:#1e71b7;}.cls-9{fill:#fff;}</style></defs><title>logo</title><path class="cls-1" d="M11,46.4a6,6,0,0,1-2.48-2.35,6.78,6.78,0,0,1-.89-3.49V38.42A.3.3,0,0,1,8,38.08h2.59a.3.3,0,0,1,.34.34V40.6a3.76,3.76,0,0,0,1,2.75,3.64,3.64,0,0,0,2.74,1.06,3.63,3.63,0,0,0,3.81-3.81V23.48a.3.3,0,0,1,.34-.34h2.59a.3.3,0,0,1,.34.34V40.56a6.78,6.78,0,0,1-.89,3.49,6.11,6.11,0,0,1-2.48,2.35,7.89,7.89,0,0,1-3.71.83A7.8,7.8,0,0,1,11,46.4Z"/><path class="cls-1" d="M28.31,46.4a6.11,6.11,0,0,1-2.48-2.35,6.78,6.78,0,0,1-.89-3.49V38.42a.3.3,0,0,1,.34-.34h2.59a.3.3,0,0,1,.34.34V40.6a3.76,3.76,0,0,0,1,2.75A3.65,3.65,0,0,0,32,44.41,3.62,3.62,0,0,0,35.8,40.6V23.48a.3.3,0,0,1,.34-.34h2.59a.3.3,0,0,1,.34.34V40.56a6.78,6.78,0,0,1-.89,3.49A6,6,0,0,1,35.7,46.4a7.86,7.86,0,0,1-3.71.83A7.83,7.83,0,0,1,28.31,46.4Z"/><path class="cls-1" d="M55.47,46.66l-1-3.95c0-.07-.06-.1-.17-.1H46.79a.16.16,0,0,0-.17.1l-1,3.95c0,.2-.14.3-.37.3H42.57a.3.3,0,0,1-.25-.1.31.31,0,0,1,0-.27l6.29-23.15a.35.35,0,0,1,.38-.3h3.2a.34.34,0,0,1,.37.3l6.33,23.15,0,.1c0,.18-.12.27-.34.27H55.85A.35.35,0,0,1,55.47,46.66ZM47.36,40a.17.17,0,0,0,.12.05H53.6a.17.17,0,0,0,.12-.05s0-.06,0-.09l-3.1-12.25s0-.07-.07-.07,0,0-.07.07L47.34,39.88S47.32,39.93,47.36,40Z"/><path class="cls-1" d="M62.48,45.48a5.88,5.88,0,0,1-2-4.61v-.95a.3.3,0,0,1,.34-.34h2.52a.3.3,0,0,1,.34.34v.78a3.46,3.46,0,0,0,1.12,2.67,4.26,4.26,0,0,0,3,1,3.88,3.88,0,0,0,2.77-.94,3.19,3.19,0,0,0,1-2.46,3.07,3.07,0,0,0-.51-1.77,5.27,5.27,0,0,0-1.48-1.4c-.64-.43-1.59-1-2.84-1.63a35.17,35.17,0,0,1-3.3-1.94,7.22,7.22,0,0,1-2-2.15A5.68,5.68,0,0,1,60.61,29a5.68,5.68,0,0,1,1.87-4.49,7.25,7.25,0,0,1,4.94-1.63,8.48,8.48,0,0,1,3.81.81A6.16,6.16,0,0,1,73.77,26a6.47,6.47,0,0,1,.9,3.42v.78a.3.3,0,0,1-.34.34H71.78a.31.31,0,0,1-.35-.34v-.71a3.63,3.63,0,0,0-1.08-2.72,4.12,4.12,0,0,0-3-1.06,3.74,3.74,0,0,0-2.59.85,3.09,3.09,0,0,0-1,2.42,3,3,0,0,0,.48,1.73A4.9,4.9,0,0,0,65.7,32c.62.41,1.56.94,2.81,1.6,1.56.89,2.75,1.61,3.57,2.18a7.12,7.12,0,0,1,2,2.07,5.52,5.52,0,0,1,.77,3A6,6,0,0,1,72.9,45.5a7.47,7.47,0,0,1-5.18,1.73A7.61,7.61,0,0,1,62.48,45.48Z"/><path class="cls-1" d="M90,23.14H92.6a.3.3,0,0,1,.34.34V46.62a.3.3,0,0,1-.34.34H90a.3.3,0,0,1-.34-.34V36.55a.13.13,0,0,0-.14-.14H82.12a.13.13,0,0,0-.14.14V46.62a.3.3,0,0,1-.34.34H79.06a.3.3,0,0,1-.34-.34V23.48a.3.3,0,0,1,.34-.34h2.58a.3.3,0,0,1,.34.34v10a.13.13,0,0,0,.14.14h7.42a.13.13,0,0,0,.14-.14v-10A.3.3,0,0,1,90,23.14Z"/><path class="cls-1" d="M100.65,46.37a6.21,6.21,0,0,1-2.55-2.45,7.3,7.3,0,0,1-.9-3.66V29.81a6.64,6.64,0,0,1,2-5.06,8.29,8.29,0,0,1,10.5,0,6.54,6.54,0,0,1,2,5V30a.36.36,0,0,1-.1.27.33.33,0,0,1-.24.1l-2.58.14a.31.31,0,0,1-.35-.34v-.51a4.05,4.05,0,0,0-6.82-2.86,3.83,3.83,0,0,0-1.1,2.86V40.46a3.83,3.83,0,0,0,1.1,2.86,3.92,3.92,0,0,0,2.88,1.09,3.73,3.73,0,0,0,3.94-3.95V40a.31.31,0,0,1,.35-.34l2.58.14c.23,0,.34.09.34.27v.31a7.14,7.14,0,0,1-.9,3.61,6.09,6.09,0,0,1-2.54,2.41,8,8,0,0,1-3.77.85A8.15,8.15,0,0,1,100.65,46.37Z"/><path class="cls-1" d="M126.94,46.69l-4-10.21a.13.13,0,0,0-.13-.1h-3.61c-.09,0-.14,0-.14.13V46.62a.3.3,0,0,1-.34.34h-2.59a.3.3,0,0,1-.34-.34V23.44a.31.31,0,0,1,.34-.34h7.63A6,6,0,0,1,128.37,25a6.89,6.89,0,0,1,1.74,4.9,6.88,6.88,0,0,1-1.06,3.89A5.56,5.56,0,0,1,126.13,36c-.07,0-.09.08-.07.17l4.18,10.34,0,.14c0,.18-.1.27-.31.27h-2.65A.38.38,0,0,1,126.94,46.69Zm-7.86-20.63v7.63c0,.09,0,.13.14.13h4.12a3.24,3.24,0,0,0,2.53-1.07,4,4,0,0,0,1-2.84,4.25,4.25,0,0,0-1-2.89,3.22,3.22,0,0,0-2.55-1.09h-4.12C119.13,25.93,119.08,26,119.08,26.06Z"/><path class="cls-1" d="M146.48,46.66l-1-3.95c0-.07-.06-.1-.17-.1H137.8c-.09,0-.15,0-.17.1l-1,3.95c0,.2-.15.3-.38.3h-2.65a.33.33,0,0,1-.26-.1.34.34,0,0,1,0-.27l6.3-23.15a.34.34,0,0,1,.37-.3h3.2a.35.35,0,0,1,.38.3l6.33,23.15,0,.1c0,.18-.11.27-.34.27h-2.69A.34.34,0,0,1,146.48,46.66ZM138.36,40a.18.18,0,0,0,.12.05h6.13a.21.21,0,0,0,.12-.05s0-.06,0-.09l-3.09-12.25s-.05-.07-.07-.07-.05,0-.07.07l-3.17,12.25S138.33,39.93,138.36,40Z"/><path class="cls-1" d="M166.59,26h-9.83a.13.13,0,0,0-.14.14v7.35a.13.13,0,0,0,.14.14h6.46a.3.3,0,0,1,.34.34v2.14a.3.3,0,0,1-.34.34h-6.46a.13.13,0,0,0-.14.14V46.62a.3.3,0,0,1-.34.34h-2.59a.3.3,0,0,1-.34-.34V23.48a.3.3,0,0,1,.34-.34h12.9a.3.3,0,0,1,.34.34v2.14A.3.3,0,0,1,166.59,26Z"/><path class="cls-1" d="M183.57,23.48v2.18a.3.3,0,0,1-.34.34h-5.47c-.1,0-.14,0-.14.13V46.62a.3.3,0,0,1-.34.34h-2.59a.3.3,0,0,1-.34-.34V26.13c0-.09,0-.13-.13-.13H169a.31.31,0,0,1-.34-.34V23.48a.3.3,0,0,1,.34-.34h14.26A.3.3,0,0,1,183.57,23.48Z"/><path class="cls-1" d="M185.7,46.28a2.34,2.34,0,0,1-.66-1.7,2.17,2.17,0,0,1,.71-1.63,2.32,2.32,0,0,1,3.3,0,2.15,2.15,0,0,1,.72,1.63,2.26,2.26,0,0,1-.7,1.68,2.29,2.29,0,0,1-1.68.7A2.24,2.24,0,0,1,185.7,46.28Z"/><path class="cls-1" d="M197,46.37a6.21,6.21,0,0,1-2.55-2.45,7.3,7.3,0,0,1-.9-3.66V29.81a6.64,6.64,0,0,1,2-5.06,8.29,8.29,0,0,1,10.5,0,6.51,6.51,0,0,1,2,5V30a.36.36,0,0,1-.1.27.33.33,0,0,1-.24.1l-2.58.14a.3.3,0,0,1-.34-.34v-.51a3.9,3.9,0,0,0-1.09-2.86,3.86,3.86,0,0,0-2.86-1.09A3.92,3.92,0,0,0,198,26.78a3.87,3.87,0,0,0-1.1,2.86V40.46a3.87,3.87,0,0,0,1.1,2.86,3.92,3.92,0,0,0,2.88,1.09,3.86,3.86,0,0,0,2.86-1.09,3.9,3.9,0,0,0,1.09-2.86V40a.3.3,0,0,1,.34-.34l2.58.14c.23,0,.34.09.34.27v.31a7.14,7.14,0,0,1-.9,3.61,6.07,6.07,0,0,1-2.53,2.41,8,8,0,0,1-3.78.85A8.18,8.18,0,0,1,197,46.37Z"/><path class="cls-1" d="M215.11,46.37a6.41,6.41,0,0,1-2.57-2.54,7.51,7.51,0,0,1-.92-3.78v-10a7.45,7.45,0,0,1,.92-3.75,6.39,6.39,0,0,1,2.57-2.53,7.85,7.85,0,0,1,3.83-.9,8,8,0,0,1,3.84.9,6.37,6.37,0,0,1,2.59,2.53,7.55,7.55,0,0,1,.92,3.75v10a7.61,7.61,0,0,1-.92,3.78,6.4,6.4,0,0,1-2.59,2.54,8,8,0,0,1-3.84.9A7.85,7.85,0,0,1,215.11,46.37Zm6.79-3.12A4.24,4.24,0,0,0,223,40.19V30a4.39,4.39,0,0,0-1.12-3.1,3.9,3.9,0,0,0-3-1.19A3.85,3.85,0,0,0,216,26.88a4.34,4.34,0,0,0-1.12,3.1V40.19A4.24,4.24,0,0,0,216,43.24a3.87,3.87,0,0,0,2.93,1.17A4,4,0,0,0,221.9,43.25Z"/><path class="cls-1" d="M230.64,46.62V23.48a.3.3,0,0,1,.34-.34h2.59a.41.41,0,0,1,.41.24l4.63,9.49a.1.1,0,0,0,.1.07.1.1,0,0,0,.1-.07l4.66-9.49a.41.41,0,0,1,.41-.24h2.59a.3.3,0,0,1,.34.34V46.62a.3.3,0,0,1-.34.34h-2.59a.3.3,0,0,1-.34-.34V30.42c0-.07,0-.1,0-.1a.19.19,0,0,0-.12.07l-3.64,7.35a.4.4,0,0,1-.41.24h-1.16a.38.38,0,0,1-.4-.24l-3.68-7.39c-.05,0-.08-.06-.12-.05s-.05.05-.05.12v16.2a.3.3,0,0,1-.34.34H231A.3.3,0,0,1,230.64,46.62Z"/><g class="cls-2"><path class="cls-3" d="M66.16,27.5c0,.28,0,.43-.1.53a.84.84,0,0,1-.5.16l-.89.06-1.31.09-.46,0-.47,0-.49,0-.5,0-.34-.05-.34-.08a3.4,3.4,0,0,1-.34-.12l-.33-.14-.54-.29L59,27.44l-.52-.35L58,26.74a2.91,2.91,0,0,1,.33-.26l.35-.23L59,26a3.14,3.14,0,0,1,.37-.18,5,5,0,0,1,.49-.2,4.34,4.34,0,0,1,.48-.14l.47-.1a3.44,3.44,0,0,1,.46,0,2.43,2.43,0,0,1,.27,0,2.48,2.48,0,0,1,.27,0l.27,0,.26.07a5.41,5.41,0,0,1,.83.32c.28.13.58.29.9.47l1,.58Z"/><path class="cls-4" d="M62,28.78c-.71.2-1.41.37-2.07.49a10.92,10.92,0,0,1-1.89.21h-.51a3.55,3.55,0,0,1-.47-.06,3,3,0,0,1-.83-.25c0-.11,0-.21,0-.32l0-.32,0-.31c0-.11,0-.21,0-.32s.05-.36.08-.55.06-.37.1-.57l.09-.6c0-.21.06-.43.08-.65l.45.14.43.2c.14.08.28.16.41.25s.27.18.4.27a6.12,6.12,0,0,1,.5.39l.5.39.5.37.51.33.32.16.33.14.33.11.34.08a4.63,4.63,0,0,0,1.06,0"/><path class="cls-5" d="M50.53,6.28c1.45,1.59,2.93,3.25,4.29,4.9s2.59,3.24,3.64,4.74A38.77,38.77,0,0,1,61,20a18.27,18.27,0,0,1,1.37,3.2c.08.27.15.53.2.76a5.74,5.74,0,0,1,.1.65,2.64,2.64,0,0,1,0,.55,3.48,3.48,0,0,1,0,.47l-.27-.07-.27-.05-.27,0h-.27a3.57,3.57,0,0,0-.46,0l-.47.09a4.42,4.42,0,0,0-.48.15c-.16.05-.32.12-.49.19,0-.17-.06-.34-.09-.53s0-.38-.06-.58,0-.41,0-.62l0-.68c0-.31,0-.63,0-1s-.05-.68-.09-1.05-.09-.74-.16-1.14-.16-.81-.27-1.24c-.07-.26-.15-.52-.23-.79s-.18-.53-.28-.8-.22-.55-.34-.82-.24-.55-.38-.83a23.72,23.72,0,0,0-1.42-2.51c-.53-.85-1.13-1.69-1.77-2.53s-1.3-1.64-2-2.42S51.16,7,50.53,6.28Z"/><path class="cls-6" d="M56.38,23.9c0,.2.07.39.09.59s0,.38.06.57,0,.37,0,.55,0,.35,0,.52,0,.45,0,.66,0,.41,0,.61,0,.38-.05.57,0,.37,0,.55,0,.22,0,.32,0,.21,0,.32v.32c0,.1,0,.21,0,.32,0,.32,0,.66.06,1s.09.79.16,1.28.18,1,.32,1.7.32,1.42.56,2.33a2.9,2.9,0,0,1-1.36,1,2.07,2.07,0,0,1-1.64-.22,4.55,4.55,0,0,1-1.59-1.68,8.64,8.64,0,0,1-1-2.89c-.06-.33-.09-.67-.12-1s0-.68,0-1,0-.67.07-1,.09-.65.15-1,.27-.44.41-.65l.42-.58c.14-.18.28-.36.43-.52s.29-.33.44-.48.49-.47.73-.67.47-.4.7-.58l.68-.51Z"/><path class="cls-7" d="M54.3,11.5c.33.36.65.72,1,1.09s.6.74.88,1.12.55.74.8,1.12.5.74.73,1.11.26.55.38.83.23.55.34.82.19.54.28.8.16.53.23.79c.11.43.2.84.27,1.24s.12.78.16,1.14.07.72.09,1.05,0,.66,0,1l-.38-.28c-.13-.11-.26-.21-.39-.33s-.26-.23-.39-.36-.27-.25-.41-.39l-.57-.56q-.28-.3-.6-.6l-.68-.64-.77-.66c-.17-.13-.35-.27-.54-.4s-.37-.27-.58-.4-.41-.27-.64-.4-.46-.27-.71-.4c-.74-.4-1.59-.8-2.6-1.24S48,16,46.71,15.44s-2.84-1.23-4.45-2a44.09,44.09,0,0,1-5.12-3,14.22,14.22,0,0,1,5-3.25,9,9,0,0,1,4.61-.44,10.49,10.49,0,0,1,4,1.68A19.63,19.63,0,0,1,54.3,11.5Z"/><path class="cls-8" d="M57.9,22.22a3.94,3.94,0,0,1-.31.48,4.82,4.82,0,0,1-.36.43,5.18,5.18,0,0,1-.41.4c-.14.13-.29.25-.44.37l-.64.49-.68.51c-.23.18-.46.37-.7.58s-.49.43-.73.67-.29.31-.44.48-.29.34-.43.52l-.42.58c-.14.21-.28.42-.41.65a17.73,17.73,0,0,0-1.16,2.27c-.38.86-.75,1.81-1.11,2.82s-.74,2.11-1.12,3.21-.77,2.25-1.19,3.33a33.64,33.64,0,0,1-.62-4.69,31.67,31.67,0,0,1,.05-4.86,24.4,24.4,0,0,1,.95-5,17,17,0,0,1,2-4.35,10.35,10.35,0,0,1,.75-1,10.73,10.73,0,0,1,.78-.84,7.67,7.67,0,0,1,.79-.66,6.46,6.46,0,0,1,.78-.47c.25.13.49.27.71.4s.44.27.64.4.4.27.58.4.37.27.54.4l.77.66.68.64q.32.3.6.6Z"/></g><ellipse class="cls-9" cx="57.93" cy="24.71" rx="2.22" ry="2.63"/><ellipse cx="58.2" cy="24.31" rx="1.82" ry="2.15" transform="translate(-1.25 3.23) rotate(-3.15)"/></svg>