<svg id="Layer_1" data-name="Layer 1" xmlns="http://www.w3.org/2000/svg" viewBox="0 0 256.67 49.33"><defs><style>.cls-1{fill:#fff;}.cls-2{isolation:isolate;}.cls-3{fill:#f0ca4d;}.cls-4{fill:#93c03d;}.cls-5{fill:#e37b40;}.cls-6{fill:#00a099;}.cls-7{fill:#f53855;}.cls-8{fill:#46b29d;}</style></defs><title>logo_ol</title><rect x="-8" y="-4" width="272.67" height="62"/><path class="cls-1" d="M50.16,34.46a5,5,0,0,1-1.41-3.68V28.73a.26.26,0,0,1,.29-.28h.28a.26.26,0,0,1,.29.28v2.08a4.14,4.14,0,0,0,1.18,3.08,4.72,4.72,0,0,0,6.2,0,4.14,4.14,0,0,0,1.19-3.08V16a.24.24,0,0,1,.28-.28h.29A.25.25,0,0,1,59,16v14.8a4.92,4.92,0,0,1-1.42,3.68,5.69,5.69,0,0,1-7.45,0Z"/><path class="cls-1" d="M64.17,34.46a5,5,0,0,1-1.41-3.68V28.73a.25.25,0,0,1,.28-.28h.29a.25.25,0,0,1,.28.28v2.08a4.18,4.18,0,0,0,1.18,3.08,4.74,4.74,0,0,0,6.21,0,4.14,4.14,0,0,0,1.18-3.08V16a.24.24,0,0,1,.28-.28h.29A.24.24,0,0,1,73,16v14.8a4.92,4.92,0,0,1-1.42,3.68,5.67,5.67,0,0,1-7.44,0Z"/><path class="cls-1" d="M88,35.4l-1.11-4c0-.05-.06-.08-.14-.08H79.13a.14.14,0,0,0-.15.08l-1.11,4a.28.28,0,0,1-.31.22H77.3a.29.29,0,0,1-.21-.08.25.25,0,0,1,0-.23L82.4,15.93a.28.28,0,0,1,.31-.23h.43a.28.28,0,0,1,.31.23l5.41,19.38,0,.09c0,.15-.1.22-.29.22h-.25A.29.29,0,0,1,88,35.4Zm-8.78-4.91a.18.18,0,0,0,.1,0h7.2a.15.15,0,0,0,.1,0s0-.06,0-.08L83,17.18a.07.07,0,0,0-.07-.06.1.1,0,0,0-.07.06L79.24,30.41S79.22,30.46,79.25,30.49Z"/><path class="cls-1" d="M92.67,34.5a4.66,4.66,0,0,1-1.48-3.6v-.77a.26.26,0,0,1,.29-.29h.25a.26.26,0,0,1,.29.29v.74a4,4,0,0,0,1.25,3.06,4.78,4.78,0,0,0,3.36,1.15A4.56,4.56,0,0,0,99.86,34a4.31,4.31,0,0,0,.67-5A5.29,5.29,0,0,0,99,27.43a27.31,27.31,0,0,0-2.79-1.71A30.45,30.45,0,0,1,93.46,24,5.39,5.39,0,0,1,92,22.42a4.55,4.55,0,0,1-.56-2.34,4.33,4.33,0,0,1,1.34-3.41,5.26,5.26,0,0,1,3.64-1.2,5.48,5.48,0,0,1,3.93,1.35,4.76,4.76,0,0,1,1.42,3.63v.71c0,.19-.09.29-.28.29h-.28a.26.26,0,0,1-.29-.29v-.65a4.08,4.08,0,0,0-1.21-3.1,4.57,4.57,0,0,0-3.31-1.17,4.32,4.32,0,0,0-3,1,3.61,3.61,0,0,0-1.11,2.84A3.54,3.54,0,0,0,92.69,22,4.64,4.64,0,0,0,94,23.37c.59.41,1.49.94,2.7,1.61a25.25,25.25,0,0,1,3,1.86,6.07,6.07,0,0,1,1.62,1.77,4.47,4.47,0,0,1,.56,2.29,4.75,4.75,0,0,1-1.41,3.6,5.4,5.4,0,0,1-3.89,1.35A5.62,5.62,0,0,1,92.67,34.5Z"/><path class="cls-1" d="M116.27,15.7h.28c.19,0,.29.09.29.28V35.34c0,.19-.1.28-.29.28h-.28a.24.24,0,0,1-.28-.28v-9.2c0-.07,0-.11-.12-.11h-8.51a.1.1,0,0,0-.11.11v9.2c0,.19-.1.28-.29.28h-.28c-.19,0-.29-.09-.29-.28V16c0-.19.1-.28.29-.28H107c.19,0,.29.09.29.28v9.17a.1.1,0,0,0,.11.11h8.51c.08,0,.12,0,.12-.11V16A.24.24,0,0,1,116.27,15.7Z"/><path class="cls-1" d="M123.34,34.41a5.09,5.09,0,0,1-1.46-3.8V20.68a5.06,5.06,0,0,1,1.46-3.79,6,6,0,0,1,7.72,0,5,5,0,0,1,1.46,3.76V21c0,.19-.09.29-.28.29H132c-.19,0-.28-.09-.28-.26v-.37a4.21,4.21,0,0,0-1.23-3.16,5,5,0,0,0-6.49,0,4.24,4.24,0,0,0-1.22,3.16V30.67a4.3,4.3,0,0,0,1.22,3.2,5,5,0,0,0,6.49,0,4.27,4.27,0,0,0,1.23-3.2v-.31c0-.19.09-.29.28-.29l.29,0c.19,0,.28.09.28.26v.28a5,5,0,0,1-1.46,3.77,5.89,5.89,0,0,1-7.72,0Z"/><path class="cls-1" d="M147.12,35.4l-4-9.37A.11.11,0,0,0,143,26h-4.64c-.08,0-.12,0-.12.11v9.28a.24.24,0,0,1-.28.28h-.29a.24.24,0,0,1-.28-.28V15.93c0-.19.09-.29.28-.29h5.44a4.41,4.41,0,0,1,3.4,1.42,5.4,5.4,0,0,1,1.3,3.76,5.37,5.37,0,0,1-1,3.39,4.29,4.29,0,0,1-2.73,1.65c-.1,0-.12.09-.09.14l4,9.28,0,.12c0,.15-.09.22-.26.22h-.25A.31.31,0,0,1,147.12,35.4Zm-8.88-18.85v8.51a.11.11,0,0,0,.12.12h4.75A3.53,3.53,0,0,0,145.9,24a4.65,4.65,0,0,0,1-3.15,4.65,4.65,0,0,0-1-3.17,3.5,3.5,0,0,0-2.79-1.21h-4.75C138.28,16.44,138.24,16.48,138.24,16.55Z"/><path class="cls-1" d="M162.44,35.4l-1.11-4a.14.14,0,0,0-.15-.08h-7.65c-.08,0-.13,0-.14.08l-1.12,4a.27.27,0,0,1-.31.22h-.25a.29.29,0,0,1-.22-.08.25.25,0,0,1,0-.23l5.35-19.38a.28.28,0,0,1,.31-.23h.43a.27.27,0,0,1,.31.23l5.41,19.38,0,.09c0,.15-.09.22-.28.22h-.26A.27.27,0,0,1,162.44,35.4Zm-8.78-4.91a.15.15,0,0,0,.1,0H161a.21.21,0,0,0,.1,0s0-.06,0-.08l-3.64-13.23a.1.1,0,0,0-.07-.06.09.09,0,0,0-.08.06l-3.64,13.23S153.63,30.46,153.66,30.49Z"/><path class="cls-1" d="M177.27,16.5h-9c-.08,0-.11,0-.11.11v8.54a.1.1,0,0,0,.11.11h6.23a.26.26,0,0,1,.29.29v.2c0,.19-.1.28-.29.28H168.3a.1.1,0,0,0-.11.11v9.2c0,.19-.1.28-.29.28h-.28c-.19,0-.29-.09-.29-.28V16c0-.19.1-.28.29-.28h9.65a.24.24,0,0,1,.28.28v.23C177.55,16.4,177.46,16.5,177.27,16.5Z"/><path class="cls-1" d="M190.5,16v.23c0,.19-.09.29-.28.29h-4.81c-.08,0-.12,0-.12.11V35.34a.24.24,0,0,1-.28.28h-.29a.24.24,0,0,1-.28-.28V16.61a.1.1,0,0,0-.11-.11H179.8a.26.26,0,0,1-.29-.29V16c0-.19.1-.28.29-.28h10.42A.24.24,0,0,1,190.5,16Z"/><path class="cls-1" d="M193.38,35.08a1.24,1.24,0,0,1-.35-.88,1.22,1.22,0,0,1,.35-.87,1.07,1.07,0,0,1,.82-.35,1.1,1.1,0,0,1,.83.35,1.21,1.21,0,0,1,.34.87,1.23,1.23,0,0,1-.34.88,1.09,1.09,0,0,1-.83.37A1.05,1.05,0,0,1,193.38,35.08Z"/><path class="cls-1" d="M201.1,34.41a5.09,5.09,0,0,1-1.46-3.8V20.68a5.06,5.06,0,0,1,1.46-3.79,6,6,0,0,1,7.72,0,5,5,0,0,1,1.46,3.76V21c0,.19-.09.29-.28.29h-.29c-.19,0-.28-.09-.28-.26v-.37a4.24,4.24,0,0,0-1.22-3.16,5,5,0,0,0-6.49,0,4.21,4.21,0,0,0-1.23,3.16V30.67a4.27,4.27,0,0,0,1.23,3.2,5,5,0,0,0,6.49,0,4.3,4.3,0,0,0,1.22-3.2v-.31c0-.19.09-.29.28-.29l.29,0c.19,0,.28.09.28.26v.28a5,5,0,0,1-1.46,3.77,5.89,5.89,0,0,1-7.72,0Z"/><path class="cls-1" d="M217.06,35.17a4.87,4.87,0,0,1-1.91-1.91,5.63,5.63,0,0,1-.68-2.82V20.91a5.67,5.67,0,0,1,.68-2.83,4.86,4.86,0,0,1,1.91-1.93,5.65,5.65,0,0,1,2.79-.68,5.83,5.83,0,0,1,2.83.68,4.88,4.88,0,0,1,1.92,1.93,5.67,5.67,0,0,1,.68,2.83v9.53a5.63,5.63,0,0,1-.68,2.82,4.9,4.9,0,0,1-1.92,1.91,5.83,5.83,0,0,1-2.83.68A5.65,5.65,0,0,1,217.06,35.17Zm6.1-1.38a4.48,4.48,0,0,0,1.27-3.32V20.88a4.35,4.35,0,0,0-4.58-4.61,4.43,4.43,0,0,0-3.28,1.26,4.58,4.58,0,0,0-1.25,3.35v9.59a4.54,4.54,0,0,0,1.25,3.32,4.43,4.43,0,0,0,3.28,1.26A4.49,4.49,0,0,0,223.16,33.79Z"/><path class="cls-1" d="M230.35,35.34V16a.24.24,0,0,1,.28-.28H231a.33.33,0,0,1,.34.2L236,25.12a.1.1,0,0,0,.09.06s.06,0,.08-.06L241,15.9a.33.33,0,0,1,.35-.2h.34A.24.24,0,0,1,242,16V35.34a.24.24,0,0,1-.28.28h-.29a.24.24,0,0,1-.28-.28V17.78c0-.06,0-.09,0-.09a.14.14,0,0,0-.1.06l-4.39,8.45a.33.33,0,0,1-.34.2h-.17a.33.33,0,0,1-.34-.2l-4.41-8.48a.18.18,0,0,0-.1-.06s-.05,0-.05.09V35.34a.24.24,0,0,1-.28.28h-.29A.24.24,0,0,1,230.35,35.34Z"/><g class="cls-2"><path class="cls-3" d="M43.82,29.47c0,.3,0,.48-.11.58a.91.91,0,0,1-.55.18l-1,.06c-.4,0-.88.06-1.43.11l-.51,0-.53,0-.54,0-.54,0a2.32,2.32,0,0,1-.38-.06,2.62,2.62,0,0,1-.38-.09l-.37-.13a2.83,2.83,0,0,1-.36-.16,4.19,4.19,0,0,1-.59-.32L36,29.4,35.38,29c-.19-.13-.38-.26-.58-.38l.36-.29.39-.25c.13-.08.26-.16.4-.23a3.11,3.11,0,0,1,.41-.2c.18-.08.36-.16.54-.22a5.16,5.16,0,0,1,.52-.16,5.27,5.27,0,0,1,.52-.1,2.92,2.92,0,0,1,.51,0c.1,0,.2,0,.3,0l.3,0,.29,0,.29.08a5.81,5.81,0,0,1,.91.35c.31.14.64.32,1,.52s.71.41,1.1.63S43.41,29.25,43.82,29.47Z"/><path class="cls-4" d="M39.21,30.88q-1.18.33-2.28.54a12.24,12.24,0,0,1-2.08.23h-.57l-.52-.07a2.57,2.57,0,0,1-.48-.11,3.16,3.16,0,0,1-.43-.16c0-.12,0-.24,0-.36l0-.34c0-.12,0-.24,0-.35s0-.24,0-.36.06-.39.09-.6.07-.41.11-.62.07-.44.1-.67.06-.47.09-.72a4.83,4.83,0,0,1,.5.16l.47.22.45.27.44.3.56.43.54.43c.18.14.36.28.55.41s.37.25.57.36a2.91,2.91,0,0,0,.35.18l.36.16.37.12.37.08a5,5,0,0,0,1.17.06"/><path class="cls-5" d="M26.59,6.07c1.6,1.75,3.23,3.59,4.73,5.41s2.85,3.56,4,5.22a44.45,44.45,0,0,1,2.81,4.54,20.31,20.31,0,0,1,1.5,3.54c.09.29.16.57.22.83s.09.49.12.71,0,.43,0,.61a4.07,4.07,0,0,1,0,.52l-.3-.08-.29-.05-.3,0h-.3a2.92,2.92,0,0,0-.51,0,3.06,3.06,0,0,0-.51.1,5.34,5.34,0,0,0-.53.16q-.27.09-.54.21c0-.18-.07-.38-.1-.58s-.05-.42-.07-.64,0-.45,0-.69,0-.49,0-.74,0-.7,0-1.07,0-.76-.1-1.16-.1-.82-.18-1.26a12.94,12.94,0,0,0-.3-1.36c-.07-.29-.16-.58-.25-.87s-.2-.59-.31-.89-.24-.6-.37-.9-.27-.61-.42-.92A27.88,27.88,0,0,0,32.9,14c-.59-.93-1.25-1.86-1.95-2.78S29.51,9.36,28.77,8.5,27.29,6.82,26.59,6.07Z"/><path class="cls-6" d="M33,25.5c0,.22.08.43.11.64s0,.43.06.63,0,.41,0,.61,0,.39,0,.58,0,.49,0,.72,0,.46-.05.68l-.06.63c0,.2,0,.4-.05.6s0,.24,0,.36,0,.23,0,.35,0,.23,0,.35,0,.23,0,.35c0,.36,0,.73.07,1.14s.1.88.18,1.42.19,1.15.35,1.87S33.93,38,34.2,39a3.16,3.16,0,0,1-1.5,1.09,2.26,2.26,0,0,1-1.82-.24A5,5,0,0,1,29.14,38,9.53,9.53,0,0,1,28,34.81c-.06-.36-.1-.73-.13-1.1s0-.74,0-1.11,0-.74.08-1.1.09-.72.16-1.07.3-.48.45-.7.31-.44.47-.65.31-.39.47-.57.32-.36.49-.53a9.11,9.11,0,0,1,.8-.74q.39-.34.78-.63l.74-.57C32.58,25.86,32.81,25.68,33,25.5Z"/><path class="cls-7" d="M30.75,11.83c.36.4.71.8,1.05,1.21s.66.81,1,1.22.61.83.89,1.24.55.81.8,1.22.29.61.42.92.26.6.37.9.21.59.31.89.18.58.25.87a12.94,12.94,0,0,1,.3,1.36q.12.66.18,1.26c.05.4.08.79.1,1.16s0,.73,0,1.07L36,24.83l-.43-.35-.44-.4-.45-.43L34.09,23l-.67-.66c-.24-.23-.48-.47-.74-.7s-.55-.48-.86-.73-.38-.3-.59-.45l-.64-.44-.7-.44-.79-.44c-.81-.44-1.75-.88-2.86-1.36s-2.4-1-3.86-1.64-3.13-1.35-4.91-2.24a48.38,48.38,0,0,1-5.64-3.29,15.6,15.6,0,0,1,5.56-3.57,9.9,9.9,0,0,1,5.07-.49,11.54,11.54,0,0,1,4.4,1.85A21.8,21.8,0,0,1,30.75,11.83Z"/><path class="cls-8" d="M34.71,23.65a3.58,3.58,0,0,1-.34.52,4.54,4.54,0,0,1-.39.48l-.45.44c-.16.14-.32.28-.5.41s-.45.36-.7.54l-.74.57q-.39.29-.78.63A9.11,9.11,0,0,0,30,28c-.17.17-.33.34-.49.53s-.32.37-.47.57-.31.42-.47.65-.3.46-.45.7a23.39,23.39,0,0,0-1.28,2.51c-.42,1-.82,2-1.22,3.11s-.82,2.33-1.23,3.54-.86,2.47-1.31,3.67a36.07,36.07,0,0,1-.69-5.17,34.39,34.39,0,0,1,.06-5.36,27.34,27.34,0,0,1,1-5.47,18.92,18.92,0,0,1,2.18-4.79c.27-.41.55-.78.83-1.13a9.6,9.6,0,0,1,.86-.92,8,8,0,0,1,.87-.73,7.29,7.29,0,0,1,.86-.52l.79.44.7.44.64.44c.21.15.4.3.59.45s.59.49.86.73.5.47.74.7l.67.66Z"/></g><ellipse class="cls-1" cx="34.75" cy="26.39" rx="2.45" ry="2.9"/><ellipse cx="35.05" cy="25.96" rx="2" ry="2.37" transform="translate(-1.37 1.96) rotate(-3.15)"/></svg>