<svg id="Layer_1" data-name="Layer 1" xmlns="http://www.w3.org/2000/svg" viewBox="0 0 88 98"><defs><style>.cls-1{isolation:isolate;}.cls-2{fill:#f0ca4d;}.cls-3{fill:#93c03d;}.cls-4{fill:#e37b40;}.cls-5{fill:#00a099;}.cls-6{fill:#f53855;}.cls-7{fill:#46b29d;}.cls-8{fill:#fff;}</style></defs><title>logoicon</title><g class="cls-1"><path class="cls-2" d="M80.75,61.15c.11.72,0,1.13-.25,1.38a2.19,2.19,0,0,1-1.3.41c-.61.06-1.38.09-2.33.15s-2.1.14-3.39.25l-1.2.09c-.4,0-.82.07-1.24.09l-1.27.08c-.42,0-.85,0-1.29.06a10.17,10.17,0,0,1-1.77-.36,7,7,0,0,1-.88-.3c-.29-.11-.57-.24-.86-.37-.48-.23-.94-.49-1.39-.76s-.91-.57-1.36-.87l-1.36-.92c-.45-.31-.91-.62-1.38-.91.28-.23.56-.45.86-.67s.6-.41.91-.61.63-.37,1-.54.64-.32,1-.47.85-.36,1.27-.51.83-.27,1.24-.37a11,11,0,0,1,1.22-.25,9.68,9.68,0,0,1,1.19-.09c.24,0,.48,0,.71,0s.47,0,.7.07l.7.12q.34.07.69.18a14.76,14.76,0,0,1,2.14.82c.73.34,1.51.76,2.34,1.22s1.68,1,2.58,1.5S79.78,60.64,80.75,61.15Z"/><path class="cls-3" d="M69.89,64.47c-1.86.52-3.67,1-5.38,1.28a28.6,28.6,0,0,1-4.91.55c-.46,0-.9,0-1.33,0A11.49,11.49,0,0,1,57,66.12c-.4-.07-.77-.16-1.13-.26a7.56,7.56,0,0,1-1-.39c0-.28,0-.56,0-.84s0-.55.07-.82.05-.54.09-.82.06-.55.1-.83c.07-.47.14-.94.22-1.42s.16-1,.24-1.47.16-1,.24-1.58.15-1.11.22-1.69a9.82,9.82,0,0,1,1.16.38,11.38,11.38,0,0,1,1.12.52c.36.19.72.41,1.07.63s.69.47,1,.71.88.66,1.31,1l1.29,1q.63.5,1.29,1c.44.31.88.59,1.34.86.27.15.55.3.83.43a9,9,0,0,0,.85.36,8.63,8.63,0,0,0,.86.28c.3.08.59.15.89.2a10.86,10.86,0,0,0,2.75.13"/><path class="cls-4" d="M40.13,6c3.77,4.13,7.6,8.46,11.15,12.74S58,27.15,60.74,31.06a102.56,102.56,0,0,1,6.61,10.7,47.43,47.43,0,0,1,3.55,8.33c.21.7.38,1.36.51,2s.22,1.17.28,1.69a12.49,12.49,0,0,1,.08,1.44,9,9,0,0,1-.1,1.21c-.23-.07-.47-.13-.7-.18s-.46-.09-.69-.12-.46-.06-.7-.07-.47,0-.71,0a9.53,9.53,0,0,0-1.19.09c-.41.06-.81.14-1.22.24s-.83.23-1.25.38-.84.32-1.27.51c-.09-.44-.17-.9-.23-1.37s-.12-1-.16-1.51-.08-1.07-.11-1.63,0-1.15-.08-1.76c0-.8-.07-1.64-.13-2.51s-.12-1.78-.23-2.73-.23-1.94-.42-3-.41-2.1-.71-3.22c-.18-.68-.37-1.36-.6-2.05s-.46-1.39-.73-2.09S60,34,59.68,33.26s-.64-1.44-1-2.16A65.92,65.92,0,0,0,55,24.57c-1.39-2.19-3-4.38-4.6-6.55S47,13.74,45.26,11.71,41.77,7.77,40.13,6Z"/><path class="cls-5" d="M55.32,51.81c.11.5.19,1,.25,1.51s.11,1,.14,1.48,0,1,0,1.43,0,.92,0,1.37-.05,1.15-.09,1.7-.09,1.07-.14,1.59-.09,1-.13,1.49-.08.95-.12,1.42c0,.29,0,.56,0,.84s0,.55,0,.83,0,.54,0,.82,0,.55,0,.84c0,.83.08,1.71.17,2.69s.23,2.07.42,3.33.46,2.71.82,4.42.83,3.7,1.46,6.06a7.55,7.55,0,0,1-3.53,2.57,5.35,5.35,0,0,1-4.28-.58,11.61,11.61,0,0,1-4.11-4.36,22.25,22.25,0,0,1-2.59-7.51q-.21-1.29-.3-2.61c-.06-.87-.07-1.74,0-2.61s.08-1.73.17-2.58.23-1.7.39-2.52c.35-.58.71-1.14,1.07-1.67s.72-1,1.09-1.51.74-.93,1.12-1.37.76-.84,1.14-1.23c.64-.64,1.27-1.22,1.89-1.76s1.24-1,1.84-1.48,1.19-.9,1.76-1.33S54.79,52.23,55.32,51.81Z"/><path class="cls-6" d="M49.93,19.57c.86.93,1.69,1.88,2.49,2.84s1.55,1.93,2.29,2.9,1.42,1.93,2.09,2.9,1.29,1.93,1.88,2.89c.36.73.69,1.45,1,2.16s.6,1.43.86,2.13.51,1.4.73,2.09.42,1.37.6,2.05c.3,1.12.53,2.19.71,3.22s.32,2,.42,3,.18,1.86.23,2.73.09,1.71.13,2.51c-.32-.23-.65-.47-1-.73s-.67-.55-1-.84-.68-.61-1-.94l-1.07-1L57.81,46c-.51-.5-1-1-1.58-1.56s-1.13-1.09-1.75-1.65-1.29-1.13-2-1.71q-.66-.52-1.38-1c-.48-.35-1-.7-1.51-1s-1.08-.7-1.67-1-1.2-.69-1.84-1c-1.93-1-4.15-2.09-6.75-3.22s-5.67-2.39-9.11-3.85-7.37-3.19-11.58-5.3A116,116,0,0,1,5.33,16.78a37.14,37.14,0,0,1,13.1-8.44,23.36,23.36,0,0,1,12-1.14,27.32,27.32,0,0,1,10.38,4.35A51.74,51.74,0,0,1,49.93,19.57Z"/><path class="cls-7" d="M59.27,47.43a9.32,9.32,0,0,1-.79,1.24,12.39,12.39,0,0,1-.94,1.12c-.33.36-.68.7-1.06,1s-.75.66-1.16,1-1.08.84-1.65,1.27-1.16.86-1.76,1.33-1.22,1-1.84,1.48S48.82,57,48.18,57.65q-.57.59-1.14,1.23c-.38.44-.75.89-1.12,1.37s-.73,1-1.09,1.51-.72,1.09-1.07,1.67a51.46,51.46,0,0,0-3,5.91c-1,2.23-1.94,4.7-2.88,7.32S35.94,82.16,35,85s-2,5.84-3.09,8.66a89.63,89.63,0,0,1-1.62-12.19,82.4,82.4,0,0,1,.14-12.64A63.79,63.79,0,0,1,32.85,56,44.11,44.11,0,0,1,38,44.66,30,30,0,0,1,40,42a24,24,0,0,1,2-2.19A20.48,20.48,0,0,1,44,38.11a13.82,13.82,0,0,1,2-1.23c.64.34,1.26.69,1.84,1s1.14.69,1.67,1,1,.69,1.51,1,.94.7,1.38,1c.73.58,1.39,1.15,2,1.71s1.2,1.11,1.75,1.65S57.3,45.47,57.81,46Z"/></g><ellipse class="cls-8" cx="59.36" cy="53.9" rx="5.77" ry="6.83"/><ellipse cx="60.06" cy="52.87" rx="4.72" ry="5.59" transform="translate(-2.81 3.38) rotate(-3.15)"/></svg>