<svg xmlns="http://www.w3.org/2000/svg" xmlns:xlink="http://www.w3.org/1999/xlink" viewBox="0 0 250 150"><defs><style>.cls-1{fill:none;}.cls-2{fill:#303030;}.cls-3{opacity:0.35;}.cls-4{clip-path:url(#clip-path);}.cls-5{fill:#455757;}.cls-6{fill:#0eadb2;}.cls-7{fill:#b2137e;}.cls-8{fill:#ff35bd;}.cls-9{fill:#ffe864;}.cls-10{fill:#df509d;}</style><clipPath id="clip-path"><rect class="cls-1" x="-27.74" y="-19.92" width="305.48" height="213.83"/></clipPath></defs><title>muriels_ol</title><g id="Layer_1" data-name="Layer 1"><path class="cls-2" d="M-27.74-19.92H277.74V193.92H-27.74Z"/><g class="cls-3"><g class="cls-4"><path class="cls-5" d="M234.63,133.5a.7.7,0,0,0,1.38-.26.7.7,0,1,0-1.38.26Zm3.8-.72a.7.7,0,0,0,.82.56.71.71,0,0,0,.56-.83A.69.69,0,0,0,239,132,.7.7,0,0,0,238.43,132.78Zm.1-3.24a.71.71,0,0,0-.26-1.39.71.71,0,0,0,.26,1.39ZM237,131.8a.69.69,0,0,0,.56-.82.7.7,0,1,0-1.38.26A.69.69,0,0,0,237,131.8Zm-6-.82a.71.71,0,1,0-.82-.56A.7.7,0,0,0,230.93,131Zm3.8-.72a.7.7,0,0,0,.56-.82.71.71,0,1,0-.56.82Zm-3.91,4a.71.71,0,0,0,.83.56.7.7,0,1,0-.83-.56Zm2.33-1.7a.69.69,0,0,0,.56-.82.7.7,0,0,0-.82-.56.71.71,0,0,0-.56.83A.69.69,0,0,0,233.15,132.52ZM222.5,109.85s.87.71.63,2.7a.51.51,0,0,0,.44.56h.06a.51.51,0,0,0,.51-.44c.31-2.6-1-3.59-1-3.63a.51.51,0,1,0-.61.81Zm22.06,20.51a.7.7,0,1,0-.83-.56A.72.72,0,0,0,244.56,130.36Zm1.57-2.26a.71.71,0,0,0,.56-.83.7.7,0,0,0-.82-.56.71.71,0,0,0-.56.83A.7.7,0,0,0,246.13,128.1Zm-5.37,3a.69.69,0,0,0,.55-.82.7.7,0,1,0-.55.82Zm5.27.26a.7.7,0,1,0,.56-.83A.7.7,0,0,0,246,131.34Zm-3.7-2.52a.72.72,0,0,0,.56-.83.7.7,0,1,0-.56.83Zm-13,4.42a.7.7,0,0,0-.26-1.38.71.71,0,0,0-.56.83A.69.69,0,0,0,229.35,133.24Zm12.88-1.18a.7.7,0,0,0,.82.56.71.71,0,0,0,.56-.83.7.7,0,0,0-.82-.56A.71.71,0,0,0,242.23,132.06Zm9.41-15.84L226,110.75a3.78,3.78,0,0,0-.79-2.21,4.62,4.62,0,0,0-4.61-1.22c.23-2.48.66-10.34-3.09-12.74a.51.51,0,1,0-.55.85c2,1.26,2.56,4.55,2.72,7.09a31.81,31.81,0,0,1-.13,5,5.27,5.27,0,0,1-1,0c-1.18-.1-2.81-.23-3.72,2.23a6,6,0,0,0-.37,2.38c-.73.86-4,4.88-4.1,7.88-.05,1.31-.11,6.38-.16,11.84h0c-.07,7.6-.12,16-.12,16.11a.5.5,0,0,0,.18.39.49.49,0,0,0,.32.12h.1L251.57,141a.51.51,0,0,0,.42-.5l0-8a.59.59,0,0,0,0-.23s0,0,0,0l0-8.24h0v-7.33A.5.5,0,0,0,251.64,116.22Zm-35.78-6.1c.65-1.74,1.5-1.67,2.69-1.57a4.38,4.38,0,0,0,1.65-.07c1.3-.38,3-.64,4.32.76.72.74.69,3.17-.05,5-.22.55-.84,1.8-1.8,1.93a10.06,10.06,0,0,0-4.65-1H218a13.32,13.32,0,0,0-1.5.08A6.27,6.27,0,0,1,215.86,110.12Zm35.11,30-39.8,7.25c0-1.1,0-3.61.05-6.67L251,133.05Zm0-8.1-39.76,7.64c0-2.31,0-4.87.06-7.36L251,124.66Zm0-8.39-39.7,7.63c0-1.76,0-3.46.05-5a4,4,0,0,0,2.51-.65c.29-.23,1.11,0,1.84.24a4.08,4.08,0,0,0,2.91.21,4.26,4.26,0,0,0,1.55-1.61c.39-.57.72-1.08,1.26-1.19.28-.05.67,1.1.85,1.66.32,1,.67,2,1.46,2a1,1,0,0,0,.29,0c.76-.23,1-1.12,1.33-2.07s.58-1.88,1.24-2.1a4.52,4.52,0,0,1,2-.08,3,3,0,0,0,2.42-.4,3.92,3.92,0,0,1,2-.49,11.15,11.15,0,0,0,3.57-.83c1.11-.5,2.77-.2,4.24.06s2.89.52,3.71-.08c1.46-1.08,4.19-2.76,6.52-2.39Zm0-6.11c-2.51-.32-5.23,1.2-7.12,2.59-.47.35-1.73.12-2.94-.09-1.61-.29-3.43-.62-4.83,0a10,10,0,0,1-3.26.74,4.7,4.7,0,0,0-2.52.72c-.36.31-.86.27-1.65.18a5.36,5.36,0,0,0-2.43.12c-1.17.39-1.57,1.71-1.9,2.77a3.46,3.46,0,0,1-.6,1.37,5.67,5.67,0,0,1-.54-1.32c-.38-1.14-.84-2.57-2-2.34a3.16,3.16,0,0,0-1.91,1.62,3.33,3.33,0,0,1-1.17,1.26,3.63,3.63,0,0,1-2.16-.27c-1-.3-2-.62-2.75-.07a3,3,0,0,1-1.88.44c0-2.52.06-4.45.09-5.18.07-2.16,2.14-5.09,3.27-6.54a8.44,8.44,0,0,0,.66,1.82l-.45.1a.5.5,0,1,0,.24,1c.05,0,4.9-1.18,8,1.24a.52.52,0,0,0,.32.11.49.49,0,0,0,.39-.19.5.5,0,0,0-.08-.71l0,0a4.49,4.49,0,0,0,1.69-2.23,9,9,0,0,0,.64-2.83l25,5.34Zm-35.93,2.69-2.06-.06a.51.51,0,0,0-.52.5.5.5,0,0,0,.49.52l2.06,0h0a.51.51,0,0,0,0-1Zm4.36-2.52-1.83.66a.51.51,0,0,0-.3.65.5.5,0,0,0,.47.34.57.57,0,0,0,.18,0l1.83-.67a.51.51,0,0,0,.3-.65A.49.49,0,0,0,219.46,117.69Zm-3.74,16.17a.7.7,0,0,0,.56-.82.7.7,0,0,0-.82-.56.7.7,0,1,0,.26,1.38Zm-.1,3.24a.7.7,0,1,0,.56-.82A.7.7,0,0,0,215.62,137.1Zm9.61-18.22-1.45.78a.5.5,0,0,0-.2.68.48.48,0,0,0,.44.27.48.48,0,0,0,.24-.06l1.45-.78a.49.49,0,0,0,.2-.68A.5.5,0,0,0,225.23,118.88Zm3.28-3.63,1.66,1.16a.52.52,0,0,0,.29.09.51.51,0,0,0,.42-.21.52.52,0,0,0-.12-.71l-1.67-1.17a.51.51,0,0,0-.58.84ZM241.24,118a.52.52,0,0,0,.39.17.54.54,0,0,0,.33-.12.52.52,0,0,0,0-.72L240.84,116a.5.5,0,1,0-.76.66Zm-7.57.17,2.22,0h0a.49.49,0,0,0,.5-.49.5.5,0,0,0-.49-.52l-2.22-.06a.51.51,0,0,0-.52.5A.5.5,0,0,0,233.67,118.17Zm-14.15,15a.71.71,0,0,0-.26-1.39.72.72,0,0,0-.56.83A.7.7,0,0,0,219.52,133.14Zm3.7,2.52a.7.7,0,0,0,.82.56.69.69,0,0,0,.56-.82.7.7,0,1,0-1.38.26Zm2.33-1.7a.7.7,0,0,0-.26-1.38.71.71,0,0,0-.56.83A.69.69,0,0,0,225.55,134Zm-2.23-1.54a.7.7,0,0,0,.56-.82.7.7,0,0,0-.82-.56.7.7,0,1,0,.26,1.38Zm-5.37,3a.71.71,0,1,0-.83-.56A.71.71,0,0,0,218,135.41Zm9.17-3.71a.7.7,0,0,0,.56-.82.69.69,0,0,0-.82-.56.7.7,0,1,0,.26,1.38Zm-.1,3.24a.71.71,0,1,0,.56-.82A.71.71,0,0,0,227,134.94Zm-5.27-.25a.71.71,0,0,0,.56-.83.7.7,0,0,0-.83-.55.69.69,0,0,0-.55.82A.7.7,0,0,0,221.75,134.69Zm-2.33,1.69a.7.7,0,1,0,.56-.82A.7.7,0,0,0,219.42,136.38Z"/><path class="cls-5" d="M14.72,164.07a1,1,0,1,0,.82-1.2A1,1,0,0,0,14.72,164.07Zm5.55-1a1,1,0,1,0,.81-1.2A1,1,0,0,0,20.27,163Zm.14-4.73a1,1,0,1,0-1.2-.82A1,1,0,0,0,20.41,158.29Zm-2.29,3.31a1,1,0,0,0,.81-1.2,1,1,0,1,0-2,.38A1,1,0,0,0,18.12,161.6Zm-8.8-1.21a1,1,0,1,0-1.19-.82A1,1,0,0,0,9.32,160.39Zm5.55-1a1,1,0,0,0,.82-1.2,1,1,0,0,0-2,.38A1,1,0,0,0,14.87,159.34Zm-5.69,5.78a1,1,0,1,0,.81-1.2A1,1,0,0,0,9.18,165.12Zm3.39-2.47a1,1,0,1,0-1.2-.82A1,1,0,0,0,12.57,162.65ZM-3,129.58s1.27,1,.93,3.93a.74.74,0,0,0,.64.83h.09a.75.75,0,0,0,.74-.65c.44-3.78-1.43-5.24-1.51-5.3a.75.75,0,0,0-1,.15A.76.76,0,0,0-3,129.58ZM29.2,159.49a1,1,0,1,0-.38-2,1,1,0,1,0,.38,2Zm2.3-3.3a1,1,0,1,0-1.2-.82A1,1,0,0,0,31.5,156.19Zm-7.84,4.36a1,1,0,0,0,.82-1.2,1,1,0,1,0-.82,1.2Zm7.69.36a1,1,0,1,0,.82-1.2A1,1,0,0,0,31.35,160.91ZM26,157.24a1,1,0,1,0-1.2-.82A1,1,0,0,0,26,157.24ZM7,163.7a1,1,0,1,0-1.2-.82A1,1,0,0,0,7,163.7ZM25.81,162a1,1,0,1,0,.82-1.2A1,1,0,0,0,25.81,162Zm13.73-23.1-37.35-8A5.39,5.39,0,0,0,1,127.66a6.75,6.75,0,0,0-6.72-1.77c.34-3.61,1-15.08-4.51-18.58a.74.74,0,0,0-1,.22.73.73,0,0,0,.23,1c2.87,1.84,3.74,6.63,4,10.33a46.54,46.54,0,0,1-.19,7.37,8.27,8.27,0,0,1-1.39,0c-1.73-.14-4.1-.34-5.43,3.25a8.89,8.89,0,0,0-.55,3.47c-1.06,1.26-5.82,7.12-6,11.5-.07,1.91-.15,9.3-.22,17.26h0c-.1,11.08-.18,23.28-.19,23.49a.74.74,0,0,0,.27.57.73.73,0,0,0,.47.17h.14l59.52-10.86a.72.72,0,0,0,.61-.72l0-11.63a.78.78,0,0,0,0-.34s0,0,0-.05l0-12h0l0-10.69A.74.74,0,0,0,39.54,138.87ZM-12.65,130c.94-2.53,2.19-2.43,3.92-2.28a6.69,6.69,0,0,0,2.4-.1c1.9-.56,4.33-1,6.31,1.1,1,1.09,1,4.63-.07,7.29-.33.81-1.22,2.63-2.63,2.81a14.62,14.62,0,0,0-6.78-1.52h-.09c-.81,0-1.55,0-2.19.11A9.17,9.17,0,0,1-12.65,130Zm51.22,43.75-58,10.58c0-1.61,0-5.26.07-9.73l58-11.16Zm0-11.81-58,11.15c0-3.37.05-7.11.09-10.74l57.92-11.14Zm0-12.24-57.91,11.14c0-2.57.05-5.06.07-7.29a5.81,5.81,0,0,0,3.66-1c.43-.33,1.63,0,2.68.35,1.48.45,3,.91,4.25.29a6.17,6.17,0,0,0,2.27-2.33c.56-.84,1-1.58,1.83-1.73.41-.09,1,1.6,1.24,2.41.46,1.41,1,3,2.12,3a1.82,1.82,0,0,0,.44-.07c1.1-.34,1.5-1.64,1.93-3S2,148.72,3,148.4a6.57,6.57,0,0,1,2.92-.11c1.22.13,2.48.28,3.52-.6a6,6,0,0,1,2.88-.71,15.9,15.9,0,0,0,5.21-1.2c1.62-.74,4-.3,6.17.08s4.22.76,5.42-.12c2.13-1.57,6.11-4,9.51-3.48Zm0-8.9c-3.66-.47-7.61,1.74-10.38,3.78-.69.5-2.52.17-4.28-.15-2.35-.42-5-.9-7,0a14.87,14.87,0,0,1-4.75,1.08,6.71,6.71,0,0,0-3.68,1c-.53.45-1.26.39-2.41.26a7.91,7.91,0,0,0-3.55.18c-1.69.56-2.28,2.49-2.76,4a5,5,0,0,1-.87,2,7.75,7.75,0,0,1-.8-1.92c-.54-1.67-1.22-3.75-2.93-3.41a4.6,4.6,0,0,0-2.78,2.36,5,5,0,0,1-1.7,1.84c-.71.35-2,0-3.15-.39-1.47-.45-3-.91-4-.11a4.43,4.43,0,0,1-2.73.64c0-3.67.08-6.48.12-7.56.11-3.14,3.13-7.42,4.77-9.53a12.38,12.38,0,0,0,1,2.66,6.16,6.16,0,0,0-.66.14.73.73,0,0,0-.54.89.73.73,0,0,0,.89.54c.07,0,7.15-1.73,11.59,1.81a.74.74,0,0,0,.46.16.74.74,0,0,0,.58-.28.73.73,0,0,0-.12-1l-.05,0a6.47,6.47,0,0,0,2.47-3.24,13.07,13.07,0,0,0,.93-4.14l36.43,7.79Zm-52.4,3.92-3-.09a.74.74,0,0,0-.76.72.74.74,0,0,0,.72.76l3,.08h0a.73.73,0,0,0,.74-.72A.74.74,0,0,0-13.76,144.69ZM-7.39,141l-2.68,1a.74.74,0,0,0-.44,1,.73.73,0,0,0,.7.48.73.73,0,0,0,.25,0l2.67-1a.74.74,0,0,0,.45-.95A.75.75,0,0,0-7.39,141Zm-5.46,23.6a1,1,0,0,0,.82-1.2,1,1,0,0,0-1.2-.82,1,1,0,0,0-.82,1.2A1,1,0,0,0-12.85,164.6Zm-.15,4.72a1,1,0,0,0,1.2.82,1,1,0,0,0,.82-1.2,1,1,0,0,0-1.2-.82A1,1,0,0,0-13,169.32ZM1,142.75l-2.1,1.13a.74.74,0,0,0-.3,1,.74.74,0,0,0,.65.38.63.63,0,0,0,.35-.09l2.11-1.13a.74.74,0,0,0,.3-1A.75.75,0,0,0,1,142.75Zm4.79-5.3,2.43,1.7a.72.72,0,0,0,.42.13.74.74,0,0,0,.43-1.35l-2.43-1.7a.74.74,0,0,0-1,.19A.73.73,0,0,0,5.8,137.45Zm18.57,4a.75.75,0,0,0,.56.25.76.76,0,0,0,.49-.18.75.75,0,0,0,.07-1.05l-1.71-1.94a.73.73,0,0,0-1-.07.74.74,0,0,0-.07,1.05Zm-11,.25,3.24.08h0a.74.74,0,0,0,0-1.48l-3.24-.08a.74.74,0,0,0,0,1.48ZM-7.31,163.54a1,1,0,0,0,.82-1.19,1,1,0,0,0-1.2-.82,1,1,0,0,0-.82,1.2A1,1,0,0,0-7.31,163.54Zm5.4,3.68a1,1,0,0,0,1.2.82,1,1,0,0,0,.82-1.2,1,1,0,0,0-1.2-.82A1,1,0,0,0-1.91,167.22Zm3.39-2.47a1,1,0,1,0-1.2-.82A1,1,0,0,0,1.48,164.75Zm-3.24-2.26a1,1,0,0,0,.81-1.2,1,1,0,0,0-1.2-.81,1,1,0,0,0-.81,1.2A1,1,0,0,0-1.76,162.49Zm-7.85,4.36a1,1,0,0,0,.82-1.2,1,1,0,0,0-1.2-.82,1,1,0,0,0-.82,1.2A1,1,0,0,0-9.61,166.85Zm13.39-5.41a1,1,0,1,0-1.2-.82A1,1,0,0,0,3.78,161.44Zm-.15,4.73a1,1,0,1,0,.82-1.2A1,1,0,0,0,3.63,166.17Zm-7.69-.37a1,1,0,0,0,.82-1.2,1,1,0,0,0-1.2-.82,1,1,0,0,0-.82,1.2A1,1,0,0,0-4.06,165.8Zm-3.4,2.47a1,1,0,0,0,1.2.82,1,1,0,0,0,.82-1.2,1,1,0,0,0-1.2-.82A1,1,0,0,0-7.46,168.27Z"/><path class="cls-5" d="M23.32,105.29a.39.39,0,0,0,.3.13.38.38,0,0,0,.28-.11.42.42,0,0,0,0-.58l-1.07-1.16a.41.41,0,0,0-.61.55Zm7.82-9.86a.41.41,0,0,0,.36.45h.05a.41.41,0,0,0,.4-.37,3.71,3.71,0,0,0-.79-2.63.4.4,0,0,0-.58,0,.41.41,0,0,0,0,.58A2.87,2.87,0,0,1,31.14,95.43Zm2,4.27,1.68.72a.45.45,0,0,0,.16,0,.41.41,0,0,0,.16-.79L33.5,99a.41.41,0,1,0-.32.75Zm-11.57.81h0a.42.42,0,0,0,.41-.37l.18-1.63a.41.41,0,1,0-.82-.09l-.18,1.63A.41.41,0,0,0,21.61,100.51Zm-3.4,7.88a.41.41,0,0,0-.55-.18.4.4,0,0,0-.19.55l.52,1a.41.41,0,0,0,.37.22.39.39,0,0,0,.18,0,.41.41,0,0,0,.18-.55Zm23.57-.21a2.35,2.35,0,0,0-1-2.32,2,2,0,0,0-.36-.18,3.52,3.52,0,0,0,.12-.76,2.81,2.81,0,0,0-1.82-2.77,3.26,3.26,0,0,0,.34-.8c.2-.79.1-1.95-1.44-3-.34-1-1.74-2-4.24-2.85a4.08,4.08,0,0,0-1-3.23,2.92,2.92,0,0,0-3-.78,2.93,2.93,0,0,1-.76.15c-.2-3.07-.1-10.07,2.6-11.21a.41.41,0,0,0,.22-.54.4.4,0,0,0-.53-.22c-3.52,1.48-3.24,9.84-3.11,12l-.68-.09a4.08,4.08,0,0,0-2.11,0c-1.17.44-2.19,1.72-1.91,4.05C22.16,96,19.61,97.06,19,99a4.27,4.27,0,0,0-2.13,2.47,3.42,3.42,0,0,0-.68,3.59,1.58,1.58,0,0,0,.19.32,3.67,3.67,0,0,0-1.14,3.71,2.43,2.43,0,0,0,.51.89,3.61,3.61,0,0,0-.23,3.18c.07.9.75,10,1.62,13.27a1.58,1.58,0,0,0,.34.6.47.47,0,0,0,.14.14,6.2,6.2,0,0,0,2.54,1.18.33.33,0,0,0,.15,0,20.44,20.44,0,0,0,2.2.43h.07a42.33,42.33,0,0,0,5.89.39,42.33,42.33,0,0,0,5.89-.39h.07a18.26,18.26,0,0,0,2.2-.43.42.42,0,0,0,.15,0,6.27,6.27,0,0,0,2.54-1.18.93.93,0,0,0,.14-.14,1.62,1.62,0,0,0,.33-.6c.87-3.22,1.54-12.21,1.62-13.24a3.3,3.3,0,0,0-.4-3.58A3.1,3.1,0,0,0,41.78,108.18ZM25.29,92.34a3.36,3.36,0,0,1,1.7,0,9.62,9.62,0,0,0,1.24.13h0a4.26,4.26,0,0,0,1.41-.22,2.11,2.11,0,0,1,2.13.58,3.43,3.43,0,0,1,.76,2.88v0A9.43,9.43,0,0,1,32,97.83a10.16,10.16,0,0,0-4.43,1.85c-.65-.2-2.94-1.05-3.5-3.13C23.43,94,24.27,92.72,25.29,92.34Zm-5.54,7.32c.12-1.74,2.5-2.83,3.48-3.21,0,.1.06.21.08.31a5.57,5.57,0,0,0,3.49,3.51,8,8,0,0,0-.63.52.41.41,0,0,0,0,.58.39.39,0,0,0,.3.13.38.38,0,0,0,.28-.11s2.91-2.61,5.62-2.77h0a4.21,4.21,0,0,1,1.12.09.4.4,0,0,0,.49-.3.4.4,0,0,0-.3-.49,3.88,3.88,0,0,0-.75-.11,10.21,10.21,0,0,0,.38-1.49c3.2,1.15,3.64,2.11,3.6,2.6-.08,1.08-2.78,2.69-7,3.4-3.53.61-8-.12-9.59-1.54A1.39,1.39,0,0,1,19.75,99.66Zm-2.07,2.13A3.13,3.13,0,0,1,19,100a2.3,2.3,0,0,0,.79,1.35c1.36,1.23,4.34,2,7.4,2a17.31,17.31,0,0,0,2.88-.24,20.68,20.68,0,0,0,4.83-1.43c1.56-.71,2.49-1.49,2.76-2.32a1.74,1.74,0,0,1,.64,1.77c-.5,2-4.67,4.38-10.53,4.84-4.26.34-7.78-.6-9.4-2.51A2.08,2.08,0,0,1,17.68,101.79ZM17,102.85a4.08,4.08,0,0,0,.7,1.16c.78.91,3.06,2.87,8.28,2.87.57,0,1.17,0,1.82-.07,4.54-.36,8.63-2,10.4-4h0a2,2,0,0,1,1.49,2,2.73,2.73,0,0,1-.2,1,.51.51,0,0,0-.07.17c-.82,1.78-3.37,2.9-5.59,3.35-4.18.84-8.62-.37-10.9-1.16-3.63-1.28-5.71-2.8-6-3.44A2.41,2.41,0,0,1,17,102.85Zm-.53,11.44,0,0,.23,3C16.63,116.14,16.53,115.06,16.47,114.29Zm1.8,12.39-.93-12.22,1.2-.38.65,1.19.74,12.2A4.66,4.66,0,0,1,18.27,126.68Zm2.49,1L20,115.41l1.19-.53.76.72L22.22,128C21.7,127.89,21.21,127.8,20.76,127.69Zm2.28.41-.25-12.37,1.56-.44,1.16.84.26,12.22C24.79,128.29,23.88,128.21,23,128.1Zm7.39.29q-.93,0-1.92,0c-.66,0-1.3,0-1.93,0l-.26-12.21,2.19-.94,2.18.94ZM34,128.1c-.83.11-1.75.19-2.72.25l.26-12.22,1.15-.84,1.57.44Zm2.28-.41c-.44.11-.93.2-1.45.29l.25-12.38.75-.72,1.19.53Zm2.49-1a4.49,4.49,0,0,1-1.66.79l.74-12.2.65-1.19,1.2.38Zm1.54-9.33.23-3,0,0C40.48,115.06,40.39,116.14,40.28,117.35Zm.43-4.49-.73.84-1.58-.5a.42.42,0,0,0-.49.19l-.67,1.24L35.89,114a.4.4,0,0,0-.45.08l-.91.87-1.83-.52a.4.4,0,0,0-.35.06l-1.29.94-2.39-1a.44.44,0,0,0-.32,0l-2.38,1-1.29-.94a.4.4,0,0,0-.35-.06l-1.84.52-.9-.87a.4.4,0,0,0-.45-.08l-1.36.61-.67-1.24a.4.4,0,0,0-.48-.19l-1.58.5-.72-.82a2.82,2.82,0,0,1,.07-2.27c1.79,1.55,5.57,3.14,10.8,3.14a29.74,29.74,0,0,0,7.12-.91,15.34,15.34,0,0,0,6.15-2.63A2.5,2.5,0,0,1,40.71,112.86Zm-6.6-.81a24.86,24.86,0,0,1-12.83.09,10.91,10.91,0,0,1-4.65-2.4l-.07-.08h0a2,2,0,0,1-.48-.77A2.81,2.81,0,0,1,17,106a18.91,18.91,0,0,0,5.7,3,25.78,25.78,0,0,0,8.15,1.49,15.63,15.63,0,0,0,3.18-.3c3.51-.71,5.37-2.2,6.12-3.71a1.47,1.47,0,0,1,.83,1.06C41.09,108.14,41,110.35,34.11,112.05Zm-7.55-1.44-1.16.83a.41.41,0,0,0-.1.57.42.42,0,0,0,.34.17.39.39,0,0,0,.23-.07l1.17-.83a.41.41,0,0,0-.48-.67Zm12.76,1.08-1,.72a.41.41,0,0,0,.24.74.46.46,0,0,0,.25-.08l1-.72a.4.4,0,0,0,.08-.57A.41.41,0,0,0,39.32,111.69Zm-1.64-5.08a.39.39,0,0,0,.18,0,.41.41,0,0,0,.37-.22l.76-1.51a.41.41,0,0,0-.73-.37l-.76,1.51A.41.41,0,0,0,37.68,106.61Zm-4.42,1.81a.41.41,0,0,0,.58.07.4.4,0,0,0,.07-.57l-1-1.33a.41.41,0,0,0-.57-.07.42.42,0,0,0-.08.58Z"/><path class="cls-5" d="M238,68.91a.51.51,0,0,0,.35.19.52.52,0,0,0,.36-.1.5.5,0,0,0,.08-.71l-1.2-1.55a.52.52,0,0,0-.72-.09.5.5,0,0,0-.08.71Zm10.67-11.38a.51.51,0,0,0,.4.59h0a.51.51,0,0,0,.55-.41,4.66,4.66,0,0,0-.71-3.34.51.51,0,0,0-.82.6A3.67,3.67,0,0,1,248.65,57.53ZM250.73,63l2,1.06a.49.49,0,0,0,.2.05.5.5,0,0,0,.49-.27.51.51,0,0,0-.21-.68l-2-1.06a.5.5,0,0,0-.68.21A.51.51,0,0,0,250.73,63Zm-14.38-.18h.05a.51.51,0,0,0,.54-.41l.39-2a.51.51,0,1,0-1-.2l-.39,2A.51.51,0,0,0,236.35,62.83Zm-5,9.38a.51.51,0,1,0-.94.38l.53,1.33a.54.54,0,0,0,.43.32.59.59,0,0,0,.23,0,.5.5,0,0,0,.28-.66Zm29.15,2.16a2.91,2.91,0,0,0-1-3,1.86,1.86,0,0,0-.42-.25,4.12,4.12,0,0,0,.22-.94,3.45,3.45,0,0,0-2-3.6,4,4,0,0,0,.51-1c.33-1,.33-2.39-1.47-3.86-.32-1.32-2-2.63-5-4a5,5,0,0,0-.93-4.09,3.6,3.6,0,0,0-3.61-1.27,4,4,0,0,1-1,.11c.05-3.82.9-12.46,4.36-13.59a.51.51,0,0,0,.32-.64A.5.5,0,0,0,250,38c-4.49,1.47-5,11.83-5.05,14.45-.29,0-.56-.11-.84-.18a5.18,5.18,0,0,0-2.62-.16c-1.49.42-2.88,1.91-2.77,4.82-1.18.32-4.45,1.41-5.35,3.77a5.32,5.32,0,0,0-2.88,2.84,4.22,4.22,0,0,0-1.21,4.36,2.34,2.34,0,0,0,.2.43,4.54,4.54,0,0,0-1.79,4.45,3.07,3.07,0,0,0,.54,1.16,4.48,4.48,0,0,0-.6,3.91c0,1.11-.1,12.45.64,16.57a1.89,1.89,0,0,0,.36.76.58.58,0,0,0,.15.19,7.62,7.62,0,0,0,3,1.73.48.48,0,0,0,.18.06c.81.28,1.71.53,2.67.76l.09,0A51.74,51.74,0,0,0,241.94,99a52.78,52.78,0,0,0,7.32.13h.09a27,27,0,0,0,2.76-.31.58.58,0,0,0,.19,0,7.71,7.71,0,0,0,3.25-1.2.52.52,0,0,0,.19-.17,1.91,1.91,0,0,0,.48-.7c1.39-3.9,3.15-14.93,3.35-16.2a4.1,4.1,0,0,0-.13-4.46A3.82,3.82,0,0,0,260.49,74.37ZM241.73,53.11a4.21,4.21,0,0,1,2.1.17,13.41,13.41,0,0,0,1.53.29h0a5.1,5.1,0,0,0,1.76-.12,2.62,2.62,0,0,1,2.58.93,4.26,4.26,0,0,1,.65,3.63.11.11,0,0,0,0,.05,11.65,11.65,0,0,1-.83,2.52,12.68,12.68,0,0,0-5.67,1.84c-.78-.32-3.53-1.6-4-4.22C239.26,55,240.44,53.47,241.73,53.11Zm-7.59,8.48c.33-2.14,3.37-3.25,4.63-3.61,0,.13,0,.26.07.39a6.88,6.88,0,0,0,3.95,4.69c-.49.31-.79.54-.84.58a.51.51,0,0,0-.09.71.53.53,0,0,0,.36.2.52.52,0,0,0,.35-.11s3.86-2.93,7.24-2.84h0a5,5,0,0,1,1.38.22.51.51,0,0,0,.64-.33.5.5,0,0,0-.33-.63,5,5,0,0,0-.91-.21,13.21,13.21,0,0,0,.61-1.8c3.85,1.74,4.28,3,4.19,3.57-.21,1.33-3.71,3-9,3.5-4.44.38-9.9-1-11.7-2.9A1.73,1.73,0,0,1,234.14,61.59ZM231.36,64a3.94,3.94,0,0,1,1.76-2,2.92,2.92,0,0,0,.84,1.75c1.56,1.66,5.17,2.89,8.94,3.2a20.5,20.5,0,0,0,3.59,0,26.31,26.31,0,0,0,6.12-1.27c2-.72,3.22-1.59,3.64-2.58a2.16,2.16,0,0,1,.62,2.25c-.82,2.38-6.22,4.93-13.51,4.91-5.3,0-9.55-1.54-11.36-4.07A2.61,2.61,0,0,1,231.36,64Zm-.94,1.24a4.9,4.9,0,0,0,.75,1.5c.87,1.21,3.48,3.86,9.93,4.4.7,0,1.45.09,2.25.09,5.66,0,10.87-1.56,13.27-3.83h0a2.44,2.44,0,0,1,1.63,2.67,3.45,3.45,0,0,1-.33,1.16.49.49,0,0,0-.11.2c-1.19,2.11-4.46,3.23-7.25,3.56-5.25.62-10.62-1.33-13.35-2.55-4.36-1.94-6.77-4-7-4.85A3,3,0,0,1,230.42,65.25Zm-1.83,14.08,0,.06,0,3.75C228.6,81.64,228.59,80.29,228.59,79.33Zm1,15.49.1-15.19,1.53-.35.68,1.54L231.52,96A5.75,5.75,0,0,1,229.55,94.82Zm3,1.51.34-15.25,1.52-.54.86,1-.95,15.32C233.66,96.67,233.07,96.51,232.53,96.33Zm2.77.73.95-15.3,2-.39,1.34,1.15-.93,15.13C237.45,97.48,236.32,97.28,235.3,97.06Zm9.1,1.11c-.77,0-1.56-.08-2.38-.15s-1.6-.15-2.37-.24l.93-15.1,2.79-1,2.6,1.39Zm4.41,0q-1.58.07-3.39,0L247,83.14l1.51-.92,1.89.71Zm2.86-.27c-.56.09-1.18.15-1.83.21l1.58-15.27,1-.82,1.42.78Zm3.18-1a5.62,5.62,0,0,1-2.13.81l2.16-15,.92-1.4,1.45.59Zm2.85-11.37.59-3.7,0,0C258.19,82.74,258,84.06,257.7,85.54Zm1-5.5-1,1-1.9-.78a.51.51,0,0,0-.62.19l-1,1.46L252.61,81a.5.5,0,0,0-.56,0l-1.21,1-2.22-.83a.52.52,0,0,0-.44,0l-1.69,1-2.84-1.51a.47.47,0,0,0-.4,0l-3.05,1-1.5-1.29a.46.46,0,0,0-.42-.11l-2.32.45-1-1.17a.52.52,0,0,0-.55-.14l-1.74.61-.7-1.59a.51.51,0,0,0-.58-.29l-2,.46-.8-1.08a3.47,3.47,0,0,1,.31-2.8c2,2.1,6.56,4.44,13,5a37.53,37.53,0,0,0,8.88-.39c4-.65,6.45-1.62,7.87-2.63A3.08,3.08,0,0,1,258.69,80Zm-8.07-1.68a30.76,30.76,0,0,1-15.87-1.19,13.56,13.56,0,0,1-5.5-3.45l-.08-.1h0a2.6,2.6,0,0,1-.52-1,3.51,3.51,0,0,1,1.44-3.47,23.23,23.23,0,0,0,6.74,4.25,31.94,31.94,0,0,0,9.91,2.68,19.65,19.65,0,0,0,4,0c4.4-.52,6.85-2.18,7.93-4a1.8,1.8,0,0,1,.91,1.39C259.65,74.25,259.27,77,250.62,78.36Zm-9.18-2.54-1.52.9a.52.52,0,0,0-.18.7.51.51,0,0,0,.39.25.67.67,0,0,0,.31-.07l1.52-.91a.5.5,0,0,0,.17-.7A.49.49,0,0,0,241.44,75.82Zm15.65,2.64-1.26.78a.5.5,0,0,0-.16.7.49.49,0,0,0,.39.24.52.52,0,0,0,.31-.08l1.26-.78a.51.51,0,0,0-.54-.86ZM255.58,72a.62.62,0,0,0,.23.07.51.51,0,0,0,.47-.24l1.09-1.78a.49.49,0,0,0-.16-.69.5.5,0,0,0-.7.16l-1.09,1.78A.5.5,0,0,0,255.58,72Zm-5.64,1.78a.51.51,0,0,0,.39.23.48.48,0,0,0,.31-.08.5.5,0,0,0,.15-.7l-1.14-1.74a.5.5,0,0,0-.7-.15.51.51,0,0,0-.15.7Z"/><path class="cls-5" d="M259.29-7.32a.53.53,0,0,0,.35.2.53.53,0,0,0,.36-.11.5.5,0,0,0,.08-.71l-1.21-1.55a.5.5,0,0,0-.71-.08.5.5,0,0,0-.08.71ZM270-18.7a.51.51,0,0,0,.41.59h.05a.5.5,0,0,0,.54-.42,4.65,4.65,0,0,0-.7-3.33.51.51,0,0,0-.71-.12.51.51,0,0,0-.12.71A3.58,3.58,0,0,1,270-18.7ZM272-13.22l2,1.06a.76.76,0,0,0,.2.06.54.54,0,0,0,.49-.27.52.52,0,0,0-.21-.69l-2-1a.49.49,0,0,0-.68.21A.5.5,0,0,0,272-13.22Zm-14.39-.17h.06a.51.51,0,0,0,.54-.41l.38-2a.49.49,0,0,0-.4-.59.49.49,0,0,0-.59.4l-.39,2A.52.52,0,0,0,257.65-13.39Zm-5,9.38a.5.5,0,0,0-.66-.28.51.51,0,0,0-.28.66l.53,1.32a.51.51,0,0,0,.43.32.45.45,0,0,0,.23,0,.5.5,0,0,0,.28-.66ZM281.8-1.86a2.88,2.88,0,0,0-1-3,1.92,1.92,0,0,0-.42-.26A4,4,0,0,0,280.6-6a3.47,3.47,0,0,0-2-3.6,4.19,4.19,0,0,0,.51-1c.33-1,.33-2.4-1.47-3.87-.32-1.32-1.95-2.62-4.95-4a5,5,0,0,0-.93-4.09,3.62,3.62,0,0,0-3.61-1.27,3.16,3.16,0,0,1-.95.11c0-3.82.9-12.46,4.35-13.59a.5.5,0,0,0,.33-.64.51.51,0,0,0-.64-.32c-4.49,1.47-5,11.82-5,14.45-.29-.05-.57-.12-.84-.18a5.08,5.08,0,0,0-2.62-.17c-1.49.43-2.88,1.91-2.77,4.82-1.18.32-4.45,1.42-5.35,3.78a5.29,5.29,0,0,0-2.88,2.83,4.22,4.22,0,0,0-1.21,4.37,2,2,0,0,0,.2.42A4.54,4.54,0,0,0,249-3.42a3.22,3.22,0,0,0,.54,1.16,4.45,4.45,0,0,0-.6,3.9c0,1.12-.1,12.46.64,16.57a1.8,1.8,0,0,0,.36.77.7.7,0,0,0,.15.19,7.74,7.74,0,0,0,3,1.72.35.35,0,0,0,.18.06,23.11,23.11,0,0,0,2.67.76l.09,0a53.27,53.27,0,0,0,7.24,1.08,52.78,52.78,0,0,0,7.32.13h.09a27.13,27.13,0,0,0,2.76-.3.58.58,0,0,0,.19,0,7.58,7.58,0,0,0,3.25-1.2.49.49,0,0,0,.19-.16,1.92,1.92,0,0,0,.47-.7c1.4-3.9,3.16-14.93,3.36-16.2a4.1,4.1,0,0,0-.13-4.46A3.8,3.8,0,0,0,281.8-1.86ZM263-23.12a4.21,4.21,0,0,1,2.1.17,10.12,10.12,0,0,0,1.53.29h0a4.86,4.86,0,0,0,1.76-.12,2.65,2.65,0,0,1,2.58.94,4.25,4.25,0,0,1,.65,3.63.09.09,0,0,0,0,.05,11.65,11.65,0,0,1-.83,2.52,12.79,12.79,0,0,0-5.67,1.83c-.79-.31-3.53-1.6-4-4.22C260.57-21.22,261.75-22.75,263-23.12Zm-7.59,8.49c.33-2.14,3.37-3.25,4.63-3.62,0,.13,0,.26.07.4a6.87,6.87,0,0,0,3.94,4.68c-.48.32-.78.55-.83.58a.51.51,0,0,0-.09.71.49.49,0,0,0,.36.2.51.51,0,0,0,.35-.1s3.86-2.93,7.24-2.85h0a4.85,4.85,0,0,1,1.37.22.5.5,0,0,0,.64-.32.5.5,0,0,0-.32-.64,5.83,5.83,0,0,0-.92-.21,12.09,12.09,0,0,0,.62-1.8c3.84,1.74,4.28,3,4.19,3.58-.21,1.32-3.71,3-9,3.49-4.44.38-9.9-1-11.7-2.89A1.74,1.74,0,0,1,255.45-14.63Zm-2.78,2.42a3.94,3.94,0,0,1,1.76-2,2.9,2.9,0,0,0,.84,1.74c1.56,1.66,5.17,2.89,8.94,3.2a21.41,21.41,0,0,0,3.58,0,25.78,25.78,0,0,0,6.13-1.28c2-.71,3.22-1.58,3.64-2.58a2.17,2.17,0,0,1,.62,2.25C277.36-8.52,272-6,264.67-6c-5.3,0-9.55-1.54-11.37-4.07A2.61,2.61,0,0,1,252.67-12.21ZM251.73-11a4.86,4.86,0,0,0,.75,1.49c.87,1.21,3.48,3.87,9.93,4.4q1.05.09,2.25.09c5.66,0,10.87-1.56,13.27-3.83l0,0a2.44,2.44,0,0,1,1.63,2.67A3.26,3.26,0,0,1,279.25-5a.54.54,0,0,0-.1.2c-1.19,2.12-4.46,3.24-7.25,3.57-5.26.62-10.62-1.33-13.35-2.55-4.36-1.94-6.77-4-7-4.85A3,3,0,0,1,251.73-11ZM249.9,3.11l0,.06,0,3.75C249.9,5.41,249.9,4.07,249.9,3.11Zm1,15.49L251,3.4l1.53-.34.67,1.53-.33,15.16A5.81,5.81,0,0,1,250.86,18.6Zm3,1.51.33-15.25,1.53-.54.86,1-.95,15.32C255,20.45,254.38,20.28,253.84,20.11Zm2.77.73.95-15.31,2-.38,1.34,1.15L260,21.43C258.75,21.25,257.63,21.06,256.61,20.84Zm9.1,1.11c-.77,0-1.56-.08-2.38-.15s-1.6-.15-2.37-.24l.93-15.11,2.79-.94,2.6,1.39Zm4.41,0c-1.05.05-2.18.06-3.39,0L268.3,6.91,269.81,6l1.89.71Zm2.85-.27c-.55.08-1.17.15-1.82.2l1.58-15.27,1-.81,1.42.78Zm3.19-1a5.79,5.79,0,0,1-2.13.81l2.16-15,.92-1.41,1.45.6ZM279,9.32l.59-3.7,0,0C279.49,6.52,279.27,7.84,279,9.32Zm1-5.5-1,1L277.11,4a.49.49,0,0,0-.62.19l-1,1.46-1.61-.89a.52.52,0,0,0-.57,0l-1.2,1L269.93,5a.49.49,0,0,0-.44,0L267.8,6,265,4.51a.55.55,0,0,0-.4,0l-3.05,1L260,4.21a.49.49,0,0,0-.42-.11l-2.32.45-1-1.16a.5.5,0,0,0-.55-.14L254,3.86l-.7-1.6a.52.52,0,0,0-.58-.29l-2,.46-.8-1.08a3.48,3.48,0,0,1,.31-2.8c2,2.1,6.56,4.45,13,5a36.52,36.52,0,0,0,8.88-.39c4-.65,6.45-1.61,7.87-2.62A3.09,3.09,0,0,1,280,3.82Zm-8.07-1.68A30.85,30.85,0,0,1,256.06.94a13.56,13.56,0,0,1-5.5-3.44.39.39,0,0,0-.08-.1h0a2.63,2.63,0,0,1-.52-1,3.47,3.47,0,0,1,1.44-3.46,23.45,23.45,0,0,0,6.74,4.24A31.4,31.4,0,0,0,268-.16a19.54,19.54,0,0,0,4,0c4.41-.52,6.86-2.17,7.94-4a1.82,1.82,0,0,1,.91,1.39C281-2,280.58.75,271.93,2.14ZM262.75-.41,261.22.5a.49.49,0,0,0-.17.69.49.49,0,0,0,.39.25.45.45,0,0,0,.3-.07l1.53-.9a.51.51,0,0,0,.17-.7A.51.51,0,0,0,262.75-.41ZM278.4,2.23,277.14,3a.5.5,0,0,0-.16.7.51.51,0,0,0,.69.16l1.27-.79a.5.5,0,0,0,.16-.7A.51.51,0,0,0,278.4,2.23Zm-1.51-6.45a.48.48,0,0,0,.23.07.49.49,0,0,0,.47-.24l1.09-1.77a.51.51,0,0,0-.16-.7.51.51,0,0,0-.7.17l-1.09,1.77A.5.5,0,0,0,276.89-4.22Zm-5.64,1.79a.51.51,0,0,0,.39.22.44.44,0,0,0,.31-.08.5.5,0,0,0,.15-.7L271-4.73a.5.5,0,0,0-.7-.14.5.5,0,0,0-.15.7Z"/><path class="cls-5" d="M39.88,66.41a3.3,3.3,0,0,0,.24-1.24,5.68,5.68,0,0,0-1.41-3.76,2.83,2.83,0,0,0,.8-1.88,2.59,2.59,0,0,0-.28-1.14,2.53,2.53,0,0,0,.28-1.14c0-2.32-3.43-4.3-9.21-5.32a7.5,7.5,0,0,0-.92-2A25,25,0,0,0,21.2,42.4h-.06l0,0h-.24l-.07,0h0l0,0h0l0,0,0,0h0v0h0l0,0,0,0h0a.13.13,0,0,0,0,.05l0,0h0l0,.07h0v0s0,0,0,0v.05a.06.06,0,0,0,0,0v0a.06.06,0,0,1,0,0,0,0,0,0,1,0,0h0s0,0,0,0a0,0,0,0,1,0,0l.19.36c.64,1.53-1,3-3.41,4.9A25.66,25.66,0,0,0,15.1,50.2,4.29,4.29,0,0,0,14,52c-5.56,1-8.87,3-8.87,5.26a2.53,2.53,0,0,0,.28,1.14,2.46,2.46,0,0,0-.28,1.14,2.78,2.78,0,0,0,.8,1.88A5.64,5.64,0,0,0,4.5,65.17a3.31,3.31,0,0,0,.25,1.24,5.67,5.67,0,0,0-.25,1.64,3.66,3.66,0,0,0,1.22,2.64,2.65,2.65,0,0,0-.6,1.63c0,3.74,8.74,6,17.19,6s17.19-2.24,17.19-6a2.7,2.7,0,0,0-.59-1.63,3.67,3.67,0,0,0,1.2-2.64A5.33,5.33,0,0,0,39.88,66.41ZM27.13,48.63a16.56,16.56,0,0,1,1.4,1.87,5.59,5.59,0,0,1,1,3.63v.06a2.23,2.23,0,0,1,0,.23v.07l-.06.26a.65.65,0,0,1,0,.13.5.5,0,0,1,0,.13.88.88,0,0,1-.05.15l-.05.12-.06.13a1.63,1.63,0,0,1-.11.23l0,.07a2.39,2.39,0,0,0-.13.21l-.05.08a4.92,4.92,0,0,1-.41.52l-.07.06-.17.18-.09.08-.17.14-.11.09-.18.13-.11.07-.19.12-.12.07-.2.11c-.54-.38-1.85-1.61-.87-4A9.59,9.59,0,0,0,27.13,48.63Zm-2.8-2.78c1.93,1.75,2.5,3.27.88,7.3A4.22,4.22,0,0,0,25.94,58l-.11,0-.15,0-.23.06-.16,0-.24,0-.16,0-.25,0h-.16l-.29,0h0a3.71,3.71,0,0,1-2.71-3.73,7.32,7.32,0,0,1,1.27-2.94c1-1.75,2.23-3.79,1.33-6Zm-2.28-1.42c2.33,2.42,1.1,4.51-.19,6.7a8.09,8.09,0,0,0-1.41,3.39,4.38,4.38,0,0,0,1.62,3.76h-.64c-.45,0-1.05,0-1.69,0a4.41,4.41,0,0,1-2.34-4.81,9.3,9.3,0,0,1,2.27-3.79C20.92,48.13,22.3,46.47,22.05,44.43Zm-6.24,6.49c.6-.59,1.34-1.16,2.11-1.78A23.9,23.9,0,0,0,20.37,47a18.68,18.68,0,0,1-1.48,2,9.83,9.83,0,0,0-2.48,4.24A5.18,5.18,0,0,0,17.8,58c-.3-.06-.59-.13-.85-.21h0l-.13-.06-.06,0-.08,0-.07,0h0l-.2-.15h0A3.57,3.57,0,0,1,16,57l0,0-.07-.1-.09-.12,0,0a5.88,5.88,0,0,1-.82-1.91A4,4,0,0,1,15.81,50.92Zm-2,2.15,0,.16v.18a1,1,0,0,0,0,.17v.15a.76.76,0,0,0,0,.15,1.7,1.7,0,0,0,0,.22s0,.11,0,.17l0,.16,0,.15c0,.08,0,.16,0,.25l0,.13s0,.06,0,.09l0,.11v0a5.78,5.78,0,0,0,1.94,3.17v0l.13.09.09,0,.13.07.13.07.07,0,.19.08a16.38,16.38,0,0,0,4.52.54h1.29a11.81,11.81,0,0,0,1.18.06h.66l.32,0,.19,0,.28,0,.21,0,.24,0,.22,0,.23-.06.21-.06.23-.07.2-.06.38-.15.17-.08.09,0,.14-.06.18-.1.19-.11.17-.1.19-.12.16-.11.18-.14.14-.11a1.54,1.54,0,0,0,.19-.17.52.52,0,0,0,.11-.1l.22-.22s.05,0,.07-.07l.25-.29v0l0,0a2.64,2.64,0,0,0,.21-.29l0,0c.07-.11.14-.21.2-.32v0l0,0,.15-.29v0l.12-.32a.26.26,0,0,0,0-.08c0-.1.07-.19.1-.29v0c0-.11.05-.21.08-.32l0-.1c0-.1,0-.21.05-.32h0l0-.36v-.05a4.64,4.64,0,0,0,0-.91c.66.13,1.28.27,1.87.42a.5.5,0,0,0-.3.3l-.56,1.56a.51.51,0,0,0,.31.64L32,56a.5.5,0,0,0,.48-.33L33,54.06a.51.51,0,0,0-.09-.49c3.41,1,5.54,2.32,5.54,3.68,0,1.19-1.7,2.46-4.54,3.39a38.76,38.76,0,0,1-11.64,1.58,38.76,38.76,0,0,1-11.64-1.58c-2.84-.93-4.54-2.2-4.54-3.39C6.14,55.64,9.17,54,13.77,53.07ZM6.15,59.36c2.3,2.22,8.29,3.75,15.34,3.86h1.66c7.05-.11,13-1.64,15.34-3.86a1,1,0,0,1,0,.17c0,1.19-1.7,2.45-4.54,3.38a24.69,24.69,0,0,1-3.11.8l-.11,0-.52.09-.54.09-.11,0L29,64h0a43.07,43.07,0,0,1-4.58.41l-.31,0H20.51l-.31,0A43.07,43.07,0,0,1,15.62,64h0L15.07,64l-.13,0-.49-.08-.56-.1-.09,0a27.43,27.43,0,0,1-3.13-.8c-2.84-.94-4.54-2.2-4.54-3.39C6.14,59.47,6.14,59.42,6.15,59.36Zm6.57,5.17a37.57,37.57,0,0,0,4.22.69,10.85,10.85,0,0,0,3.81,5.5q-.77,0-1.5-.06h0l-.7,0h-.07l-.66,0h-.1A8,8,0,0,1,12.72,64.53Zm2.39,5.71a33.4,33.4,0,0,1-3.28-.65A7,7,0,0,1,8,62.89a17.85,17.85,0,0,0,3.7,1.38A9.32,9.32,0,0,0,15.11,70.24Zm2.94-4.91c1.11.09,2.26.15,3.44.17h.92a9,9,0,0,0,3.87,5.1h-.19l-.65,0h-.06c-.83,0-1.68.08-2.54.09A9.27,9.27,0,0,1,18.05,65.33Zm5.42.16a47.17,47.17,0,0,0,5.08-.37,7.49,7.49,0,0,0,3.66,4.62,38.13,38.13,0,0,1-3.86.66A7.71,7.71,0,0,1,23.47,65.49ZM29.56,65c1-.16,1.92-.34,2.8-.55a9.36,9.36,0,0,0,3,4.36c-.49.19-1,.37-1.57.54A6.62,6.62,0,0,1,29.56,65Zm3.79-.81a20.32,20.32,0,0,0,2.21-.76,10.61,10.61,0,0,0,2.38,3.9,7.42,7.42,0,0,1-1.48,1C34.78,67.57,33.73,65.21,33.35,64.17ZM6.67,62.09l.3.22a9.08,9.08,0,0,0,1.93,6.3,5.87,5.87,0,0,1-3.14-2.46l0,0a2.19,2.19,0,0,1-.21-1A4.67,4.67,0,0,1,6.67,62.09ZM34,75.71a39.16,39.16,0,0,1-11.64,1.57,39.16,39.16,0,0,1-11.64-1.57c-2.84-.94-4.54-2.2-4.54-3.39a1.67,1.67,0,0,1,.36-1l0,0,.26.18.1.06.21.13.12.07.25.14.15.08.22.11.15.07.23.11.12.06.34.14.13.06.28.11.11,0,.41.15h0l.42.15.06,0,.17,0,.16.05.24.07.34.1.06,0a43.16,43.16,0,0,0,10.73,1.3h1.05A42.41,42.41,0,0,0,34,73.21l.13,0,.21-.07c.39-.12.75-.24,1.1-.38h0l.39-.15.05,0,.39-.17h0l.34-.16.09,0,.31-.16,0,0,.31-.18.09,0a2.26,2.26,0,0,0,.26-.16l0,0,.29-.19,0,0a1.65,1.65,0,0,1,.36,1C38.5,73.51,36.8,74.77,34,75.71Zm4-5.5-.07.05c-2.3,1.92-7.81,3.2-14.25,3.36h-1.3c-7,0-13.12-1.32-15.58-3.37l-.06-.05a2.84,2.84,0,0,1-1.16-2.16,3.17,3.17,0,0,1,0-.43l0,0,.08.09a9.2,9.2,0,0,0,3.08,1.91l.21.08.1,0,.36.14h0c.27.1.55.19.84.28s.84.25,1.29.37h0a45.28,45.28,0,0,0,10.76,1.18h.42a42.81,42.81,0,0,0,11.12-1.39l0,0,.46-.13.79-.27.11,0,.24-.09A9.54,9.54,0,0,0,39,67.76l.07-.08.06-.05c0,.14,0,.28,0,.42A2.84,2.84,0,0,1,38,70.21Zm.95-4.09a.05.05,0,0,0,0,0,4.5,4.5,0,0,1-.25.41A9.58,9.58,0,0,1,36.49,63a9.24,9.24,0,0,0,1.47-.9,4.65,4.65,0,0,1,1.15,3.08A2.34,2.34,0,0,1,38.9,66.12ZM36.33,58.5a.53.53,0,0,0,.24.06.51.51,0,0,0,.45-.27l.61-1.17a.5.5,0,0,0-.22-.68.5.5,0,0,0-.68.21l-.61,1.17A.5.5,0,0,0,36.33,58.5Zm-27.52.28,1.83.17h0a.51.51,0,0,0,0-1L8.9,57.77a.51.51,0,0,0-.09,1ZM12.29,57a.51.51,0,0,0,.45.29.46.46,0,0,0,.23-.06.51.51,0,0,0,.23-.68l-.61-1.22a.51.51,0,0,0-.68-.23.51.51,0,0,0-.23.68ZM17,60.42,18,61a.46.46,0,0,0,.27.09.52.52,0,0,0,.43-.24.51.51,0,0,0-.15-.7l-.95-.61a.51.51,0,0,0-.55.85Zm16.13-1.29a.51.51,0,0,0,.36.15.47.47,0,0,0,.35-.14.5.5,0,0,0,0-.71l-1.17-1.22a.5.5,0,0,0-.71,0,.51.51,0,0,0,0,.72Zm-3.69,1.13,1.67.55a.45.45,0,0,0,.16,0,.51.51,0,0,0,.16-1l-1.66-.55a.5.5,0,0,0-.64.32A.51.51,0,0,0,29.46,60.26Zm-4.72,1.25a.51.51,0,0,0,.36-.15l.72-.72a.51.51,0,0,0-.72-.72l-.72.72a.51.51,0,0,0,.36.87Z"/><path class="cls-5" d="M19.93,20.07a5.32,5.32,0,0,0,.39-2,8.94,8.94,0,0,0-2.25-6,4.37,4.37,0,0,0,1.28-3,3.93,3.93,0,0,0-.45-1.8,4,4,0,0,0,.45-1.81c0-3.68-5.45-6.81-14.59-8.42A12.17,12.17,0,0,0,3.3-6a39.93,39.93,0,0,0-13-12h-.05l0,0-.07,0h-.39a.38.38,0,0,0-.1,0h0l0,0-.08,0h0l0,0-.06.05,0,0s0,0,0,0l0,0,0,0,0,0h0a.3.3,0,0,0,0,.08l0,0h0a.76.76,0,0,0,0,.11h0v.05s0,.05,0,.08v.07a.17.17,0,0,0,0,.07v.07a.24.24,0,0,0,0,.08.06.06,0,0,0,0,0v0a.2.2,0,0,0,0,.08s0,0,0,0a5.21,5.21,0,0,1,.3.57c1,2.42-1.52,4.67-5.41,7.74-1.21,1-2.46,2-3.47,2.93a7.16,7.16,0,0,0-1.76,2.85C-29.89-1.13-35.13,2-35.13,5.56a3.89,3.89,0,0,0,.46,1.81,3.91,3.91,0,0,0-.46,1.8,4.42,4.42,0,0,0,1.28,3,9,9,0,0,0-2.25,6,5.14,5.14,0,0,0,.4,2,8.82,8.82,0,0,0-.4,2.6,5.82,5.82,0,0,0,1.92,4.18,4.26,4.26,0,0,0-1,2.58c0,5.93,13.85,9.47,27.25,9.47s27.24-3.54,27.24-9.47a4.22,4.22,0,0,0-.95-2.58,5.8,5.8,0,0,0,1.91-4.18A9.2,9.2,0,0,0,19.93,20.07ZM-.26-8.1a27.37,27.37,0,0,1,2.2,3A8.94,8.94,0,0,1,3.51.62s0,.05,0,.08l-.06.37,0,.12c0,.13-.06.27-.09.41l-.06.21c0,.07,0,.14-.07.2s-.05.16-.08.23-.05.13-.08.19L3,2.65,2.77,3l-.07.11a3.79,3.79,0,0,1-.2.34l-.08.12a7.08,7.08,0,0,1-.65.82l-.1.11-.28.27-.14.13L1,5.14l-.17.13-.28.21L.35,5.6l-.3.19-.19.11-.32.17c-.85-.6-2.93-2.55-1.37-6.41C-.6-3.39.07-5.85-.26-8.1ZM-4.7-12.5c3.06,2.78,4,5.18,1.38,11.56-1.49,3.71-.26,6.3,1.16,7.7l-.16,0-.25.07L-2.93,7-3.19,7l-.37.07-.27,0-.4.06-.25,0-.45,0h0c-.76-.25-4.57-1.7-4.29-5.9.09-1.41,1-3,2-4.67,1.63-2.77,3.54-6,2.11-9.53C-5-12.74-4.84-12.62-4.7-12.5Zm-3.62-2.25c3.69,3.83,1.75,7.14-.3,10.61C-9.71-2.3-10.73-.55-10.85,1.24a6.91,6.91,0,0,0,2.56,6l-1,0c-.71,0-1.66,0-2.68-.09a7,7,0,0,1-3.7-7.61c.41-2.16,2-4.12,3.59-6C-10.11-8.88-7.93-11.52-8.32-14.75ZM-18.2-4.47a42.39,42.39,0,0,1,3.34-2.81A42.31,42.31,0,0,0-11-10.61a31.31,31.31,0,0,1-2.35,3.1c-1.7,2-3.45,4.15-3.93,6.72A8.21,8.21,0,0,0-15,6.77a11.56,11.56,0,0,1-1.35-.34h0l-.21-.09-.09,0-.13-.07-.11-.07,0,0a3.43,3.43,0,0,1-.33-.24h0A4.41,4.41,0,0,1-18,5.2L-18,5.13-18.16,5a1.33,1.33,0,0,1-.14-.19l0-.06a8.89,8.89,0,0,1-1.32-3A6.43,6.43,0,0,1-18.2-4.47Zm-3.24,3.41c0,.08,0,.17,0,.26s0,.18,0,.27V0a1.69,1.69,0,0,0,0,.23c0,.12,0,.23,0,.35l0,.28,0,.24,0,.24c0,.13.05.26.07.4a1.6,1.6,0,0,0,.05.21c0,.05,0,.09,0,.13a1.8,1.8,0,0,1,0,.19v0a9.25,9.25,0,0,0,3.07,5l0,0,.2.14.14.08a.82.82,0,0,0,.2.12l.22.11.1,0a1.88,1.88,0,0,0,.3.12,25.91,25.91,0,0,0,7.17.86h2c.63.06,1.26.1,1.87.1h0l.79,0h.26l.5,0,.32,0,.43-.06.33-.06.4-.07.33-.08c.13,0,.25-.06.37-.09l.33-.09.36-.12.32-.1a6.44,6.44,0,0,0,.61-.24l.26-.12.14-.06.22-.11c.1,0,.19-.1.29-.15l.31-.17L1,7.09l.3-.19.24-.18a3.3,3.3,0,0,0,.3-.22l.22-.17.3-.26.18-.17.35-.35.1-.1c.14-.15.27-.31.4-.47l0,0,0,0,.34-.47a.35.35,0,0,1,0-.08,5.24,5.24,0,0,0,.3-.51l0,0,0-.06c.08-.15.16-.3.23-.46l0,0c.07-.16.14-.33.2-.5s0-.09,0-.13.1-.3.14-.45a.25.25,0,0,0,0-.07c0-.17.09-.34.13-.51l0-.15c0-.17.06-.33.08-.51v0A5.07,5.07,0,0,0,5.15.35a.28.28,0,0,0,0-.09,8.59,8.59,0,0,0,0-1.43c1,.2,2,.41,3,.65A.84.84,0,0,0,7.59,0L6.72,2.43a.79.79,0,0,0,.48,1,.65.65,0,0,0,.27,0A.81.81,0,0,0,8.23,3L9.11.5A.79.79,0,0,0,9-.28c5.41,1.5,8.79,3.68,8.79,5.84,0,1.88-2.69,3.89-7.19,5.37A61.77,61.77,0,0,1-7.89,13.42a61.65,61.65,0,0,1-18.44-2.49c-4.5-1.48-7.19-3.49-7.19-5.37C-33.53,3-28.72.39-21.44-1.06Zm-12.07,10C-29.87,12.42-20.37,14.84-9.2,15h2.62c11.17-.18,20.66-2.6,24.31-6.12a2.44,2.44,0,0,1,0,.27c0,1.88-2.69,3.89-7.19,5.36A40.63,40.63,0,0,1,5.62,15.8l-.18,0L4.62,16l-.85.14-.18,0-.84.13h0c-2.28.33-4.73.55-7.26.66L-5,17l-.56,0h-4.6l-.57,0-.49,0c-2.53-.11-5-.33-7.25-.66h-.05l-.81-.12-.22,0-.77-.13-.88-.17-.15,0a41.16,41.16,0,0,1-5-1.27c-4.5-1.47-7.18-3.48-7.18-5.37A1.15,1.15,0,0,1-33.51,8.9Zm10.42,8.2a60.74,60.74,0,0,0,6.67,1.09,17.33,17.33,0,0,0,6,8.71c-.81,0-1.6,0-2.38-.1h0l-1.1-.07H-14l-1-.09h-.16A12.59,12.59,0,0,1-23.09,17.1Zm3.77,9a51,51,0,0,1-5.18-1c-5.59-2.69-6.18-8.16-6.15-10.61a29.08,29.08,0,0,0,5.87,2.18A14.82,14.82,0,0,0-19.32,26.14Zm4.66-7.78c1.76.15,3.59.24,5.46.27h1.45a14.29,14.29,0,0,0,6.13,8.07h-.3l-1,.07H-3c-1.31.08-2.65.12-4,.13C-11.76,24.94-13.9,20.45-14.66,18.36Zm8.6.26A75,75,0,0,0,2,18a11.89,11.89,0,0,0,5.79,7.32,60,60,0,0,1-6.11,1C-3.3,24.91-5.37,20.56-6.06,18.62Zm9.65-.82c1.56-.24,3-.53,4.42-.87.56,1.55,2.07,5.11,4.69,6.92-.77.3-1.6.59-2.49.85A10.46,10.46,0,0,1,3.59,17.8Zm6-1.28a31.92,31.92,0,0,0,3.51-1.2c.6,1.54,2,4.7,3.76,6.19A12.35,12.35,0,0,1,14.52,23C11.85,21.92,10.19,18.17,9.58,16.52Zm-42.26-3.29c.15.12.31.23.47.34-.1,1.56-.11,6.31,3.06,10-2.54-1.1-4.28-2.43-5-3.9a.33.33,0,0,0,0-.06,3.69,3.69,0,0,1-.33-1.51A7.41,7.41,0,0,1-32.68,13.23ZM10.55,34.8A61.63,61.63,0,0,1-7.89,37.3a61.75,61.75,0,0,1-18.45-2.5c-4.5-1.48-7.18-3.48-7.18-5.36a2.66,2.66,0,0,1,.57-1.56l.06.05.42.29.15.09.33.2.19.12.4.22.24.13.35.18.23.11.37.17.19.09.54.23.21.09.44.17.18.07.64.23h0l.67.23.09,0,.27.08.25.08.39.11.54.15.1,0a68.51,68.51,0,0,0,17,2.07H-7a66.94,66.94,0,0,0,17.68-2.27l.22-.07.33-.1q.92-.29,1.74-.6h0l.61-.24.09,0,.62-.26,0,0,.54-.25.14-.07.49-.25.06,0,.5-.29.14-.08.41-.25.08-.05.46-.31,0,0a2.61,2.61,0,0,1,.57,1.55C17.74,31.32,15.05,33.32,10.55,34.8Zm6.33-8.7a.41.41,0,0,0-.11.07c-3.65,3-12.37,5.08-22.58,5.32h0l-2.06,0h0c-11.09,0-20.78-2.1-24.69-5.35l-.1-.07a4.5,4.5,0,0,1-1.84-3.41c0-.23,0-.46,0-.69l.09.09.13.14a14.28,14.28,0,0,0,4.88,3l.33.14.16.06.56.21h0q.64.24,1.32.45c.66.2,1.34.4,2,.58h0A71.48,71.48,0,0,0-7.87,28.55h.66a67.36,67.36,0,0,0,17.61-2.2l.06,0c.25-.07.5-.14.73-.22q.66-.2,1.26-.42l.18-.06.37-.15a15.07,15.07,0,0,0,5.47-3.26l.12-.12.08-.09c0,.23,0,.45,0,.68A4.53,4.53,0,0,1,16.88,26.1Zm1.5-6.49a.21.21,0,0,0,0,.06,4.56,4.56,0,0,1-.39.66c-1.29-1-2.64-3.69-3.39-5.67a14.53,14.53,0,0,0,2.33-1.43,7.37,7.37,0,0,1,1.82,4.87A3.69,3.69,0,0,1,18.38,19.61ZM14.31,7.55a.84.84,0,0,0,.37.09.83.83,0,0,0,.72-.43l1-1.85a.81.81,0,0,0-1.43-.75L14,6.46A.82.82,0,0,0,14.31,7.55ZM-29.29,8l2.9.26h.07a.8.8,0,0,0,.8-.73.8.8,0,0,0-.73-.88l-2.9-.26a.81.81,0,0,0-.87.73A.81.81,0,0,0-29.29,8Zm5.51-2.82a.82.82,0,0,0,.72.45.8.8,0,0,0,.36-.09.8.8,0,0,0,.36-1.08l-1-1.93a.8.8,0,0,0-1.08-.36.8.8,0,0,0-.36,1.08Zm7.5,5.42,1.49,1a.8.8,0,0,0,.44.13.79.79,0,0,0,.67-.37.79.79,0,0,0-.23-1.11l-1.5-1a.81.81,0,0,0-1.11.24A.8.8,0,0,0-16.28,10.59ZM9.26,8.53a.79.79,0,0,0,.58.25.8.8,0,0,0,.58-1.36L8.58,5.49A.8.8,0,1,0,7.42,6.6Zm-5.83,1.8,2.64.87a.8.8,0,0,0,.26.05.81.81,0,0,0,.25-1.57L3.94,8.8a.81.81,0,0,0-.51,1.53Zm-7.49,2a.81.81,0,0,0,.57-.23l1.15-1.15a.8.8,0,0,0,0-1.13.8.8,0,0,0-1.14,0l-1.14,1.14a.8.8,0,0,0,0,1.14A.8.8,0,0,0-4.06,12.3Z"/><path class="cls-5" d="M72,47.09a.51.51,0,0,0,.46.55h0a.49.49,0,0,0,.5-.46,4.65,4.65,0,0,0-1-3.27.51.51,0,0,0-.77.67A3.59,3.59,0,0,1,72,47.09ZM97,72.69a5.79,5.79,0,0,0-2.81-2.55,3.65,3.65,0,0,1-1.85-1.55c-.58-1.17-1.72-1.38-2.82-1.59a4.35,4.35,0,0,1-3.07-1.53h0c-.3-.39-.61-.76-.9-1.1-1.64-2-2.19-4.6-2.67-6.92a23.91,23.91,0,0,0-.79-3.16.3.3,0,0,0,0-.1,4.73,4.73,0,0,0-1.78-2.48,15,15,0,0,0-5.2-1.6,4.08,4.08,0,0,0-.7-.11l-.2,0c1.3-4,.16-6-.67-6.8a3.67,3.67,0,0,0-3.74-1,3.51,3.51,0,0,1-.94.2c-.26-3.82-.12-12.5,3.23-13.91a.51.51,0,0,0,.27-.66.52.52,0,0,0-.67-.28c-4.36,1.84-4,12.2-3.85,14.83L67,42.24a5.17,5.17,0,0,0-2.62.06c-1.67.63-3.1,2.65-2.09,6.43a6,6,0,0,0,.47,1.19A17.38,17.38,0,0,0,56.4,51.7c-1.65,1.06-2.12,3.33-2.62,5.74s-1,5-2.66,6.92S47.44,68.74,48.49,71c1.36,2.9,7.66,4.26,19.85,4.26A68.09,68.09,0,0,0,82.76,74.1c-.15.2-.3.39-.46.57A1.25,1.25,0,0,0,82,76.13c.65,1.29,3.79,1.78,5.71,1.63a7.52,7.52,0,0,1,2.62.41,7.79,7.79,0,0,0,2.17.42,3.14,3.14,0,0,0,1.72-.49l.29-.19C96.28,76.83,98.44,75.47,97,72.69ZM64.71,43.25a4.24,4.24,0,0,1,2.1,0,10.69,10.69,0,0,0,1.54.16h0a4.77,4.77,0,0,0,1.74-.27,2.68,2.68,0,0,1,2.68.72c.69.71,1.62,2.43.31,6.14a12.63,12.63,0,0,0-5.54,2.35c-.83-.26-3.64-1.32-4.32-3.87C62.4,45.34,63.45,43.72,64.71,43.25Zm3.63,31c-11.42,0-17.79-1.24-18.93-3.68-.77-1.65,1.11-3.9,2.48-5.54a10.43,10.43,0,0,0,1.64-2.79,1.5,1.5,0,0,0,.46.4,1.41,1.41,0,0,0,1.37,0h0c.51-.25,1.85-.92,2.13-.71,0,0,.14.25,0,.85-.07.39-.15.78-.23,1.17-.33,1.58-.62,2.94,0,3.68a1.4,1.4,0,0,0,1.18.46c1.06,0,1.26-1.29,1.47-2.62.39-2.49.86-4.25,3.28-4.07a15.48,15.48,0,0,1,6.42,2.38c1.66.92,3.09,1.72,4.36,1.45,2.35-.51,3.87-.69,5.56,1.76,1.82,2.66,2.19,2.86,3.85,3.46l.25.09a.57.57,0,0,1,.41.41,3.24,3.24,0,0,1-.54,2C80.4,73.76,75.28,74.23,68.34,74.23ZM94,77.05l-.3.19c-.91.58-1.86.3-3.07,0a8.27,8.27,0,0,0-3-.45c-2,.16-4.43-.48-4.73-1.08,0,0-.06-.12.12-.33a11.63,11.63,0,0,0,1.3-1.82v0a4.28,4.28,0,0,0,.72-2.88,1.6,1.6,0,0,0-1-1.12l-.25-.09c-1.44-.52-1.66-.6-3.36-3.08-2.16-3.13-4.42-2.65-6.61-2.18-.9.19-2.17-.52-3.65-1.34a16.58,16.58,0,0,0-6.84-2.5c-3.54-.26-4,2.86-4.36,4.93-.09.57-.28,1.76-.5,1.76s-.35-.07-.37-.1c-.31-.36,0-1.73.21-2.82.08-.39.16-.8.23-1.2s.24-1.34-.41-1.83-2.07,0-3.2.6l0,0c-.29.14-.41.08-.45.06a1.46,1.46,0,0,1-.44-.92c.32-1.07.54-2.14.75-3.16.47-2.29.88-4.26,2.16-5.09,1.11-.71,3.33-1.29,6.43-1.7a8.15,8.15,0,0,0,3.2,2.22c-.45.36-.73.61-.78.65a.52.52,0,0,0,0,.72.51.51,0,0,0,.38.16.5.5,0,0,0,.34-.13,16.33,16.33,0,0,1,1.4-1.11.42.42,0,0,0,.15-.11A11.61,11.61,0,0,1,73.48,51h0a5.08,5.08,0,0,1,.78,0,15.42,15.42,0,0,1,5.46,1.56h0A3.51,3.51,0,0,1,81,54.24c-3.4,2.58-12,2.16-12.07,2.16a.5.5,0,0,0-.53.48.51.51,0,0,0,.48.53c.09,0,.68,0,1.57,0,2.66,0,8-.26,10.89-2.2.21.73.38,1.54.56,2.41.51,2.44,1.08,5.2,2.89,7.36l.88,1.07h0A5.33,5.33,0,0,0,89.35,68c1.11.2,1.76.35,2.1,1a4.61,4.61,0,0,0,2.28,2,4.77,4.77,0,0,1,2.39,2.11C97.07,75,96,75.81,94,77.05Zm0-4a.51.51,0,0,0-.71.09c-1.14,1.5-4.74,1.41-6,1.25a.51.51,0,1,0-.13,1,14.87,14.87,0,0,0,1.69.09c1.68,0,4.16-.27,5.28-1.73A.52.52,0,0,0,94,73Z"/><path class="cls-5" d="M52.15-21.09a.51.51,0,0,0,.45.56h0a.52.52,0,0,0,.51-.46,4.73,4.73,0,0,0-1-3.27.52.52,0,0,0-.72,0,.51.51,0,0,0-.05.71A3.67,3.67,0,0,1,52.15-21.09ZM77.2,4.52A5.75,5.75,0,0,0,74.39,2,3.73,3.73,0,0,1,72.54.42C72-.75,70.82-1,69.72-1.17a4.3,4.3,0,0,1-3.06-1.54h0c-.3-.38-.61-.75-.9-1.09-1.65-2-2.19-4.6-2.67-6.92a23.88,23.88,0,0,0-.8-3.16.3.3,0,0,0,0-.1,4.72,4.72,0,0,0-1.77-2.48,15.09,15.09,0,0,0-5.2-1.61c-.23-.05-.46-.08-.7-.11l-.2,0c1.29-4,.16-6-.67-6.8A3.67,3.67,0,0,0,50-26a4.05,4.05,0,0,1-.94.2c-.26-3.82-.13-12.5,3.22-13.91a.51.51,0,0,0,.27-.67.51.51,0,0,0-.66-.27c-4.36,1.84-4,12.2-3.85,14.83-.29,0-.57-.07-.85-.12a5.13,5.13,0,0,0-2.61.06c-1.68.62-3.11,2.65-2.09,6.43a5,5,0,0,0,.47,1.19c-3,.42-5.16,1-6.34,1.78-1.64,1.06-2.11,3.33-2.61,5.74s-1,5-2.67,6.91S27.63.57,28.67,2.8C30,5.71,36.34,7.07,48.53,7.07A67.29,67.29,0,0,0,63,5.92c-.15.21-.31.4-.46.58A1.24,1.24,0,0,0,62.22,8c.66,1.3,3.79,1.79,5.71,1.64a7.23,7.23,0,0,1,2.62.41,7.78,7.78,0,0,0,2.17.41,3.1,3.1,0,0,0,1.72-.48l.29-.19C76.47,8.65,78.62,7.3,77.2,4.52ZM44.89-24.92a4.28,4.28,0,0,1,2.11,0,12.13,12.13,0,0,0,1.54.16h0A5,5,0,0,0,50.29-25a2.66,2.66,0,0,1,2.68.72c.69.7,1.63,2.43.31,6.13a13,13,0,0,0-5.54,2.35c-.82-.26-3.63-1.31-4.32-3.87C42.59-22.83,43.63-24.45,44.89-24.92Zm3.63,31c-11.42,0-17.79-1.24-18.93-3.68-.77-1.65,1.11-3.9,2.49-5.54a10.7,10.7,0,0,0,1.64-2.79,1.74,1.74,0,0,0,.45.4,1.43,1.43,0,0,0,1.38,0h0c.5-.25,1.85-.92,2.13-.71,0,0,.14.25,0,.85-.07.38-.15.78-.23,1.17-.33,1.58-.62,2.94,0,3.68a1.4,1.4,0,0,0,1.19.46c1.06,0,1.25-1.29,1.46-2.62.4-2.49.87-4.25,3.29-4.07a15.54,15.54,0,0,1,6.42,2.38C51.52-3.55,53-2.75,54.23-3c2.34-.5,3.87-.68,5.55,1.77C61.61,1.4,62,1.6,63.64,2.2l.25.08a.56.56,0,0,1,.4.42,3.22,3.22,0,0,1-.53,2C60.59,5.59,55.46,6.06,48.52,6.06ZM74.19,8.88l-.29.19c-.92.57-1.87.3-3.07,0a8.11,8.11,0,0,0-3-.45c-2,.16-4.42-.48-4.72-1.08,0,0-.06-.12.12-.33a11.76,11.76,0,0,0,1.29-1.83s0,0,0,0a4.27,4.27,0,0,0,.73-2.88,1.59,1.59,0,0,0-1-1.11L64,1.24c-1.45-.52-1.67-.6-3.37-3.08C58.47-5,56.2-4.49,54-4c-.91.19-2.18-.52-3.65-1.34a16.64,16.64,0,0,0-6.84-2.5C40-8.12,39.49-5,39.16-2.93c-.09.57-.27,1.75-.49,1.76s-.36-.07-.38-.1c-.3-.37,0-1.73.21-2.83.08-.39.17-.79.24-1.19s.24-1.34-.42-1.84-2.06,0-3.19.61l0,0c-.29.14-.4.08-.44.06a1.49,1.49,0,0,1-.45-.92c.32-1.07.54-2.14.76-3.16.47-2.29.87-4.26,2.16-5.09,1.1-.71,3.33-1.3,6.43-1.7a8.08,8.08,0,0,0,3.2,2.22c-.45.36-.73.61-.78.65a.51.51,0,0,0,0,.72.49.49,0,0,0,.37.16.48.48,0,0,0,.34-.13,15.3,15.3,0,0,1,1.41-1.11l.15-.11a11.56,11.56,0,0,1,5.45-2.28h0a6.91,6.91,0,0,1,.79,0,15.6,15.6,0,0,1,5.46,1.57h0a3.49,3.49,0,0,1,1.26,1.68c-3.39,2.58-12,2.16-12.06,2.15a.51.51,0,0,0-.53.48.51.51,0,0,0,.48.54c.09,0,.68,0,1.56,0,2.66,0,8-.26,10.9-2.2.21.72.38,1.54.56,2.41.5,2.43,1.07,5.2,2.88,7.36.29.34.59.7.88,1.07h0A5.35,5.35,0,0,0,69.54-.17c1.11.2,1.75.35,2.09,1a4.65,4.65,0,0,0,2.29,2A4.75,4.75,0,0,1,76.3,5C77.25,6.85,76.18,7.64,74.19,8.88Zm0-4a.52.52,0,0,0-.72.1c-1.13,1.5-4.73,1.41-6,1.25a.5.5,0,0,0-.56.44.49.49,0,0,0,.44.56,13.58,13.58,0,0,0,1.68.1c1.69,0,4.17-.27,5.28-1.73A.52.52,0,0,0,74.21,4.86Z"/><path class="cls-5" d="M121.06,43.32a.51.51,0,1,0-.6.82l1.72,1.25a.47.47,0,0,0,.41.09.57.57,0,0,0,.3-.19.52.52,0,0,0-.11-.71Zm-6.79.53a.51.51,0,1,0-.56.85l1.41.92a.5.5,0,0,0,.39.07.49.49,0,0,0,.31-.21.51.51,0,0,0-.14-.71Zm5.38,4-1.48,1a.51.51,0,0,0,.39.92.46.46,0,0,0,.16-.07l1.49-1a.51.51,0,0,0-.56-.85Zm7-3.5a3.48,3.48,0,0,1-1.81-1.15,11.9,11.9,0,0,0-3.12-2.25c-2-1-3.75-.73-6-.38a27,27,0,0,1-4.67.46,6,6,0,0,0-5.32,2.3,7.14,7.14,0,0,1-2.57,2A5.43,5.43,0,0,0,100,48.83a4.73,4.73,0,0,1-1.14,1.93,3.47,3.47,0,0,0-1.13,3.88c.24.76,3.69,11.87,5.69,15.62a1.78,1.78,0,0,0,.57.63.63.63,0,0,0,.2.13,7.93,7.93,0,0,0,3.4.72.61.61,0,0,0,.19,0,24.38,24.38,0,0,0,2.78-.09h.1a53.6,53.6,0,0,0,7.21-1.18,53,53,0,0,0,7-2.11.25.25,0,0,0,.09,0c.92-.36,1.78-.74,2.54-1.13a.56.56,0,0,0,.17-.09A7.76,7.76,0,0,0,130.35,65a.57.57,0,0,0,.13-.21,1.8,1.8,0,0,0,.24-.81c.15-4.26-1.65-15.79-1.77-16.54C128.92,46.44,128.4,44.64,126.69,44.33ZM99.1,55.77l.06,0,1.13,3.6C99.81,58,99.39,56.69,99.1,55.77Zm5.64,14.45L100.2,55.73l1.35-.8,1.11,1.26L107,70.72A5.61,5.61,0,0,1,104.74,70.22Zm3.3.54L103.7,56.13l1.29-1,1.12.66,3.77,14.88C109.22,70.74,108.6,70.76,108,70.76Zm2.86-.16-3.77-14.86,1.77-1,1.63.69,3.73,14.68C113.07,70.35,111.94,70.5,110.9,70.6Zm9-1.71c-.75.2-1.52.39-2.32.58s-1.57.35-2.33.49l-3.73-14.67,2.38-1.74,2.9.52Zm4.2-1.34c-1,.36-2.06.72-3.22,1.06l-3.11-14.83,1.16-1.34,2,.1Zm2.63-1.13c-.5.25-1.07.5-1.68.75l-3.15-15,.71-1.08,1.59.31Zm2.73-1.92a5.76,5.76,0,0,1-1.78,1.42L125.17,51l.44-1.62,1.57.12Zm-.76-11.72-.56-3.69,0-.06C128.32,50,128.51,51.3,128.71,52.78Zm-.77-5.45-.61,1.14-2-.16a.5.5,0,0,0-.53.37l-.47,1.68-1.8-.36a.51.51,0,0,0-.52.23l-.85,1.3-2.37-.12a.55.55,0,0,0-.41.18L117,53.08l-3.17-.57a.53.53,0,0,0-.39.09l-2.59,1.91-1.82-.77a.46.46,0,0,0-.44,0l-2.07,1.14-1.34-.8a.52.52,0,0,0-.56,0l-1.47,1.12L102,53.94a.52.52,0,0,0-.64-.1l-1.77,1-1-.75a2.55,2.55,0,0,1,.93-2.65,5.77,5.77,0,0,0,1.39-2.29,4.37,4.37,0,0,1,2.75-3,8.09,8.09,0,0,0,2.9-2.21c1-1.11,1.82-2,4.58-2a28.48,28.48,0,0,0,4.83-.47c2.11-.33,3.62-.58,5.34.29a11,11,0,0,1,2.88,2.07,4.35,4.35,0,0,0,2.33,1.41C127.68,45.54,127.9,46.91,127.94,47.33Zm-18.67-1.95-1.06,1.56a.5.5,0,0,0,.13.7.53.53,0,0,0,.4.08.54.54,0,0,0,.31-.21L110.11,46a.5.5,0,0,0-.13-.7A.51.51,0,0,0,109.27,45.38Zm4,2.93a.51.51,0,1,0-.69.75l1.23,1.14a.52.52,0,0,0,.46.12.47.47,0,0,0,.25-.15.52.52,0,0,0,0-.72ZM106,50.4l-2.26-.62a.51.51,0,0,0-.26,1l2.25.62a.43.43,0,0,0,.25,0,.54.54,0,0,0,.37-.36A.52.52,0,0,0,106,50.4Z"/><path class="cls-5" d="M144.24-25.29a.5.5,0,0,0-.71.11.5.5,0,0,0,.11.71l1.71,1.25a.5.5,0,0,0,.42.09.51.51,0,0,0,.29-.19A.5.5,0,0,0,146-24Zm-6.79.53a.51.51,0,0,0-.71.14.52.52,0,0,0,.15.71l1.41.92a.5.5,0,0,0,.39.07.49.49,0,0,0,.31-.21.51.51,0,0,0-.14-.71Zm5.38,4-1.49,1a.5.5,0,0,0-.14.7.49.49,0,0,0,.54.22.56.56,0,0,0,.16-.07l1.48-1a.5.5,0,0,0,.15-.7A.5.5,0,0,0,142.83-20.78Zm7-3.5a3.5,3.5,0,0,1-1.82-1.15,11.73,11.73,0,0,0-3.12-2.25c-2-1-3.75-.73-6-.37a28.23,28.23,0,0,1-4.68.45A6.09,6.09,0,0,0,129-25.3a7.08,7.08,0,0,1-2.56,2,5.43,5.43,0,0,0-3.29,3.55A4.73,4.73,0,0,1,122-17.85,3.45,3.45,0,0,0,120.86-14c.23.76,3.69,11.88,5.68,15.62a1.92,1.92,0,0,0,.58.63.63.63,0,0,0,.2.13,7.65,7.65,0,0,0,3.4.72.61.61,0,0,0,.19,0,27.06,27.06,0,0,0,2.78-.1h.1A53.86,53.86,0,0,0,141,1.85a53,53,0,0,0,7-2.11.25.25,0,0,0,.09,0c.92-.36,1.78-.74,2.54-1.13a.56.56,0,0,0,.17-.09,7.76,7.76,0,0,0,2.73-2.14.57.57,0,0,0,.13-.21,1.93,1.93,0,0,0,.24-.81c.14-4.25-1.65-15.79-1.77-16.54C152.1-22.17,151.58-24,149.87-24.28ZM122.28-12.84l.06,0,1.13,3.6C123-10.64,122.57-11.92,122.28-12.84Zm5.64,14.46-4.54-14.5,1.35-.8,1.11,1.26,4.31,14.53A5.81,5.81,0,0,1,127.92,1.62Zm3.3.53-4.34-14.63,1.29-1,1.12.66,3.77,14.88C132.4,2.13,131.78,2.15,131.22,2.15ZM134.08,2l-3.77-14.87,1.77-1,1.63.69,3.73,14.68C136.25,1.74,135.12,1.89,134.08,2Zm9-1.72c-.75.2-1.52.4-2.32.58s-1.57.35-2.33.49l-3.73-14.66,2.37-1.75,2.9.52Zm4.19-1.34c-1,.36-2.06.72-3.21,1.06L141-14.83l1.16-1.34,2,.1Zm2.64-1.13c-.5.25-1.07.51-1.68.75l-3.15-15,.71-1.08,1.58.31Zm2.73-1.92a5.88,5.88,0,0,1-1.78,1.42l-2.53-14.94.45-1.62,1.56.12Zm-.76-11.71-.57-3.69,0-.07C151.5-18.63,151.69-17.31,151.89-15.82Zm-.78-5.46-.6,1.15-2.06-.17a.52.52,0,0,0-.53.37l-.46,1.68-1.81-.35a.5.5,0,0,0-.52.22l-.85,1.3-2.36-.11a.49.49,0,0,0-.41.17l-1.29,1.49-3.17-.57a.53.53,0,0,0-.39.09l-2.59,1.91-1.82-.77a.46.46,0,0,0-.44,0l-2.08,1.14-1.33-.8a.53.53,0,0,0-.57,0l-1.46,1.12-1.16-1.31a.52.52,0,0,0-.64-.1l-1.77,1-1-.75a2.55,2.55,0,0,1,.93-2.65,5.63,5.63,0,0,0,1.38-2.29,4.42,4.42,0,0,1,2.75-3,8,8,0,0,0,2.91-2.21c1-1.11,1.82-2,4.58-2a28.72,28.72,0,0,0,4.84-.47c2.1-.33,3.62-.58,5.33.29a11,11,0,0,1,2.88,2.07,4.35,4.35,0,0,0,2.33,1.41C150.85-23.07,151.07-21.7,151.11-21.28Zm-18.66-1.95-1.06,1.56a.5.5,0,0,0,.13.7.53.53,0,0,0,.4.08.54.54,0,0,0,.31-.21l1.06-1.56a.5.5,0,0,0-.13-.7A.51.51,0,0,0,132.45-23.23Zm4,2.93a.5.5,0,0,0-.71,0,.51.51,0,0,0,0,.72L137-18.41a.52.52,0,0,0,.46.12.47.47,0,0,0,.25-.15.52.52,0,0,0,0-.72Zm-7.28,2.09-2.25-.62a.51.51,0,0,0-.62.36.49.49,0,0,0,.35.62l2.26.62a.39.39,0,0,0,.24,0,.51.51,0,0,0,.38-.36A.52.52,0,0,0,129.14-18.21Z"/><path class="cls-5" d="M151.22,15.93a.51.51,0,0,0-.69-.2.5.5,0,0,0-.21.68l1,1.88a.51.51,0,0,0,.34.25.48.48,0,0,0,.35-.05.5.5,0,0,0,.21-.68Zm-6.36-2.45a.5.5,0,0,0-.69-.17.52.52,0,0,0-.18.7l.88,1.44a.48.48,0,0,0,.32.24.56.56,0,0,0,.38-.06.52.52,0,0,0,.17-.7ZM148,19.4l-1.75.23a.51.51,0,0,0-.44.57.5.5,0,0,0,.39.43.55.55,0,0,0,.18,0l1.76-.24a.5.5,0,0,0,.43-.57A.49.49,0,0,0,148,19.4Zm7.87-.13a3.46,3.46,0,0,1-1.15-1.82,11.91,11.91,0,0,0-1.84-3.37c-1.38-1.78-3.07-2.28-5.21-2.91a27.61,27.61,0,0,1-4.42-1.6,6,6,0,0,0-5.8-.21,7.12,7.12,0,0,1-3.16.67,5.39,5.39,0,0,0-4.5,1.79,4.89,4.89,0,0,1-1.85,1.25,3.47,3.47,0,0,0-2.7,3c-.11.79-1.78,12.31-1.6,16.55a1.92,1.92,0,0,0,.26.81.45.45,0,0,0,.12.21,7.65,7.65,0,0,0,2.76,2.11.46.46,0,0,0,.17.09A25.42,25.42,0,0,0,129.49,37l.09,0a53.3,53.3,0,0,0,7,2,55.1,55.1,0,0,0,7.22,1.11h.1a26.51,26.51,0,0,0,2.78.06.41.41,0,0,0,.19,0,7.53,7.53,0,0,0,3.39-.75.41.41,0,0,0,.2-.14,1.86,1.86,0,0,0,.57-.62c2-3.78,5.31-15,5.53-15.69C157,22.14,157.28,20.29,155.87,19.27ZM126,17.71l0,.06-.54,3.74C125.73,20,125.91,18.66,126,17.71ZM124.9,33.19l2.15-15,1.56-.14.46,1.61-2.37,15A5.86,5.86,0,0,1,124.9,33.19Zm2.75,1.9L130,20l1.58-.33.72,1.08-3,15.05C128.72,35.58,128.16,35.33,127.65,35.09Zm2.65,1.09,3-15,2-.11,1.17,1.32-3,14.87C132.37,36.89,131.28,36.54,130.3,36.18Zm8.87,2.33c-.76-.14-1.54-.29-2.34-.47s-1.57-.36-2.32-.56l3-14.84,2.9-.56,2.39,1.73Zm4.36.6c-1-.09-2.17-.23-3.36-.43L143.76,24l1.62-.71,1.77.95Zm2.87.12c-.57,0-1.18,0-1.84,0l3.62-14.92,1.11-.67,1.3,1Zm3.29-.56a5.66,5.66,0,0,1-2.22.51l4.16-14.57,1.1-1.27,1.36.79Zm4.36-10.9,1.08-3.57.06-.05C154.9,25.07,154.51,26.35,154.05,27.77Zm1.65-5.25-1,.76-1.79-1a.51.51,0,0,0-.63.11l-1.14,1.32-1.48-1.1a.53.53,0,0,0-.57,0l-1.33.81-2.08-1.12a.52.52,0,0,0-.44,0l-1.81.79-2.61-1.88a.52.52,0,0,0-.4-.08l-3.16.6-1.31-1.48a.52.52,0,0,0-.41-.17l-2.36.14-.86-1.29a.51.51,0,0,0-.53-.22L130,19l-.48-1.67a.51.51,0,0,0-.53-.37l-2,.19L126.27,16a2.55,2.55,0,0,1,2-2,5.8,5.8,0,0,0,2.25-1.47A4.4,4.4,0,0,1,134.26,11a8.08,8.08,0,0,0,3.57-.74,5.06,5.06,0,0,1,5,.18,27.85,27.85,0,0,0,4.57,1.67c2,.6,3.52,1,4.69,2.55a11.05,11.05,0,0,1,1.71,3.12,4.36,4.36,0,0,0,1.49,2.27C156.23,20.79,155.84,22.12,155.7,22.52Zm-16-9.8-1.63.94a.51.51,0,0,0-.19.7.52.52,0,0,0,.33.24.54.54,0,0,0,.37-.06l1.63-.95a.5.5,0,0,0-.51-.87ZM142,17.07a.51.51,0,0,0-1,.38L141.7,19a.51.51,0,0,0,.36.31.53.53,0,0,0,.3,0,.51.51,0,0,0,.28-.66Zm-7.47-1.25-1.77-1.52a.5.5,0,1,0-.66.76l1.76,1.53a.41.41,0,0,0,.23.11.49.49,0,0,0,.49-.16A.52.52,0,0,0,134.55,15.82Z"/><path class="cls-5" d="M30.24,24.93a.41.41,0,0,0,.17.56.42.42,0,0,0,.57-.17l.83-1.54a.41.41,0,0,0-.17-.57.43.43,0,0,0-.57.17Zm5.36-2.38a.41.41,0,0,0,.15.57.4.4,0,0,0,.3.06.42.42,0,0,0,.27-.2L37,21.79a.42.42,0,0,0-.14-.58.41.41,0,0,0-.57.15ZM33.26,26.6a.42.42,0,0,0,.36.47l1.45.2a.38.38,0,0,0,.15,0,.42.42,0,0,0,0-.82l-1.45-.2A.42.42,0,0,0,33.26,26.6Zm-6.63,2.63c.18.6,2.95,9.84,4.57,13a1.54,1.54,0,0,0,.47.52.45.45,0,0,0,.17.11,6.37,6.37,0,0,0,2.8.63h.16a19.91,19.91,0,0,0,2.29-.05h.09a43.17,43.17,0,0,0,6-.92A45.62,45.62,0,0,0,49,40.79l.08,0a22,22,0,0,0,2.1-.92.41.41,0,0,0,.15-.07A6.33,6.33,0,0,0,53.55,38a.62.62,0,0,0,.11-.17,1.52,1.52,0,0,0,.2-.67c.16-3.51-1.22-13-1.32-13.68A2.85,2.85,0,0,0,50.32,21a4.14,4.14,0,0,1-1.54-1,4.45,4.45,0,0,0-3.72-1.48,5.77,5.77,0,0,1-2.61-.56,5,5,0,0,0-4.79.18A23.48,23.48,0,0,1,34,19.45c-1.77.52-3.16.93-4.31,2.4a10,10,0,0,0-1.52,2.78,2.9,2.9,0,0,1-.95,1.51A2.58,2.58,0,0,0,26.63,29.23ZM52.29,28l-.44-3.09,0,0C52,25.64,52.14,26.74,52.29,28ZM51.34,38.8l-2-12.37.38-1.34,1.29.12,1.77,12.43A4.59,4.59,0,0,1,51.34,38.8Zm-2.18,1L46.68,27.38l.59-.89,1.31.27,2,12.45C50.13,39.41,49.67,39.62,49.16,39.82ZM45.69,41,43.25,28.68l1-1.09,1.66.1,2.48,12.43C47.55,40.41,46.65,40.7,45.69,41ZM38.07,29.89l2-1.43,2.39.46,2.44,12.27c-.62.16-1.25.32-1.91.46s-1.31.28-1.94.39Zm-3.63.33,1.46-.79,1.34.58,3,12.17c-1,.16-1.92.28-2.78.36Zm-2.84.29,1.07-.8.92.56,3,12.33c-.55,0-1,0-1.52,0Zm-2.9-.36,1.12-.65.91,1.05L34.17,42.6a4.75,4.75,0,0,1-1.83-.43Zm-.9,0,0,0,.9,2.95C28.36,32,28,30.93,27.8,30.17Zm-.08-3.35A3.65,3.65,0,0,0,29,24.94a9.16,9.16,0,0,1,1.41-2.58c1-1.25,2.19-1.61,3.88-2.11A23.52,23.52,0,0,0,38,18.87a4.19,4.19,0,0,1,4.12-.15,6.48,6.48,0,0,0,3,.61,3.65,3.65,0,0,1,3.12,1.26,4.73,4.73,0,0,0,1.85,1.21,2.08,2.08,0,0,1,1.63,1.65l-.51.93-1.69-.15a.41.41,0,0,0-.44.3l-.4,1.38-1.49-.31a.42.42,0,0,0-.43.18L46,26.85l-1.95-.11a.41.41,0,0,0-.34.14L42.64,28.1,40,27.6a.44.44,0,0,0-.33.08l-2.15,1.55-1.5-.65a.4.4,0,0,0-.37,0L34,29.52l-1.1-.67a.42.42,0,0,0-.47,0l-1.22.91-.94-1.08a.41.41,0,0,0-.53-.09l-1.47.85-.86-.63C27.25,28.49,26.93,27.39,27.72,26.82ZM40,20.87a.44.44,0,0,0,.16.58l1.34.78a.49.49,0,0,0,.31.05.45.45,0,0,0,.27-.2A.43.43,0,0,0,42,21.5l-1.35-.78A.42.42,0,0,0,40,20.87Zm-1.86,4.74a.43.43,0,0,0,.24.55.49.49,0,0,0,.24,0,.41.41,0,0,0,.3-.26l.52-1.29a.43.43,0,0,0-.24-.55.42.42,0,0,0-.54.24Zm6.65-1.73a.43.43,0,0,0,.41.14.61.61,0,0,0,.18-.09l1.46-1.27a.41.41,0,0,0,0-.59.44.44,0,0,0-.6,0l-1.46,1.26A.42.42,0,0,0,44.81,23.88Z"/><path class="cls-5" d="M84.49,20.76a.37.37,0,1,0,.3.67l1.42-.62a.36.36,0,0,0,.19-.48.35.35,0,0,0-.48-.19Zm5,1.27a.38.38,0,0,0-.22.48.39.39,0,0,0,.48.22l1.15-.44a.37.37,0,1,0-.26-.69Zm-3.84,1.54a.37.37,0,0,0,0,.52l.9.93.11.08a.37.37,0,0,0,.42-.6l-.9-.93A.37.37,0,0,0,85.68,23.57Zm-6-1.8c-.2.51-3.33,8.45-3.9,11.5a1.28,1.28,0,0,0,0,.61.37.37,0,0,0,0,.18,5.81,5.81,0,0,0,1.61,2,.28.28,0,0,0,.1.09,19.19,19.19,0,0,0,1.63,1.21l.06,0A38.24,38.24,0,0,0,83.88,40a40,40,0,0,0,5,2l.07,0c.69.21,1.35.39,2,.51l.14,0a5.53,5.53,0,0,0,2.53,0,.35.35,0,0,0,.17-.06,1.36,1.36,0,0,0,.51-.35c2-2.35,6.26-9.72,6.55-10.22a2.55,2.55,0,0,0-.18-3,3.47,3.47,0,0,1-.51-1.56,3.93,3.93,0,0,0-1.78-3.05,5.22,5.22,0,0,1-1.51-1.82,4.42,4.42,0,0,0-3.42-2.49A20.1,20.1,0,0,1,90.1,19c-1.51-.6-2.71-1.08-4.3-.68a8.71,8.71,0,0,0-2.58,1.1,2.58,2.58,0,0,1-1.48.53A2.28,2.28,0,0,0,79.64,21.77Zm18.5,13.15,1.38-2.38,0,0Zm-6.57,7L97,32.25l1-.72.83.78-5.55,9.6A4,4,0,0,1,91.57,41.91Zm-2.07-.49,5.07-10,.9-.3.77.91-5.43,9.73C90.4,41.68,90,41.56,89.5,41.42Zm-3-1.09,5-9.86,1.27-.24,1.1,1-5.06,10C88.06,41,87.28,40.67,86.47,40.33Zm.76-11.85,2.15.08,1.41,1.63-5,9.85q-.78-.33-1.59-.72c-.54-.26-1-.52-1.55-.79Zm-2.71-1.76L86,27l.61,1.14L82,38.18c-.77-.43-1.48-.86-2.12-1.27Zm-2.13-1.35,1.18,0,.33.88-4.65,10.2q-.6-.42-1.08-.81Zm-1.82-1.83,1.14.17.06,1.22L77.58,35.18a4.23,4.23,0,0,1-1-1.3Zm-.64-.48,0,.06-1,2.53C79.33,24.63,79.68,23.72,79.93,23.06Zm1.78-2.37a3.18,3.18,0,0,0,1.89-.63A8.16,8.16,0,0,1,86,19c1.36-.34,2.4.08,3.85.65A20.45,20.45,0,0,0,93.2,20.8a3.71,3.71,0,0,1,3,2.14,5.67,5.67,0,0,0,1.71,2,3.19,3.19,0,0,1,1.48,2.57,4.2,4.2,0,0,0,.63,1.86,1.84,1.84,0,0,1,.23,2l-.86.37-1.09-1a.36.36,0,0,0-.47,0l-1,.74-.86-1a.38.38,0,0,0-.4-.12l-1.08.36-1.3-1.15a.38.38,0,0,0-.31-.09l-1.42.26L89.83,28a.38.38,0,0,0-.26-.13l-2.35-.09-.68-1.28a.38.38,0,0,0-.27-.19L84.57,26l-.4-1.07a.37.37,0,0,0-.33-.24l-1.35,0-.06-1.27a.36.36,0,0,0-.32-.34l-1.48-.22-.25-.91C80.47,21.6,80.85,20.66,81.71,20.69ZM93.5,23.28a.38.38,0,0,0-.21.48L93.8,25a.37.37,0,0,0,.19.2.36.36,0,0,0,.29,0,.37.37,0,0,0,.21-.48L94,23.49A.37.37,0,0,0,93.5,23.28Zm-3.88,2.28a.37.37,0,0,0-.13.5.33.33,0,0,0,.16.15.37.37,0,0,0,.34,0l1.07-.62a.37.37,0,0,0-.38-.64ZM95.18,28a.38.38,0,0,0,.21.32.39.39,0,0,0,.18,0l1.71-.08a.38.38,0,0,0,.35-.39.36.36,0,0,0-.39-.35l-1.7.08A.37.37,0,0,0,95.18,28Z"/><path class="cls-5" d="M220.77,27.23a.38.38,0,0,0-.19.49.39.39,0,0,0,.18.18.37.37,0,0,0,.31,0l1.42-.62a.37.37,0,0,0,.19-.49.36.36,0,0,0-.48-.19Zm5,1.28a.37.37,0,1,0,.26.69l1.15-.43a.37.37,0,1,0-.26-.7ZM222,30a.37.37,0,0,0,0,.52l.9.93a.28.28,0,0,0,.11.08.37.37,0,0,0,.41-.07.37.37,0,0,0,0-.52l-.9-.93A.37.37,0,0,0,222,30Zm-6-1.8c-.2.52-3.33,8.45-3.91,11.5a1.48,1.48,0,0,0,.05.62.34.34,0,0,0,.05.17,5.52,5.52,0,0,0,1.61,2,.28.28,0,0,0,.1.09,17.29,17.29,0,0,0,1.63,1.22l.06,0a38.18,38.18,0,0,0,4.65,2.62,38.54,38.54,0,0,0,5,2l.07,0a17.83,17.83,0,0,0,2,.51.35.35,0,0,0,.14,0,5.68,5.68,0,0,0,2.53,0A.49.49,0,0,0,230,49a1.38,1.38,0,0,0,.51-.36c2-2.35,6.26-9.71,6.55-10.22a2.54,2.54,0,0,0-.19-2.95,3.58,3.58,0,0,1-.5-1.55,4,4,0,0,0-1.78-3.06A5.2,5.2,0,0,1,233.06,29a4.41,4.41,0,0,0-3.42-2.5,19.16,19.16,0,0,1-3.26-1.07c-1.51-.6-2.71-1.08-4.3-.68a8.71,8.71,0,0,0-2.58,1.1,2.58,2.58,0,0,1-1.48.53A2.29,2.29,0,0,0,215.92,28.24Zm18.5,13.15L235.8,39l0,0C235.49,39.6,235,40.45,234.42,41.39Zm-6.57,7,5.39-9.66,1-.72.83.79-5.55,9.6A4.21,4.21,0,0,1,227.85,48.38Zm-2.07-.48,5.07-10,.9-.29.76.9-5.42,9.73C226.68,48.15,226.25,48,225.78,47.9Zm-3-1.09,5-9.87,1.27-.23,1.1,1-5.06,10C224.34,47.43,223.56,47.14,222.75,46.81ZM223.51,35l2.14.09,1.42,1.63-5,9.85c-.51-.22-1-.47-1.58-.72s-1.06-.53-1.55-.79Zm-2.71-1.76,1.45.26.61,1.13-4.59,10.07c-.77-.43-1.48-.85-2.12-1.27Zm-2.13-1.34,1.18,0,.33.88L215.53,43c-.4-.27-.76-.54-1.08-.8ZM216.85,30l1.14.16.06,1.23-4.19,10.24a4.12,4.12,0,0,1-1-1.3Zm-.64-.48v.05l-1,2.54C215.61,31.1,216,30.19,216.21,29.54ZM218,27.17a3.25,3.25,0,0,0,1.89-.63,8,8,0,0,1,2.38-1c1.36-.33,2.4.08,3.85.66a20.21,20.21,0,0,0,3.37,1.1,3.69,3.69,0,0,1,2.94,2.14,5.93,5.93,0,0,0,1.72,2.05A3.23,3.23,0,0,1,235.62,34a4.14,4.14,0,0,0,.62,1.86,1.87,1.87,0,0,1,.24,2l-.86.37-1.1-1a.38.38,0,0,0-.47,0L233,38l-.87-1a.35.35,0,0,0-.39-.11l-1.08.35L229.38,36a.35.35,0,0,0-.31-.09l-1.42.26-1.54-1.78a.38.38,0,0,0-.27-.12l-2.34-.1-.69-1.27a.36.36,0,0,0-.26-.19l-1.7-.3-.4-1.06a.35.35,0,0,0-.34-.24l-1.34,0-.06-1.27a.37.37,0,0,0-.32-.35l-1.49-.21-.25-.91C216.75,28.07,217.13,27.13,218,27.17Zm11.79,2.58a.38.38,0,0,0-.21.49l.51,1.28a.37.37,0,0,0,.18.19.35.35,0,0,0,.3,0,.37.37,0,0,0,.21-.48L230.26,30A.37.37,0,0,0,229.78,29.75ZM225.9,32a.38.38,0,0,0-.13.51.36.36,0,0,0,.16.14.34.34,0,0,0,.34,0l1.06-.61a.37.37,0,0,0-.37-.65Zm5.56,2.43a.36.36,0,0,0,.21.31.39.39,0,0,0,.18,0l1.71-.08a.37.37,0,1,0,0-.74l-1.7.08A.37.37,0,0,0,231.46,34.46Z"/><path class="cls-5" d="M153.83,67.9a1,1,0,0,0-1.34-.47l-3.65,1.77a1,1,0,0,0,.44,1.91,1,1,0,0,0,.44-.1l3.65-1.76A1,1,0,0,0,153.83,67.9Zm52.18,3a1,1,0,0,0,.63.22,1,1,0,0,0,.79-.38l2.2-2.76a1,1,0,1,0-1.57-1.26l-2.21,2.76A1,1,0,0,0,206,70.89ZM217.72,11a1,1,0,0,0-1.26-.69C203.62,14,197.17,25.92,195.37,29.82a15.17,15.17,0,0,0-3.94-2.45,6.37,6.37,0,0,0-5.52.2,7.05,7.05,0,0,0-1.09.75,49.22,49.22,0,0,0-5.42-4.85l-.13-.08h0l-.18-.08h0l-.16,0h-.23l-.19,0h0a.71.71,0,0,0-.18.08h0l-.12.08s0,0,0,0l0,0-.11.1,0,0a.57.57,0,0,0-.08.13l0,0a1,1,0,0,0-.07.15v0a1.16,1.16,0,0,0,0,.18v0a.38.38,0,0,0,0,.15v0c0,.3.63,7.44-6.2,9.54-8,2.46-12.49,7-13,13-12.37,3-13.73,7.07-13.73,8.73V83.07c0,3.14,3.61,5.87,10.43,7.88,6.35,1.87,14.78,2.91,23.73,2.91s17.38-1,23.73-2.91c6.83-2,10.43-4.74,10.43-7.88V55.66c0-2.54-3.06-6-11.45-8.4a10.12,10.12,0,0,0,2.38-2.63,10.56,10.56,0,0,0,1.52-6.74c-.38-3.3-2.22-5.53-4.59-5.56a6.89,6.89,0,0,1-4-1.26c1.4-3.09,7.63-15.25,20-18.85A1,1,0,0,0,217.72,11ZM180.47,27c.92.8,2,1.78,3,2.82a19.06,19.06,0,0,0-3,7.72,13,13,0,0,0-.22,3.91c-2.26,1.6-3.53,6-3.59,9.69-.06,3.52.92,6.19,2.71,7.54a10.38,10.38,0,0,1-7.88-1.47A7.41,7.41,0,0,1,168,51.72a13.33,13.33,0,0,1,3.29-10.25c.82-.9,1.73-1.77,2.7-2.69C177.28,35.64,181,32.13,180.47,27ZM186,55a.64.64,0,0,0,0,.07,5.5,5.5,0,0,0,1.67,2.12,7.62,7.62,0,0,1-6.61.14c-1.57-.71-2.47-3-2.42-6.2a13.48,13.48,0,0,1,2.08-7.43,11,11,0,0,0,5.24,5.92A7.6,7.6,0,0,0,186,55ZM188,50c.89-1.2,2.81-1.45,4.28-1.45A17.09,17.09,0,0,1,196,49a.81.81,0,0,1,.22.12l.14.12a5.43,5.43,0,0,1,1.41,3.6c0,1.78-1,2.93-3.09,3.43a10.88,10.88,0,0,1-2.47.32h0c-3.23,0-4.2-2-4.3-2.22C187.28,52.42,187.33,51,188,50ZM172.18,35.85a10.85,10.85,0,0,0,3.77-2,42.26,42.26,0,0,1-3.39,3.46c-1,.9-1.94,1.84-2.81,2.8A15.46,15.46,0,0,0,166,52a9.37,9.37,0,0,0,3.74,6.44,11.51,11.51,0,0,1-4.37-1.27,8.63,8.63,0,0,1-4.5-6.25C159.83,46,161,39.28,172.18,35.85Zm39,47.21c0,4.15-13.2,8.78-32.15,8.78s-32.14-4.63-32.14-8.78v-5c1.73,1.54,4.56,2.91,8.41,4C161.62,84,170.05,85,179,85s17.38-1,23.73-2.91c3.86-1.13,6.68-2.5,8.42-4v5Zm0-8.81C211.15,78.4,198,83,179,83s-32.14-4.62-32.14-8.77V62.78A6.91,6.91,0,0,0,149.07,64a6.94,6.94,0,0,1,2,1.24,8.64,8.64,0,0,0,6.64,2.13,13.51,13.51,0,0,0,4.52-1,4.91,4.91,0,0,1,3.87-.2,8.8,8.8,0,0,0,4.67-.06,4.83,4.83,0,0,1,4.55.71,11.27,11.27,0,0,1,3.08,3c.85,1.11,1.66,2.17,3.35,2.17a5.1,5.1,0,0,0,1.21-.16c2.48-.57,2.71-2.64,2.84-3.87s.24-1.35.58-1.43a3.4,3.4,0,0,1,2.24.44,6.22,6.22,0,0,0,4.41.55,12,12,0,0,0,3.38-1.5A5.65,5.65,0,0,1,200,64.82c.38,0,.81.07,1.29.11,2.87.27,7.18.68,9.82-.74V74.25Zm0-18.59v5.82c-1.16,2.23-6.65,1.71-9.63,1.44l-1.33-.12a7.59,7.59,0,0,0-4.76,1.39,10.56,10.56,0,0,1-2.85,1.29,4.31,4.31,0,0,1-3.12-.45,5.26,5.26,0,0,0-3.49-.55c-1.82.41-2,2.07-2.13,3.17-.16,1.39-.3,1.9-1.3,2.13-1.29.3-1.54,0-2.49-1.27a13.52,13.52,0,0,0-3.59-3.45,6.82,6.82,0,0,0-6.09-1,6.92,6.92,0,0,1-3.7.07,6.79,6.79,0,0,0-5.14.28,11.78,11.78,0,0,1-3.92.91,6.64,6.64,0,0,1-5.27-1.72,8.88,8.88,0,0,0-2.63-1.55,5,5,0,0,1-2.85-2.36V55.66c0-2.58,5.85-5.17,11.69-6.65a16.21,16.21,0,0,0,.3,2.32A10.71,10.71,0,0,0,164.38,59a13.92,13.92,0,0,0,6.43,1.55,10,10,0,0,0,2.41-.26,12.28,12.28,0,0,0,3.9.65,11.39,11.39,0,0,0,4.93-1.1,9.12,9.12,0,0,0,2.14.26,10.12,10.12,0,0,0,5.59-1.77,8.41,8.41,0,0,0,2.39.33h0a12.62,12.62,0,0,0,2.94-.38c2.95-.71,4.64-2.68,4.64-5.39a7.74,7.74,0,0,0-1.13-3.9c.22-.08.45-.16.66-.26C207.07,50.62,211.15,53.64,211.15,55.66ZM201,34.34c1.26,0,2.35,1.6,2.6,3.77a8.46,8.46,0,0,1-6.51,9.22,2.28,2.28,0,0,0-.65-.28,19.11,19.11,0,0,0-4.14-.49A7.91,7.91,0,0,0,187.18,48c-1.61-.77-6.12-3.55-4.8-10.12.9-4.49,2.46-7.45,4.49-8.56a4.35,4.35,0,0,1,3.82-.09,13.44,13.44,0,0,1,3.52,2.23C196,32.87,197.77,34.31,201,34.34Zm-13.34-4.27c-2.41,1.26-3.53,4.84-3.65,5.24a1,1,0,0,0,1,1.3,1,1,0,0,0,1-.72c.26-.87,1.24-3.29,2.65-4a1,1,0,0,0,.43-1.36A1,1,0,0,0,187.66,30.07Zm4.73,40.85a1,1,0,0,0-1.4.28l-2,3a1,1,0,0,0,.27,1.4,1.07,1.07,0,0,0,.56.17,1,1,0,0,0,.84-.45l2-3A1,1,0,0,0,192.39,70.92ZM186.57,79l-3.65-1.77a1,1,0,0,0-.88,1.82l3.65,1.77a1,1,0,0,0,.44.1,1,1,0,0,0,.91-.57A1,1,0,0,0,186.57,79Zm16.68-5-2.77-2a1,1,0,0,0-1.18,1.64l2.77,2a1,1,0,0,0,.58.19,1,1,0,0,0,.6-1.83Zm-38-2.43-2.76,2a1,1,0,0,0,1.18,1.63l2.76-2a1,1,0,1,0-1.18-1.63Zm6.85,5.54a1,1,0,0,0-1.58,1.27l2.21,2.76a1,1,0,0,0,.79.38,1,1,0,0,0,.63-.22,1,1,0,0,0,.16-1.42ZM155,73a1,1,0,0,0-1.68,1.12l2,3a1,1,0,0,0,.84.45,1,1,0,0,0,.56-.17A1,1,0,0,0,157,76Z"/><path class="cls-5" d="M123.86,145.32a.61.61,0,1,0,.6.61A.6.6,0,0,0,123.86,145.32Zm-1.15-3.84a.6.6,0,0,0-.61.6.61.61,0,0,0,.61.6.6.6,0,0,0,.6-.6A.6.6,0,0,0,122.71,141.48Zm6.47,1.56a.61.61,0,1,0,.61.61A.6.6,0,0,0,129.18,143Zm34.22-11.37a.73.73,0,0,0-1-.3.71.71,0,0,0-.3,1l1,1.9a.72.72,0,0,0,.64.39.76.76,0,0,0,.33-.08.73.73,0,0,0,.31-1Zm-39.15-1-1.71-.19a.72.72,0,1,0-.16,1.43l1.71.19h.08a.72.72,0,0,0,.72-.65A.73.73,0,0,0,124.25,130.67Zm10.27,1.23-2.67-1.56a.71.71,0,0,0-1,.25.72.72,0,0,0,.25,1l2.66,1.57a.72.72,0,0,0,1-.26A.73.73,0,0,0,134.52,131.9Zm52.8,13.57a.6.6,0,0,0-.6.6.6.6,0,0,0,1.2,0A.6.6,0,0,0,187.32,145.47Zm-43.91-12.2-1.85-1.33a.72.72,0,0,0-.85,1.17l1.86,1.33a.65.65,0,0,0,.42.14.72.72,0,0,0,.59-.3A.73.73,0,0,0,143.41,133.27Zm52.13,11.78a.6.6,0,0,0,.6-.6.6.6,0,1,0-1.2,0A.6.6,0,0,0,195.54,145.05Zm-2.61,4.28a.6.6,0,1,0-.61-.6A.6.6,0,0,0,192.93,149.33Zm-38.47-17c-.9.29-2,.61-2.2.64a.72.72,0,0,0-.63.81.73.73,0,0,0,.72.63h.09c.41,0,2-.55,2.46-.7a.72.72,0,0,0-.44-1.38Zm46.11-17.72v0c-.08-1-1.37-1.77-4.33-2.46l.07-.12a5.41,5.41,0,0,0-.48-5.6,21.85,21.85,0,0,0-7.11-6.56h0l0,0h0l-.07,0h-.35l-.08,0h0l0,0s0,0-.06,0h0l0,0-.06,0,0,0,0,0h0s0,0,0,0l0,0h0l0,.06,0,0h0l0,0,0,.09h0a.11.11,0,0,0,0,0s0,0,0,.07v.13a0,0,0,0,0,0,0v0s0,.05,0,.07v0s0,0,0,0l0,.07,0,0c.05.09.1.18.14.27.44,1-.52,2-2.83,3.85-.66.52-1.34,1.06-1.9,1.6a4.42,4.42,0,0,0-1.22,3.76h0a6.49,6.49,0,0,0-.89-2,21.93,21.93,0,0,0-7.1-6.57h0l0,0h0l-.06,0h-.35l-.09,0h0l0,0-.07,0h0l0,0-.06,0,0,0v0l0,0s0,0,0,0l0,0h0l0,.07a.08.08,0,0,0,0,0h0v0a.16.16,0,0,0,0,.09h0s0,0,0,0,0,0,0,.06v.13a.06.06,0,0,1,0,0v0a.14.14,0,0,1,0,.06v0s0,0,0,0l0,.07v0c.05.09.1.18.14.27.44,1-.52,2-2.83,3.85-.66.52-1.34,1.06-1.9,1.6a4.27,4.27,0,0,0-.85,1.21h-.21a6.29,6.29,0,0,0-1.06-3.27,21.73,21.73,0,0,0-7.1-6.56h0l0,0-.07,0h-.35l-.08,0h0l-.05,0-.06,0h0l0,0,0,0,0,0s0,0,0,0l0,0s0,0,0,0,0,0,0,0h0l0,.07,0,0h0v0l0,.09h0a.07.07,0,0,0,0,0,.13.13,0,0,0,0,.06v.2s0,0,0,.06v0s0,0,0,0l0,.07,0,0,.14.27c.44,1-.53,2-2.83,3.86a23.55,23.55,0,0,0-1.9,1.6,4.29,4.29,0,0,0-1.25,3.1h-.42a7,7,0,0,0-.69-1.37,21.6,21.6,0,0,0-7.1-6.56h0l0,0-.06,0h-.34l-.1,0h0l-.07,0h0l0,0-.06,0s0,0,0,0l0,0,0,0s0,0,0,0l0,0h0v0a.21.21,0,0,0,0,.06.08.08,0,0,0,0,0h0l0,0,0,.09h0a.43.43,0,0,1,0,0s0,0,0,.07v.13a0,0,0,0,0,0,0v0a.64.64,0,0,1,0,.07v0s0,0,0,0l0,.07,0,0c0,.09.1.18.14.27.44,1-.52,2-2.83,3.85-.66.52-1.34,1.06-1.9,1.6a4.32,4.32,0,0,0-.83,1.16,6.2,6.2,0,0,0-1-3.22,21.84,21.84,0,0,0-7.1-6.56h-.08l-.07,0h-.32l-.11,0h0l0,0-.07,0h0l0,0-.06,0,0,0,0,0,0,0,0,0,0,0h0a.25.25,0,0,1,0,.07.08.08,0,0,1,0,0h0a.49.49,0,0,0,0,.11h0a.09.09,0,0,0,0,0,.15.15,0,0,0,0,.07s0,0,0,0v0a.17.17,0,0,0,0,.07v.06s0,0,0,.07,0,0,0,0,0,0,0,0a.25.25,0,0,0,0,.07v0a1.74,1.74,0,0,1,.14.27c.44,1-.52,2-2.83,3.85-.66.52-1.34,1.06-1.9,1.6a4.58,4.58,0,0,0-1.1,4.42,6.43,6.43,0,0,0,.39,1.17c-2.86.68-4.15,1.43-4.22,2.44a.13.13,0,0,0,0,.06v51.83c0,1.22,1.47,2.62,12.36,3.81a275.56,275.56,0,0,0,28.37,1.28,275.63,275.63,0,0,0,28.38-1.28c10.89-1.19,12.36-2.59,12.36-3.81V114.64A0,0,0,0,0,200.57,114.59Zm-7.48-4.9a10.58,10.58,0,0,0,.9-3.44q.33.44.63.9a4,4,0,0,1,.43,4.12,3.68,3.68,0,0,1-1.47,1.43A2.4,2.4,0,0,1,193.09,109.69Zm-1.52-6c1.39,1.55,1.17,3,.18,5.43a3.94,3.94,0,0,0,.37,4.1l-.23,0h0c-.12,0-.25,0-.38.06h-.07l-.25,0a2.88,2.88,0,0,1-2.06-2.88,6.35,6.35,0,0,1,1.05-2.39C190.88,106.88,191.77,105.37,191.57,103.72Zm-4.07,2.72a7.71,7.71,0,0,0,2.12-3.82c1.11,1.66.25,3.13-.72,4.76a7.36,7.36,0,0,0-1.24,3,3.94,3.94,0,0,0,1,3l-.7,0-.53,0a3.45,3.45,0,0,1-1.79-3.78A7.64,7.64,0,0,1,187.5,106.44Zm-3.32,1.12c.49-.48,1.1-1,1.74-1.47a7.42,7.42,0,0,0-1.72,3.19,4.78,4.78,0,0,0,.68,3.6h0l-.17-.12s0,0,0,0a.86.86,0,0,1-.14-.13l-.08-.09-.12-.13-.1-.15a.36.36,0,0,1-.07-.1,1.37,1.37,0,0,1-.13-.2l-.09-.16-.07-.15a2.36,2.36,0,0,1-.12-.28l0,0c-.05-.12-.09-.25-.13-.38a2,2,0,0,1-.07-.26A3.24,3.24,0,0,1,184.18,107.56Zm-5.87,4a10.58,10.58,0,0,0,.9-3.44q.33.43.63.9a5.15,5.15,0,0,1,.79,2v0a3.57,3.57,0,0,1-.16,1.67.5.5,0,0,0-.05.13l0,.1a1.3,1.3,0,0,1-.08.17l0,.05a3.67,3.67,0,0,1-1.45,1.42C178.35,114.23,177.62,113.31,178.31,111.59Zm-1.52-6c1.39,1.55,1.17,3,.18,5.43a4,4,0,0,0,.36,4.1l-.2,0h-.07l-.35.05-.16,0h-.16a2.89,2.89,0,0,1-2.07-2.87,6.38,6.38,0,0,1,1.05-2.4C176.1,108.78,177,107.27,176.79,105.62Zm-4.07,2.72a7.79,7.79,0,0,0,2.12-3.82c1.11,1.66.25,3.13-.72,4.76a7.34,7.34,0,0,0-1.24,3,4,4,0,0,0,1,3l-.69,0-.52,0a3.49,3.49,0,0,1-1.8-3.78A7.64,7.64,0,0,1,172.72,108.34Zm-4.11,2.82a.22.22,0,0,1,0-.08c0-.08,0-.17,0-.26a1.36,1.36,0,0,0,0-.17,2.63,2.63,0,0,1,.7-1.19c.49-.48,1.1-1,1.74-1.47a7.48,7.48,0,0,0-1.72,3.19,4.81,4.81,0,0,0,.68,3.61,3.67,3.67,0,0,1-1.41-2.27A4.49,4.49,0,0,1,168.61,111.16Zm-5.08-1.47a10.58,10.58,0,0,0,.9-3.44q.33.44.63.9a4.4,4.4,0,0,1,.79,3.07h0a3.15,3.15,0,0,1-.09.42s0,0,0,0-.08.24-.13.36l0,.07c0,.08-.08.16-.13.24a1.4,1.4,0,0,1-.1.16l-.1.15a3,3,0,0,1-.33.38l0,0-.19.17-.09.08-.22.16-.08.06-.29.18A2.45,2.45,0,0,1,163.53,109.69Zm-1.52-6c1.39,1.55,1.17,3,.18,5.42a4,4,0,0,0,.37,4.11l-.23,0h0l-.38.06h-.06l-.26,0a2.86,2.86,0,0,1-2.06-2.87,6.51,6.51,0,0,1,1.05-2.39C161.32,106.88,162.21,105.37,162,103.72Zm-4.07,2.72a7.71,7.71,0,0,0,2.12-3.82c1.11,1.65.25,3.12-.72,4.76a7.36,7.36,0,0,0-1.24,3,4,4,0,0,0,1,3l-.93,0-.29,0a3.45,3.45,0,0,1-1.8-3.78A7.64,7.64,0,0,1,157.94,106.44Zm-3.32,1.12c.49-.48,1.1-1,1.74-1.47a7.42,7.42,0,0,0-1.72,3.19,4.78,4.78,0,0,0,.68,3.6h0l-.06,0-.07,0,0,0-.09-.07,0,0-.1-.09v0a.52.52,0,0,1-.1-.11h0l-.11-.12h0l-.1-.14a0,0,0,0,1,0,0s-.07-.11-.11-.17l-.09-.15s0,0,0,0l-.09-.16a.08.08,0,0,0,0,0l-.07-.16s0,0,0-.06a.77.77,0,0,1-.07-.16l0-.07A.78.78,0,0,1,154,111l0-.1a.65.65,0,0,1,0-.13l0-.11c0-.06,0-.11,0-.17a.64.64,0,0,1,0-.09s0-.06,0-.09A3.12,3.12,0,0,1,154.62,107.56Zm-6.1,4a11.12,11.12,0,0,0,.9-3.44c.21.29.42.59.62.9a5.42,5.42,0,0,1,.69,1.5h0a3.57,3.57,0,0,1-.07,2.2l0,0a1.67,1.67,0,0,1-.08.2l-.05.1s0,.08-.07.13l-.11.17-.06.09-.14.18,0,.07-.18.19,0,0a2.09,2.09,0,0,1-.22.2h0a3.3,3.3,0,0,1-.61.42A2.4,2.4,0,0,1,148.52,111.59Zm-1.53-6c1.39,1.55,1.18,3,.19,5.43a4,4,0,0,0,.36,4.1l-.21,0h-.06l-.36.06h-.32a2.89,2.89,0,0,1-2.06-2.87,6.31,6.31,0,0,1,1-2.39C146.31,108.78,147.19,107.27,147,105.62Zm-4.07,2.72a7.71,7.71,0,0,0,2.12-3.82c1.12,1.66.25,3.13-.71,4.76a7.24,7.24,0,0,0-1.25,3,4,4,0,0,0,1,3c-.34,0-.77,0-1.22,0a3.52,3.52,0,0,1-1.8-3.78A7.64,7.64,0,0,1,142.92,108.34Zm-4.13,3.22a2.85,2.85,0,0,1,.82-2.1,21.5,21.5,0,0,1,1.74-1.47,7.35,7.35,0,0,0-1.72,3.2,4.74,4.74,0,0,0,.67,3.6h0l-.1-.06,0,0-.14-.11,0,0a.68.68,0,0,1-.12-.12l0,0a4.22,4.22,0,0,1-.89-1.73h0c0-.1-.05-.2-.07-.29v0l0-.23s0-.1,0-.15v0c0-.11,0-.23,0-.36ZM134,109.69a10.58,10.58,0,0,0,.9-3.44q.33.44.63.9a4.1,4.1,0,0,1,.63,3.67h0c0,.11-.08.2-.12.3a.25.25,0,0,0,0,.07,1.62,1.62,0,0,1-.1.18l-.09.14-.08.12-.13.17-.06.06a4,4,0,0,1-1,.85A2.43,2.43,0,0,1,134,109.69Zm-1.52-6c1.39,1.55,1.18,3,.18,5.43a3.94,3.94,0,0,0,.37,4.1l-.23,0h0c-.12,0-.25,0-.38.06h-.08l-.24,0a2.88,2.88,0,0,1-2.06-2.88,6.51,6.51,0,0,1,1.05-2.39C131.76,106.88,132.65,105.37,132.45,103.72Zm-4.07,2.72a7.71,7.71,0,0,0,2.12-3.82c1.12,1.66.25,3.13-.71,4.77a7.15,7.15,0,0,0-1.25,3,4,4,0,0,0,1,3h-.69l-.53,0a3.49,3.49,0,0,1-1.79-3.78A7.51,7.51,0,0,1,128.38,106.44Zm-3.31,1.12c.49-.48,1.09-1,1.73-1.47a7.3,7.3,0,0,0-1.71,3.19,4.73,4.73,0,0,0,.67,3.6,3.6,3.6,0,0,1-1.4-2.26A3.25,3.25,0,0,1,125.07,107.56Zm-.91,5.84h0c.09.11.19.21.29.31h0l.27.22a.18.18,0,0,1,.07,0l.28.17.07,0a1.94,1.94,0,0,0,.3.13,14.74,14.74,0,0,0,4.19.48h.87c.22,0,.44,0,.66,0h.86l.57-.06.2,0,.55-.1.17,0,.41-.12.18-.06a4.5,4.5,0,0,0,.51-.2l.05,0,.08,0,.1,0,.21-.1.16-.1.27-.16.09-.06a5.06,5.06,0,0,0,1.25-1.19l0-.05a2.9,2.9,0,0,0,.19-.29l.06-.09.07-.12.08-.16s0,0,0,0h0a6.07,6.07,0,0,0,.15,1.09,5.29,5.29,0,0,0,1.73,3l.05,0,.18.12.07,0,.17.09.08,0a1.45,1.45,0,0,0,.22.09h0a8.82,8.82,0,0,0,1.84.36,22.14,22.14,0,0,0,2.35.12h.86c.22,0,.44,0,.67,0h.84a5.9,5.9,0,0,0,.59-.06l.2,0,.54-.1.18,0,.4-.11.19-.07.5-.19,0,0,.08,0a.6.6,0,0,0,.11-.06l.16-.07.21-.12.13-.09a1.64,1.64,0,0,0,.22-.14l.11-.07.22-.17.08-.07.23-.19a.12.12,0,0,1,.05,0l.23-.24,0,0,.23-.27h0a4.6,4.6,0,0,0,.71-1.28h0a2,2,0,0,0,.1-.32,0,0,0,0,0,0,0c0-.1.06-.21.08-.31a.06.06,0,0,1,0,0,4.3,4.3,0,0,0,.08-1s0,0,0-.06a1.93,1.93,0,0,0,0-.24.66.66,0,0,0,0-.14v0h.25s0,.1,0,.14a.14.14,0,0,0,0,.07,2,2,0,0,0,.07.23.64.64,0,0,1,0,.07l.08.21,0,.08a1.42,1.42,0,0,0,.08.18l0,.1.07.15.06.12a.75.75,0,0,1,.07.12l.08.14.05.09.1.15.05.07.11.16,0,0,.13.17,0,0,.15.16,0,0,.15.15,0,0,.15.13.05,0,.14.1.08,0,.12.07.11.06.1,0,.2.08a15.11,15.11,0,0,0,4.19.48l.87,0h0c.22,0,.44,0,.66,0h.89c.19,0,.37,0,.55-.06l.2,0,.55-.11.17,0,.41-.11.18-.06.5-.2.05,0,.08,0,.08,0,.37-.19.07-.05a4,4,0,0,0,.43-.28l.07,0,.35-.28,0,0a5.36,5.36,0,0,0,.68-.75.21.21,0,0,1,0-.06c.08-.12.17-.25.24-.38l0,0,0,0a3.39,3.39,0,0,0,.18-.39l0-.06a3.25,3.25,0,0,0,.15-.4s0,0,0,0h0a.31.31,0,0,0,0,.1v.2a5.85,5.85,0,0,0,.77,3.11l.06.1.09.14.15.23,0,0a4,4,0,0,0,1,1h0l.22.13.06,0a1.39,1.39,0,0,0,.26.1,14.74,14.74,0,0,0,4.19.48h.86a5.12,5.12,0,0,0,.67,0h.86a5.42,5.42,0,0,0,.58-.06l.19,0,.55-.1.17-.05.41-.11.18-.06c.18-.06.34-.13.51-.2l0,0,.08,0,.13-.07.11-.06.24-.13.11-.06.22-.15.1-.06.23-.17.07-.06.27-.24h0l.28-.27h0l.24-.28,0,0a1.44,1.44,0,0,0,.18-.25.25.25,0,0,0,0-.07,1.28,1.28,0,0,0,.15-.25s0,0,0,0l0,0c0-.07.07-.15.11-.22l0-.1.09-.21,0-.12c0-.07,0-.13.07-.19s0-.1,0-.15,0-.12,0-.18a.94.94,0,0,1,0-.16,1,1,0,0,0,0-.17l0-.17c0-.06,0-.12,0-.17a1.09,1.09,0,0,0,0-.18s0,0,0-.06h.2v0c.06.15.12.3.19.45h0a5.13,5.13,0,0,0,.76,1.17h0a3.91,3.91,0,0,0,.6.56l0,0a1.92,1.92,0,0,0,.31.18l.05,0a2,2,0,0,0,.31.13,14.7,14.7,0,0,0,4.19.48h.87c.22,0,.44,0,.66,0h.87l.56-.06.21,0a5.17,5.17,0,0,0,.54-.11l.18,0,.39-.11.2-.07.5-.19.05,0,.07,0,.12-.06.13-.07.23-.12.12-.08a1.37,1.37,0,0,0,.2-.13.71.71,0,0,0,.14-.1l.17-.12.15-.12s0,0,.06,0c3.12.65,3.8,1.21,3.92,1.36-.12.79-.9,1.2-2.34,1.87a22.41,22.41,0,0,0-2.09,1.09,5.43,5.43,0,0,1-3.42.26c-1.54-.19-3.28-.4-4.78.62-.93.62-2,.43-3.63.15a19.41,19.41,0,0,0-8.19,0,28.48,28.48,0,0,1-8.51.44,19.05,19.05,0,0,0-6.6.38,6.06,6.06,0,0,1-4.75-.44,9.77,9.77,0,0,0-4.84-1c-2.79.18-4.12,2.1-5.3,3.8-.89,1.29-1.66,2.41-2.93,2.67-.4.09-.54,0-.59,0-.38-.25-.56-1.23-.73-2.09-.34-1.81-.86-4.53-3.95-4.53a7.73,7.73,0,0,1-4.13-1,9.23,9.23,0,0,0-4.55-1.12,19.39,19.39,0,0,1-6.78-1.46A15.31,15.31,0,0,1,124.16,113.4Zm75,53c-.15.2-1.54,1.46-11.9,2.52-7.43.77-17.15,1.19-27.39,1.19s-20-.42-27.38-1.19c-10.37-1.06-11.75-2.32-11.91-2.52V151c1.56.74,4.71,1.49,10.92,2.17a275.12,275.12,0,0,0,28.37,1.29,275,275,0,0,0,28.37-1.29c6.22-.68,9.37-1.43,10.92-2.17v15.35Zm0-17c-.15.19-1.52,1.45-11.9,2.52-7.43.77-17.15,1.19-27.39,1.19s-20-.42-27.38-1.19c-10.38-1.07-11.75-2.33-11.91-2.52v-9.6c1.56.74,4.71,1.49,10.92,2.17a275.42,275.42,0,0,0,28.37,1.28,275.28,275.28,0,0,0,28.37-1.28c6.22-.68,9.37-1.43,10.92-2.17v9.6Zm0-11.3c-.15.19-1.52,1.45-11.9,2.52-7.43.76-17.15,1.19-27.39,1.19s-20-.42-27.38-1.19c-10.38-1.07-11.75-2.33-11.91-2.52v-4.76c1.56.74,4.71,1.49,10.92,2.17a275.42,275.42,0,0,0,28.37,1.28,275.28,275.28,0,0,0,28.37-1.28c6.22-.68,9.37-1.43,10.92-2.17V138Zm0-6.46c-.15.19-1.52,1.45-11.9,2.52-7.43.77-17.15,1.19-27.39,1.19s-20-.42-27.38-1.19c-10.38-1.07-11.75-2.33-11.9-2.52v-4c1.55.75,4.7,1.5,10.91,2.17A275.26,275.26,0,0,0,159.84,131a275.33,275.33,0,0,0,28.38-1.29c6.21-.67,9.36-1.42,10.91-2.17Zm0-5.7c-.15.19-1.52,1.45-11.9,2.52-7.43.76-17.15,1.18-27.39,1.18s-20-.42-27.38-1.18c-10.38-1.07-11.75-2.33-11.91-2.52V115.76a20.32,20.32,0,0,0,7.21,1.52,7.88,7.88,0,0,1,3.93,1,9.14,9.14,0,0,0,4.78,1.11c1.77,0,2.13,1.27,2.53,3.36.24,1.25.47,2.44,1.35,3a1.89,1.89,0,0,0,1.1.32A3.11,3.11,0,0,0,142,126c1.83-.38,2.84-1.85,3.82-3.27s2.11-3,4.2-3.18a8.32,8.32,0,0,1,4.19.85,7.48,7.48,0,0,0,5.71.5,17.41,17.41,0,0,1,6.11-.33,29.36,29.36,0,0,0,8.91-.47,18,18,0,0,1,7.63,0c1.76.31,3.28.57,4.68-.38,1.06-.71,2.39-.55,3.8-.38s3,.36,4.35-.46a21.44,21.44,0,0,1,1.95-1,14.21,14.21,0,0,0,1.74-.92v8.92Zm-9.43,7.47a.69.69,0,0,0,.45-.16l1.52-1.23a.73.73,0,1,0-.91-1.13l-1.52,1.24a.72.72,0,0,0,.46,1.28Zm-17.56-1.28-1.95,1.57a.72.72,0,0,0-.11,1,.74.74,0,0,0,.57.27.69.69,0,0,0,.45-.16l2-1.57a.72.72,0,0,0,.11-1A.73.73,0,0,0,172.14,132.06Zm11.26.89s-1.65-.95-2-1.18a.73.73,0,1,0-.77,1.23c.39.24,2,1.16,2.07,1.2a.65.65,0,0,0,.36.1.72.72,0,0,0,.35-1.35Zm12.71-2.79,1,.75a.7.7,0,0,0,.43.15.72.72,0,0,0,.44-1.3l-1-.75a.72.72,0,0,0-1,.13A.73.73,0,0,0,196.11,130.16Zm-30.57,14.21a.61.61,0,0,0-.6.61.6.6,0,1,0,.6-.61Zm-17.63,2.47a.61.61,0,1,0,.6.61A.6.6,0,0,0,147.91,146.84Zm5.75,3.43a.59.59,0,0,0-.6.6.6.6,0,0,0,.6.6.6.6,0,0,0,.6-.6A.6.6,0,0,0,153.66,150.27Zm-14.31-5.8a.6.6,0,0,0-.6.6.61.61,0,1,0,1.21,0A.6.6,0,0,0,139.35,144.47Zm17.73.62a.6.6,0,0,0-.6.6.6.6,0,0,0,1.2,0A.6.6,0,0,0,157.08,145.09Zm-14.92,3.8a.6.6,0,1,0,.6.6A.6.6,0,0,0,142.16,148.89Zm21.53,1.18a.61.61,0,1,0,.6.61A.61.61,0,0,0,163.69,150.07Zm9.55.1a.61.61,0,1,0,.6.6A.6.6,0,0,0,173.24,150.17Zm6.41-2a.61.61,0,0,0,0,1.21.61.61,0,0,0,0-1.21Zm1.33-4.08a.6.6,0,0,0-.6.6.61.61,0,1,0,.6-.6Zm-9.88,1.55a.6.6,0,0,0-.6.6.6.6,0,0,0,.6.6.6.6,0,0,0,0-1.2Zm-38.4,1.14a.61.61,0,1,0,.6.6A.6.6,0,0,0,132.7,146.75Z"/><path class="cls-5" d="M84.3,97.82a.73.73,0,0,0,.25,0,.89.89,0,0,0,.86-.64c.18-.6.91-2.41,1.92-2.94a.91.91,0,0,0,.38-1.22.89.89,0,0,0-1.21-.37c-1.86,1-2.71,3.71-2.8,4A.88.88,0,0,0,84.3,97.82Zm13.64,14A.9.9,0,0,0,96.58,113L99,115.88a.92.92,0,0,0,.68.31.88.88,0,0,0,.59-.22.91.91,0,0,0,.09-1.27ZM69.07,118l-3.64-2a.9.9,0,1,0-.85,1.58l3.64,2a.91.91,0,0,0,.42.11.92.92,0,0,0,.8-.47A.9.9,0,0,0,69.07,118Zm38.18-2.2a6.18,6.18,0,0,1-2.67-2.71A21.3,21.3,0,0,0,100.1,108,17.48,17.48,0,0,0,97,106a7.49,7.49,0,0,0,2-2.15,8.06,8.06,0,0,0,1.16-5.14c-.29-2.55-1.73-4.27-3.58-4.29a5,5,0,0,1-2.81-.85c1.12-2.46,5.74-11.31,14.85-14a.9.9,0,0,0-.5-1.72c-9.51,2.77-14.37,11.48-15.83,14.57a10.82,10.82,0,0,0-2.85-1.75,4.79,4.79,0,0,0-5,.65,38.89,38.89,0,0,0-4-3.56.84.84,0,0,0-.27-.13h0l-.15,0h0a.38.38,0,0,0-.15,0h0a.92.92,0,0,0-.32.1h0l-.11.06,0,0h0a.94.94,0,0,0-.1.1l0,0a1,1,0,0,0-.08.11v0l-.06.13v0l0,.16v0a.33.33,0,0,0,0,.14v0c0,.22.46,5.47-4.55,7-7.39,2.27-10.82,6.89-9.68,13a11.41,11.41,0,0,0-5.24,4.29,10.39,10.39,0,0,1-3,2.91c-4,2.3-3.6,5.69-3.5,6.24.1,1.39,1.62,22,3.56,29.24a3.36,3.36,0,0,0,.74,1.3.84.84,0,0,0,.31.31,13.51,13.51,0,0,0,5.57,2.6.9.9,0,0,0,.32.09,48.07,48.07,0,0,0,4.83,1l.16,0a100,100,0,0,0,25.87,0l.16,0a48.07,48.07,0,0,0,4.83-1,1,1,0,0,0,.33-.09,13.53,13.53,0,0,0,5.56-2.6.84.84,0,0,0,.31-.31,3.36,3.36,0,0,0,.74-1.3c2-7.29,3.47-27.94,3.56-29.24C110.25,120.38,110.08,117.06,107.25,115.84ZM86,92.39a3.12,3.12,0,0,1,2.74-.06A10,10,0,0,1,91.38,94a7.77,7.77,0,0,0,5.18,2.18c.87,0,1.63,1.15,1.81,2.7a6.2,6.2,0,0,1-4.72,6.74,2.39,2.39,0,0,0-.48-.19A14,14,0,0,0,90,105a6.1,6.1,0,0,0-3.86,1.07,6.3,6.3,0,0,1-3.53-4.56h0a8.09,8.09,0,0,1,.09-2.83C83.41,95.39,84.55,93.21,86,92.39ZM94,110c0,1.2-.79,2-2.21,2.32a7.66,7.66,0,0,1-1.82.24h0A3.17,3.17,0,0,1,86.85,111c-.42-1.43-.39-2.48.09-3.13.63-.86,2-1,3.1-1a11.8,11.8,0,0,1,2.71.33l.12.07.06,0A3.87,3.87,0,0,1,94,110Zm-8.83,1.55,0,0a4.38,4.38,0,0,0,1.13,1.51,5.5,5.5,0,0,1-4.64,0c-1.13-.51-1.77-2.2-1.74-4.52a10.64,10.64,0,0,1,1.39-5.27,8.28,8.28,0,0,0,3.77,4.23A6,6,0,0,0,85.14,111.56Zm-3.8-20.74c.6.53,1.25,1.15,1.87,1.79A14.78,14.78,0,0,0,81,98.36a10,10,0,0,0-.17,2.89c-1.69,1.27-2.65,4.56-2.69,7.33,0,2.52.62,4.48,1.84,5.57a7.66,7.66,0,0,1-5.5-1.13,5.47,5.47,0,0,1-2.53-4,9.9,9.9,0,0,1,2.43-7.57c.61-.67,1.29-1.32,2-2C78.83,97.14,81.54,94.57,81.34,90.82ZM75,97.28a8.19,8.19,0,0,0,1.87-.82c-.54.57-1.13,1.12-1.72,1.69s-1.47,1.38-2.12,2.1a11.64,11.64,0,0,0-2.88,9,7.24,7.24,0,0,0,2.47,4.6,8.49,8.49,0,0,1-2.73-.87,6.37,6.37,0,0,1-3.31-4.59C65.84,104.75,66.71,99.83,75,97.28ZM55.08,124.55l.09.1.5,6.65C55.42,128.63,55.22,126.25,55.08,124.55Zm4,27.2-2-26.83,2.65-.84,1.42,2.62,1.62,26.79A10.15,10.15,0,0,1,59,151.75ZM64.51,154l-1.64-27,2.62-1.17,1.66,1.59.56,27.17C66.55,154.42,65.48,154.21,64.51,154Zm5,.88L69,127.71l3.44-1,2.53,1.84.57,26.83C73.35,155.29,71.35,155.1,69.51,154.86Zm16.23.64c-1.37.05-2.78.08-4.23.08s-2.86,0-4.22-.08l-.57-26.8,4.79-2.06,4.79,2.06Zm7.77-.64c-1.84.24-3.84.43-6,.55l.57-26.83,2.53-1.84,3.44,1Zm5-.88c-1,.23-2,.44-3.2.62l.57-27.17,1.65-1.59,2.62,1.17Zm5.48-2.24a10.3,10.3,0,0,1-3.65,1.75L102,126.7l1.42-2.62,2.64.84Zm3.36-20.48.5-6.61.09-.1C107.8,126.24,107.6,128.61,107.35,131.26Zm.85-9.74-1.51,1.73-3.47-1.1a.91.91,0,0,0-1.06.42l-1.47,2.71-3-1.33a.91.91,0,0,0-1,.17l-2,1.91-4-1.14a.92.92,0,0,0-.77.14l-2.83,2.06-5.23-2.26a1,1,0,0,0-.71,0l-5.24,2.26L73.09,125a.92.92,0,0,0-.77-.14l-4,1.14-2-1.91a.9.9,0,0,0-1-.17l-3,1.34-1.47-2.72a.91.91,0,0,0-1.06-.42l-3.47,1.1-1.5-1.71c-.05-.66,0-2.68,2.65-4.19A12,12,0,0,0,61,114a9.74,9.74,0,0,1,4.3-3.66,8,8,0,0,0,3.78,4.28,10.51,10.51,0,0,0,4.86,1.18,7.34,7.34,0,0,0,1.82-.2,9.22,9.22,0,0,0,2.92.48,8.82,8.82,0,0,0,3.72-.81,6.84,6.84,0,0,0,1.58.18,7.73,7.73,0,0,0,4.22-1.31,6.66,6.66,0,0,0,1.78.24h0a9.62,9.62,0,0,0,2.23-.29,4.2,4.2,0,0,0,3.59-4.18,5.9,5.9,0,0,0-.77-2.85,13.47,13.47,0,0,1,4,2.34,19.56,19.56,0,0,1,4.13,4.74,7.81,7.81,0,0,0,3.46,3.36C108.47,118.32,108.3,120.77,108.2,121.52Zm-30.5-1.15a.9.9,0,1,0-1.49,1l1.67,2.46a.92.92,0,0,0,.75.39.85.85,0,0,0,.5-.16.89.89,0,0,0,.24-1.24Zm16-1.3-2.95,1.08a.9.9,0,0,0,.31,1.74,1.18,1.18,0,0,0,.31,0l3-1.09a.9.9,0,0,0-.62-1.68Z"/></g></g><g class="cls-3"><g class="cls-4"><path class="cls-5" d="M75.63,82.59l-3.85-2.74a.21.21,0,0,0-.24,0L67.8,82.51l-3.73-2.66a.21.21,0,0,0-.24,0l-3.74,2.66-3.73-2.66a.21.21,0,0,0-.29,0,.22.22,0,0,0,0,.29L60,82.93a.21.21,0,0,0,.24,0L64,80.27l3.73,2.66a.21.21,0,0,0,.24,0l3.74-2.66,3.73,2.66a.21.21,0,1,0,.24-.34Z"/></g></g><g class="cls-3"><g class="cls-4"><path class="cls-5" d="M242.9,22.1l-5.68-4.05a.49.49,0,0,0-.59,0l-5.39,3.84-5.38-3.84a.49.49,0,0,0-.59,0l-5.39,3.84-5.39-3.84a.51.51,0,0,0-.71.11.52.52,0,0,0,.12.71h0l5.68,4.05a.53.53,0,0,0,.59,0l5.39-3.84L231,22.92a.53.53,0,0,0,.59,0l5.38-3.84,5.39,3.84a.51.51,0,0,0,.71-.12A.5.5,0,0,0,242.9,22.1Z"/></g></g><g class="cls-3"><g class="cls-4"><path class="cls-5" d="M201.43,11.18,192.77,5a.78.78,0,0,0-.9,0l-8.21,5.85L175.45,5a.78.78,0,0,0-.9,0l-8.21,5.85L158.13,5a.77.77,0,0,0-1.08.18.76.76,0,0,0,.18,1.07h0l8.66,6.18a.78.78,0,0,0,.9,0L175,6.58l8.21,5.86a.78.78,0,0,0,.9,0l8.21-5.86,8.21,5.86a.79.79,0,0,0,1.08-.18A.77.77,0,0,0,201.43,11.18Z"/></g></g><g class="cls-3"><g class="cls-4"><path class="cls-5" d="M121.74,12.39,114.12,7a.68.68,0,0,0-.79,0l-7.21,5.14L98.9,7a.68.68,0,0,0-.79,0l-7.22,5.14L83.68,7a.68.68,0,1,0-.8,1.1h0L90.5,13.5a.68.68,0,0,0,.79,0L98.5,8.35l7.22,5.15a.68.68,0,0,0,.79,0l7.22-5.15L121,13.5a.69.69,0,0,0,1-.16A.7.7,0,0,0,121.74,12.39Z"/></g></g><g class="cls-3"><g class="cls-4"><path class="cls-5" d="M72.74,17l-2.83-2a.24.24,0,0,0-.3,0l-2.68,1.91L64.25,15A.23.23,0,0,0,64,15l-2.68,1.91L58.59,15a.25.25,0,0,0-.35.06.25.25,0,0,0,.06.35h0l2.83,2a.23.23,0,0,0,.29,0l2.69-1.91,2.68,1.91a.23.23,0,0,0,.29,0l2.68-1.91,2.69,1.91a.25.25,0,0,0,.35-.06A.25.25,0,0,0,72.74,17Z"/></g></g><g class="cls-3"><g class="cls-4"><path class="cls-5" d="M138.55,91.49l-5.69-4a1.19,1.19,0,0,0-1.41,0l-5,3.54-5-3.54a1.2,1.2,0,0,0-1.42,0l-5,3.54-5-3.54a1.21,1.21,0,1,0-1.41,2h0l5.68,4a1.23,1.23,0,0,0,1.42,0l5-3.54,5,3.54a1.22,1.22,0,0,0,1.41,0l5-3.54,5,3.54a1.22,1.22,0,1,0,1.42-2Z"/></g></g><g class="cls-3"><g class="cls-4"><path class="cls-5" d="M61.44,29.12a1.62,1.62,0,1,1-1.62-1.62A1.62,1.62,0,0,1,61.44,29.12Z"/></g></g><g class="cls-3"><g class="cls-4"><path class="cls-5" d="M126.62,78.59A1.62,1.62,0,1,1,125,77,1.62,1.62,0,0,1,126.62,78.59Z"/></g></g><g class="cls-3"><g class="cls-4"><path class="cls-5" d="M169.75,23a1.62,1.62,0,1,1-1.62-1.62A1.61,1.61,0,0,1,169.75,23Z"/></g></g><g class="cls-3"><g class="cls-4"><path class="cls-5" d="M205.34,101.24a1.62,1.62,0,1,1-1.62-1.62A1.62,1.62,0,0,1,205.34,101.24Z"/></g></g><g class="cls-3"><g class="cls-4"><path class="cls-5" d="M237.42,105.78a1.63,1.63,0,1,1-1.62-1.62A1.63,1.63,0,0,1,237.42,105.78Z"/></g></g><g class="cls-3"><g class="cls-4"><path class="cls-5" d="M91.67,50a1.62,1.62,0,1,1-1.62-1.62A1.61,1.61,0,0,1,91.67,50Z"/></g></g><g class="cls-3"><g class="cls-4"><path class="cls-5" d="M1.13,50a2.92,2.92,0,0,1-2.92,2.92h0A2.92,2.92,0,0,1-4.71,50h0a2.91,2.91,0,0,1,2.92-2.91h0A2.91,2.91,0,0,1,1.13,50Z"/></g></g><g class="cls-3"><g class="cls-4"><path class="cls-5" d="M250.32,30.44a1.63,1.63,0,1,1-1.63-1.62A1.62,1.62,0,0,1,250.32,30.44Z"/></g></g><g class="cls-3"><g class="cls-4"><path class="cls-5" d="M239,3.14a1.62,1.62,0,1,1-1.62-1.62A1.62,1.62,0,0,1,239,3.14Z"/></g></g><g class="cls-3"><g class="cls-4"><path class="cls-5" d="M52.38,92.08a1.63,1.63,0,1,1-1.63-1.62A1.63,1.63,0,0,1,52.38,92.08Z"/></g></g><g class="cls-3"><g class="cls-4"><path class="cls-5" d="M224.71,52.3a1,1,0,0,1-1,1h0a1,1,0,0,1-1-1h0a1,1,0,0,1,1-1h0a1,1,0,0,1,1,1Z"/></g></g><g class="cls-3"><g class="cls-4"><path class="cls-5" d="M110.32,103.51a2.28,2.28,0,1,1-2.28-2.27A2.27,2.27,0,0,1,110.32,103.51Z"/></g></g><g class="cls-3"><g class="cls-4"><path class="cls-5" d="M137.28,68.05a1,1,0,0,1-1,1h0a1,1,0,0,1-1-1h0a1,1,0,0,1,1-1h0a1,1,0,0,1,1,1Z"/></g></g><g class="cls-3"><g class="cls-4"><path class="cls-5" d="M16.12,87.86a1,1,0,0,1-1,1h0a1,1,0,0,1-1-1h0a1,1,0,0,1,1-1h0a1,1,0,0,1,1,1Z"/></g></g><g class="cls-3"><g class="cls-4"><path class="cls-5" d="M42.83,78.3a1,1,0,0,1-1,1h0a1,1,0,0,1-1-1h0a1,1,0,0,1,1-1h0a1,1,0,0,1,1,1Z"/></g></g><g class="cls-3"><g class="cls-4"><path class="cls-5" d="M0,101.24a1.83,1.83,0,0,1-1.83,1.83,1.83,1.83,0,0,1-1.83-1.83,1.83,1.83,0,0,1,1.83-1.82A1.83,1.83,0,0,1,0,101.24Z"/></g></g><g class="cls-3"><g class="cls-4"><path class="cls-5" d="M141.28,46.12a1,1,0,0,1-1,1h0a1,1,0,0,1-1-1h0a1,1,0,0,1,1-1h0a1,1,0,0,1,1,1Z"/></g></g><g class="cls-3"><g class="cls-4"><path class="cls-5" d="M224.71,66a4.33,4.33,0,1,1-4.33-4.32A4.33,4.33,0,0,1,224.71,66Z"/></g></g><g class="cls-3"><g class="cls-4"><path class="cls-5" d="M235.43-21.76a26.68,26.68,0,0,1-26.7,26.65h0A26.68,26.68,0,0,1,182-21.76h0a26.68,26.68,0,0,1,26.71-26.65h0a26.68,26.68,0,0,1,26.7,26.65Z"/></g></g><path class="cls-6" d="M79.42,133.88v1.68c0,2-1,3.19-3,3.19s-3-1.16-3-3.19V129c0-2,1-3.18,3-3.18s3,1.15,3,3.18v1.23H77.54v-1.36c0-.9-.4-1.25-1-1.25s-1,.35-1,1.25v6.83c0,.9.4,1.23,1,1.23s1-.33,1-1.23v-1.81Z"/><path class="cls-6" d="M87.06,138.6h-2l-.34-2.29H82.28l-.35,2.29H80.11l2-12.65H85Zm-4.53-4h1.91l-.93-6.4h0Z"/><path class="cls-6" d="M90.59,133.56,90,134.72v3.88H88V126h2v5.48h0L92.58,126h2l-2.77,5.64,2.77,7h-2Z"/><path class="cls-6" d="M97.46,131.28h2.73v1.81H97.46v3.7h3.43v1.81H95.47V126h5.42v1.81H97.46Z"/><path class="cls-6" d="M104.8,125.81c1.93,0,2.92,1.15,2.92,3.18v.39h-1.88v-.52c0-.9-.36-1.25-1-1.25s-1,.35-1,1.25.39,1.61,1.7,2.75c1.66,1.46,2.18,2.51,2.18,3.95,0,2-1,3.19-3,3.19s-3-1.16-3-3.19v-.77h1.88v.9c0,.9.4,1.23,1,1.23s1-.33,1-1.23-.39-1.61-1.69-2.75c-1.67-1.46-2.19-2.51-2.19-3.95C101.87,127,102.86,125.81,104.8,125.81Z"/><path class="cls-6" d="M118.12,138.6h-2l-.34-2.29h-2.44L113,138.6h-1.82l2-12.65h2.91Zm-4.54-4h1.92l-.94-6.4h0Z"/><path class="cls-6" d="M120.85,129.44h0v9.16H119V126h2.49l2,7.57h0V126h1.77V138.6h-2Z"/><path class="cls-6" d="M126.76,126h3.14c2,0,3,1.1,3,3.13v6.39c0,2-1,3.13-3,3.13h-3.14Zm2,1.81v9h1.12c.64,0,1-.32,1-1.23V129c0-.91-.38-1.23-1-1.23Z"/><path class="cls-6" d="M142.7,133.88v1.68c0,2-1,3.19-3,3.19s-3-1.16-3-3.19V129c0-2,1-3.18,3-3.18s3,1.15,3,3.18v1.23h-1.88v-1.36c0-.9-.4-1.25-1-1.25s-1,.35-1,1.25v6.83c0,.9.39,1.23,1,1.23s1-.33,1-1.23v-1.81Z"/><path class="cls-6" d="M143.75,129c0-2,1.06-3.18,3-3.18s3,1.15,3,3.18v6.57c0,2-1.07,3.19-3,3.19s-3-1.16-3-3.19Zm2,6.7c0,.9.4,1.25,1,1.25s1-.35,1-1.25v-6.83c0-.9-.39-1.25-1-1.25s-1,.35-1,1.25Z"/><path class="cls-6" d="M150.9,129c0-2,1.07-3.18,3-3.18s3,1.15,3,3.18v6.57c0,2-1.07,3.19-3,3.19s-3-1.16-3-3.19Zm2,6.7c0,.9.4,1.25,1,1.25s1-.35,1-1.25v-6.83c0-.9-.4-1.25-1-1.25s-1,.35-1,1.25Z"/><path class="cls-6" d="M160.82,133.56l-.61,1.16v3.88h-2V126h2v5.48h0l2.56-5.48h2L162,131.59l2.76,7h-2Z"/><path class="cls-6" d="M165.71,126h2V138.6h-2Z"/><path class="cls-6" d="M171.13,131.28h2.73v1.81h-2.73v3.7h3.43v1.81h-5.42V126h5.42v1.81h-3.43Z"/><path class="cls-6" d="M178.46,125.81c1.94,0,2.93,1.15,2.93,3.18v.39h-1.88v-.52c0-.9-.36-1.25-1-1.25s-1,.35-1,1.25.4,1.61,1.7,2.75c1.66,1.46,2.19,2.51,2.19,3.95,0,2-1,3.19-3,3.19s-3-1.16-3-3.19v-.77h1.88v.9c0,.9.4,1.23,1,1.23s1-.33,1-1.23-.4-1.61-1.7-2.75c-1.66-1.46-2.18-2.51-2.18-3.95C175.54,127,176.53,125.81,178.46,125.81Z"/><g id="_5" data-name="5"><g id="icon"><path class="cls-7" d="M170.21,87.27H84.91l-1.42,14.81h.09a7.6,7.6,0,0,0-.09,1.07c0,10,19.73,18.15,44.07,18.15s44.07-8.12,44.07-18.15Z"/><path class="cls-8" d="M84.91,87.26c0-9.7,19.1-17.57,42.65-17.57s42.65,7.87,42.65,17.57-19.1,17.57-42.65,17.57S84.91,97,84.91,87.26Z"/><path class="cls-7" d="M162.6,63.13H92.53L91.37,79.5c0,7.87,16.21,14.25,36.19,14.25s36.19-6.38,36.19-14.25Z"/><path class="cls-8" d="M92.53,63.16c0-8.73,15.68-15.81,35-15.81s35,7.08,35,15.81S146.91,79,127.56,79,92.53,71.89,92.53,63.16Z"/><path class="cls-8" d="M95.32,81.27a3.93,3.93,0,1,1,4.91,2.61A3.95,3.95,0,0,1,95.32,81.27Z"/><path class="cls-8" d="M124.83,88.41a3.93,3.93,0,1,1,4.9,2.61A3.93,3.93,0,0,1,124.83,88.41Z"/><path class="cls-8" d="M152.88,80.39a3.93,3.93,0,1,1,4.91,2.6A3.94,3.94,0,0,1,152.88,80.39Z"/><path class="cls-8" d="M141.31,86.36A3.93,3.93,0,1,1,146.22,89,3.94,3.94,0,0,1,141.31,86.36Z"/><path class="cls-8" d="M109,86.07a3.93,3.93,0,1,1,4.91,2.6A3.93,3.93,0,0,1,109,86.07Z"/><path class="cls-9" d="M127,116.23a19.45,19.45,0,0,1-10.43-3.3c-.65-.4-1.26-.82-1.86-1.23-2.28-1.54-4.25-2.88-7.45-3.07a18.25,18.25,0,0,0-4.48.48,15,15,0,0,1-6.86.23c-3.3-.91-4.79-3.61-6.11-6-1.6-2.9-2.86-5.18-6.81-4.76l-.23-2.15c5.37-.57,7.26,2.85,8.93,5.86,1.22,2.21,2.37,4.29,4.79,5,1.83.51,3.8.13,5.89-.27a20.06,20.06,0,0,1,5-.52c3.79.24,6.19,1.87,8.52,3.45.58.39,1.16.79,1.78,1.18,6.55,4.08,12.7,3.91,20-.54.43-.26.84-.52,1.24-.78,2.21-1.43,4.31-2.78,7.78-2.9a18.34,18.34,0,0,1,6.38,1.25,17.75,17.75,0,0,0,4.89,1.13c4.35.12,6.31-3.33,8.38-7,1.25-2.21,2.54-4.5,4.4-6L172,98c-1.53,1.19-2.65,3.2-3.85,5.32-2.19,3.89-4.67,8.33-10.33,8.11a19.35,19.35,0,0,1-5.49-1.23,15.91,15.91,0,0,0-5.64-1.15c-2.87.1-4.56,1.19-6.69,2.56-.41.26-.83.54-1.27.81-4.17,2.56-8,3.83-11.78,3.83Z"/></g></g><path class="cls-6" d="M109.85,40.13c-1.48-5.68-.39-13.2-1.18-17.45-.36-1.71-1.28-2.58-2.76-2.3-2.91.53-4.23,8.59-3.14,14.17a65.82,65.82,0,0,0,2.13,8.34c.32,1,.71,1.9.95,2.64.38,1.18-.16,2-.61,2.16s-.95-.38-1.29-1.14c-1.24-2.84-3.65-9.86-6.19-15.48-2.29-5.07-4.61-8.91-7.51-8-3.47,1.17,1.8,15.11,2.31,16,3.92,8.16,4.36,9.41,5,10.87a1.47,1.47,0,0,1-.72,1.82c-.39.15-.63-.09-.88-.5s-.66-1.88-2.4-5.26c-.87-1.67-2.1-3.87-3.84-6.71-4.38-7.28-10.59-13.5-15.21-11.27-2.58,1.23-4.22,6.61.81,13.18,3,4,6.59,5.9,8.3,5s.42-3.67-.69-5.45a11.24,11.24,0,0,0-4.13-4.19,1.72,1.72,0,0,1-.56-.38.33.33,0,0,1,.08-.48,1.23,1.23,0,0,1,.63,0,8.12,8.12,0,0,1,5.74,3.88c1.58,2.73,1.82,6.43-.62,7.67-2.65,1.35-7,.1-10.82-4.57-5.92-7.19-3.24-13.89,1.34-16,5.73-2.71,10,.24,15.45,9-1.58-3.17-5-13.14.5-14.95,4.62-1.45,7.55,3.12,10.68,12.67-.86-5-.09-14.09,4.89-15,2.84-.52,4.73,1.62,5.25,4.59.75,4.62,0,12,1,16.87.43,2.05,1.3,3.82,2.75,3.62,1.89-.26,2.64-5.57,2.67-5.58s.07-.43.34-.46a.39.39,0,0,1,.42.39,3.12,3.12,0,0,1,0,.55s-.86,6.62-3.76,7C112.2,45.76,110.62,43.18,109.85,40.13Z"/><path class="cls-6" d="M124.27,40c-.6,2-1.34,4.08-3,4.18-1.19.08-3.19-.82-4.06-6.95s.79-8.25,2-8.34a.41.41,0,0,1,.48.43c0,.5-1,2.29-.27,8.56.45,4.12,1.66,4.76,2.36,4.72,1.1-.07,2.35-4.22,2.29-6.31-.33-6.81,1-9.19,2.66-9.2a.41.41,0,0,1,.45.46,41,41,0,0,0-.91,8.77c.09,5.15.67,6.27,1.54,6.28,1.48,0,3.15-5.17,3.18-5.17s.14-.42.42-.41a.37.37,0,0,1,.34.45,2.86,2.86,0,0,1-.12.53s-2,6.46-4.66,6.45C125.72,44.49,124.48,42.36,124.27,40Z"/><path class="cls-6" d="M132.9,29.51a5.5,5.5,0,0,1-1.79-3.84,1.71,1.71,0,0,1,1.55-1.81c1,.05,1.76.76,1.43,4.79a3.65,3.65,0,0,0,2.7,1.33c.64.06,1.05.29,1,.91-.12.93-1.43,3.27-1.95,8-.34,3.06.16,4.2,1,4.29,1.48.16,3.8-4.82,3.83-4.82s.2-.41.47-.37a.37.37,0,0,1,.29.48,3.74,3.74,0,0,1-.19.53c-.05,0-2.84,6.22-5.48,5.95-1.44-.15-2.46-1.86-2.24-4.76.33-4.11,1.65-6.63,1.85-8.49,0-.46-.8-1.11-1.57-1.62a47.43,47.43,0,0,1-2.13,8s-.15.43-.42.41-.35-.17-.34-.44a3,3,0,0,1,.12-.54A51.7,51.7,0,0,0,132.9,29.51Z"/><path class="cls-6" d="M140.43,38c1.14-6.77,3.14-8.94,4.73-8.68a.4.4,0,0,1,.34.54,32.93,32.93,0,0,0-3.1,9.23c-.8,4-.36,5.21.41,5.36,1.4.25,4.37-4.89,4.4-4.88s.23-.39.51-.33.32.23.24.49a2.78,2.78,0,0,1-.24.51c-.05,0-3.65,6.26-5.66,5.9C140.75,45.86,139.38,44.2,140.43,38ZM148,21.48a1.37,1.37,0,0,1,.95,1.84c-.29,1.19-1.3,2.31-2.37,2.12a1.43,1.43,0,0,1-1-1.86C145.86,22.39,146.82,21.27,148,21.48Z"/><path class="cls-6" d="M146.7,38.58c1.56-6.29,5.12-8.32,7.38-7.73,1.94.5,3.14,2.59,1.85,6-1.13,3-3.21,4.06-5.25,3.54a6,6,0,0,1-1.9-.83c-.71,3.38.26,5.23,1.78,5.65,2.48.68,5.54-3.25,5.56-3.25s.28-.37.55-.28.3.26.19.52a3.62,3.62,0,0,1-.3.48s-3.83,5-7,4.16C147.25,46.18,145.51,43.37,146.7,38.58Zm2.35-.13a4.35,4.35,0,0,0,1.46.59c1.41.36,2.8-1.09,3.59-3.33.71-2.06.34-3.38-.33-3.56C152.62,31.86,150.39,33.88,149.05,38.45Z"/><path class="cls-6" d="M157.2,52.5a.39.39,0,0,1-.5.24c-.94-.41-1.61-1.89-1.72-3.93-.18-3.67,1.21-8,3.43-13.56,4.1-10.5,7.89-12.8,10.06-12,1.69.6,1.63,2.43.58,4.58-3.27,6.42-9.3,12.17-10.67,13.69-1.4,4-2.41,8.39-1.27,10.5C157.22,52.17,157.31,52.29,157.2,52.5Zm1.87-12.91c2.1-2.43,6.62-7.3,9-12.26.67-1.41.86-2.27,0-2.58s-3.93,2.63-7.59,11.27C160.07,37.08,159.56,38.29,159.07,39.59Z"/><path class="cls-6" d="M176.23,24.39A2,2,0,0,1,177.4,27c-1.12,1.87-4.79,4.36-5.8,3.94a.41.41,0,0,1-.22-.61c.22-.43,1.09-.54,1.74-1.74.38-.71-.17-1.07.4-2.13S175.22,24,176.23,24.39Z"/><path class="cls-6" d="M172.11,38.75c1-1.58,2.13-2.11,3-1.7s.86,1.19.33,2a13,13,0,0,1-2.16,2c-1.23,2.06.86,6.63-1.5,9.85a5.31,5.31,0,0,1-.65.75c1.66.09,3.6-1.5,3.6-1.5s.38-.3.62-.16.23.33.06.56a3,3,0,0,1-.43.4s-2.52,2.13-4.82,1.51a5.39,5.39,0,0,1-5.11.75,2.75,2.75,0,0,1-1.3-3.85,1.81,1.81,0,0,1,2.25-1,24.59,24.59,0,0,1,3,2.22c.2-.26.41-.52.59-.79,2-2.9,1.49-6.22,1.79-7.71A59,59,0,0,1,167,46.81s-.34.33-.59.21-.26-.29-.12-.54a4.59,4.59,0,0,1,.37-.45s2-2,4.27-4.79A15.56,15.56,0,0,1,172.11,38.75Zm-3.9,12.68A17.89,17.89,0,0,0,166,49.82a.89.89,0,0,0-1.18.42,1.44,1.44,0,0,0,.65,2C166.29,52.62,167.29,52.18,168.21,51.43Z"/><path class="cls-9" d="M145.09,20.43c1.57-2.16,11.56-8,12.81-7.22.1.06-4.57,9-6.36,12.42a3.81,3.81,0,0,1-5.68,1.13A4.47,4.47,0,0,1,145.09,20.43Z"/><rect class="cls-10" x="182.17" y="38.96" width="7.98" height="2.92"/><rect class="cls-10" x="182.16" y="43.16" width="7.99" height="0.18"/><rect class="cls-10" x="182.16" y="37.5" width="7.99" height="0.18"/><rect class="cls-10" x="192.74" y="44.47" width="2.92" height="8.41"/><rect class="cls-10" x="191.28" y="44.46" width="0.18" height="8.42"/><rect class="cls-10" x="196.95" y="44.46" width="0.18" height="8.42"/><rect class="cls-10" x="192.74" y="52.88" width="2.92" height="8.41"/><rect class="cls-10" x="191.28" y="52.88" width="0.18" height="8.42"/><rect class="cls-10" x="196.95" y="52.88" width="0.18" height="8.42"/><rect class="cls-10" x="192.74" y="61.3" width="2.92" height="8.41"/><rect class="cls-10" x="191.28" y="61.29" width="0.18" height="8.42"/><rect class="cls-10" x="196.95" y="61.29" width="0.18" height="8.42"/><rect class="cls-10" x="192.74" y="69.71" width="2.92" height="8.41"/><rect class="cls-10" x="191.28" y="69.7" width="0.18" height="8.42"/><rect class="cls-10" x="196.95" y="69.7" width="0.18" height="8.42"/><rect class="cls-10" x="192.74" y="78.12" width="2.92" height="8.41"/><rect class="cls-10" x="191.28" y="78.11" width="0.18" height="8.42"/><rect class="cls-10" x="196.95" y="78.11" width="0.18" height="8.42"/><rect class="cls-10" x="192.74" y="86.53" width="2.92" height="8.41"/><rect class="cls-10" x="191.28" y="86.53" width="0.18" height="8.42"/><rect class="cls-10" x="196.95" y="86.53" width="0.18" height="8.42"/><rect class="cls-10" x="192.74" y="94.95" width="2.92" height="8.41"/><rect class="cls-10" x="191.28" y="94.94" width="0.18" height="8.42"/><rect class="cls-10" x="196.95" y="94.94" width="0.18" height="8.42"/><rect class="cls-10" x="192.74" y="103.36" width="2.92" height="8.41"/><rect class="cls-10" x="191.28" y="103.35" width="0.18" height="8.42"/><rect class="cls-10" x="196.95" y="103.35" width="0.18" height="8.42"/><rect class="cls-10" x="192.74" y="111.77" width="2.92" height="8.41"/><rect class="cls-10" x="191.28" y="111.77" width="0.18" height="8.42"/><rect class="cls-10" x="196.95" y="111.77" width="0.18" height="8.42"/><rect class="cls-10" x="192.74" y="120.19" width="2.92" height="8.41"/><rect class="cls-10" x="191.28" y="120.18" width="0.18" height="8.42"/><rect class="cls-10" x="196.95" y="120.18" width="0.18" height="8.42"/><rect class="cls-10" x="184.64" y="131.19" width="5.51" height="2.92"/><rect class="cls-10" x="184.63" y="129.73" width="5.52" height="0.17"/><rect class="cls-10" x="184.63" y="135.39" width="5.52" height="0.18"/><polygon class="cls-10" points="195.66 44.47 192.74 44.47 192.74 41.88 190.15 41.88 190.15 38.96 195.66 38.96 195.66 44.47"/><polygon class="cls-10" points="191.46 44.47 191.28 44.47 191.28 43.34 190.14 43.34 190.14 43.16 191.46 43.16 191.46 44.47"/><polygon class="cls-10" points="197.12 37.5 197.12 44.47 196.95 44.47 196.95 37.67 190.14 37.67 190.14 37.5 197.12 37.5"/><polygon class="cls-10" points="190.15 134.11 190.15 131.19 192.74 131.19 192.74 128.6 195.66 128.6 195.66 134.11 190.15 134.11"/><polygon class="cls-10" points="190.15 129.91 190.15 129.73 191.28 129.73 191.28 128.59 191.46 128.59 191.46 129.91 190.15 129.91"/><polygon class="cls-10" points="197.12 135.57 190.15 135.57 190.15 135.39 196.95 135.39 196.95 128.59 197.12 128.59 197.12 135.57"/><rect class="cls-10" x="65.06" y="131.19" width="4.67" height="2.92"/><rect class="cls-10" x="65.06" y="129.73" width="4.68" height="0.17"/><rect class="cls-10" x="65.06" y="135.39" width="4.68" height="0.18"/><rect class="cls-10" x="59.54" y="120.18" width="2.92" height="8.41"/><rect class="cls-10" x="63.75" y="120.18" width="0.18" height="8.42"/><rect class="cls-10" x="58.08" y="120.18" width="0.18" height="8.42"/><rect class="cls-10" x="59.54" y="111.77" width="2.92" height="8.41"/><rect class="cls-10" x="63.75" y="111.77" width="0.18" height="8.42"/><rect class="cls-10" x="58.08" y="111.77" width="0.18" height="8.42"/><rect class="cls-10" x="59.54" y="103.36" width="2.92" height="8.41"/><rect class="cls-10" x="63.75" y="103.36" width="0.18" height="8.42"/><rect class="cls-10" x="58.08" y="103.36" width="0.18" height="8.42"/><rect class="cls-10" x="59.54" y="94.95" width="2.92" height="8.41"/><rect class="cls-10" x="63.75" y="94.95" width="0.18" height="8.42"/><rect class="cls-10" x="58.08" y="94.95" width="0.18" height="8.42"/><rect class="cls-10" x="59.54" y="86.53" width="2.92" height="8.41"/><rect class="cls-10" x="63.75" y="86.53" width="0.18" height="8.42"/><rect class="cls-10" x="58.08" y="86.53" width="0.18" height="8.42"/><rect class="cls-10" x="59.54" y="78.12" width="2.92" height="8.41"/><rect class="cls-10" x="63.75" y="78.12" width="0.18" height="8.42"/><rect class="cls-10" x="58.08" y="78.12" width="0.18" height="8.42"/><rect class="cls-10" x="59.54" y="69.71" width="2.92" height="8.41"/><rect class="cls-10" x="63.75" y="69.71" width="0.18" height="8.42"/><rect class="cls-10" x="58.08" y="69.71" width="0.18" height="8.42"/><rect class="cls-10" x="59.54" y="61.3" width="2.92" height="8.41"/><rect class="cls-10" x="63.75" y="61.29" width="0.18" height="8.42"/><rect class="cls-10" x="58.08" y="61.29" width="0.18" height="8.42"/><rect class="cls-10" x="59.54" y="52.88" width="2.92" height="8.41"/><rect class="cls-10" x="63.75" y="52.88" width="0.18" height="8.42"/><rect class="cls-10" x="58.08" y="52.88" width="0.18" height="8.42"/><rect class="cls-10" x="59.54" y="44.47" width="2.92" height="8.41"/><rect class="cls-10" x="63.75" y="44.47" width="0.18" height="8.42"/><rect class="cls-10" x="58.08" y="44.47" width="0.18" height="8.42"/><rect class="cls-10" x="65.06" y="38.96" width="2.18" height="2.92"/><rect class="cls-10" x="65.06" y="43.16" width="2.18" height="0.18"/><rect class="cls-10" x="65.06" y="37.5" width="2.18" height="0.18"/><polygon class="cls-10" points="59.55 128.59 62.47 128.59 62.47 131.19 65.06 131.19 65.06 134.11 59.55 134.11 59.55 128.59"/><polygon class="cls-10" points="63.75 128.59 63.92 128.59 63.92 129.73 65.06 129.73 65.06 129.9 63.75 129.9 63.75 128.59"/><polygon class="cls-10" points="58.09 135.57 58.09 128.59 58.26 128.59 58.26 135.39 65.06 135.39 65.06 135.57 58.09 135.57"/><polygon class="cls-10" points="65.06 38.96 65.06 41.88 62.47 41.88 62.47 44.47 59.55 44.47 59.55 38.96 65.06 38.96"/><polygon class="cls-10" points="65.06 43.16 65.06 43.34 63.93 43.34 63.93 44.48 63.75 44.48 63.75 43.16 65.06 43.16"/><polygon class="cls-10" points="58.09 37.5 65.06 37.5 65.06 37.67 58.26 37.67 58.26 44.48 58.09 44.48 58.09 37.5"/></g></svg>