<svg xmlns="http://www.w3.org/2000/svg" viewBox="0 0 250 150"><defs><style>.cls-1{fill:#231f20;}.cls-2{fill:#fff;}.cls-3{fill:#00adee;}</style></defs><title>vsc_ol</title><g id="Layer_1" data-name="Layer 1"><rect class="cls-1" x="17.84" y="-6.15" width="213.86" height="161.34"/><path class="cls-2" d="M232.16,95.06v21.7c0,26.13-13.06,41.07-38.26,41.07s-38.27-14.94-38.27-41.07V31.83c0-26.14,13.06-41.07,38.27-41.07s38.26,14.93,38.26,41.07V47.69H207.89V30.19c0-11.66-5.13-16.1-13.3-16.1s-13.29,4.44-13.29,16.1v88.2c0,11.67,5.13,15.87,13.29,15.87s13.3-4.2,13.3-15.87V95.06Z"/><path class="cls-3" d="M127.11-15.19c25,0,37.8,16.14,37.8,44.39v5.55H140.64V27.44C140.64,14.82,136,10,127.81,10S115,14.82,115,27.44c0,12.86,5.13,22.45,21.93,38.34,21.47,20.43,28.23,35.06,28.23,55.24,0,28.25-13.06,44.39-38.26,44.39S88.61,149.27,88.61,121V110.17h24.27v12.61c0,12.62,5.13,17.16,13.3,17.16s13.3-4.54,13.3-17.16c0-12.86-5.14-22.45-21.94-38.34C96.08,64,89.31,49.38,89.31,29.2,89.31,1,102.14-15.19,127.11-15.19Z"/><path class="cls-2" d="M63.41,125.86h.47L83.24-7.37l23.57-8L81.61,156H43.34L18.14-7.37H44Z"/></g></svg>